G04 #@! TF.FileFunction,Soldermask,Top*
%FSLAX46Y46*%
G04 Gerber Fmt 4.6, Leading zero omitted, Abs format (unit mm)*
G04 Created by KiCad (PCBNEW 4.0.4+e1-6308~48~ubuntu14.04.1-stable) date Tue Oct 18 21:08:23 2016*
%MOMM*%
%LPD*%
G01*
G04 APERTURE LIST*
%ADD10C,0.100000*%
%ADD11R,0.857200X1.910000*%
%ADD12R,1.100000X1.700000*%
%ADD13R,2.127200X2.127200*%
%ADD14O,2.127200X2.127200*%
%ADD15R,1.700000X1.100000*%
%ADD16R,2.000000X1.400000*%
%ADD17R,1.400000X1.650000*%
%ADD18R,1.400000X2.000000*%
%ADD19R,1.650000X1.400000*%
%ADD20R,1.598880X1.598880*%
%ADD21R,2.301600X2.101600*%
%ADD22R,2.200000X2.000000*%
%ADD23R,2.800000X1.900000*%
%ADD24R,1.700000X1.950000*%
%ADD25R,1.301600X0.651600*%
%ADD26R,2.000000X2.200000*%
%ADD27R,0.601600X2.351600*%
%ADD28R,2.201600X3.601600*%
%ADD29R,2.201600X4.101600*%
%ADD30C,1.400000*%
%ADD31R,1.200100X1.200100*%
%ADD32R,1.700000X0.650000*%
%ADD33R,0.650000X1.700000*%
%ADD34R,1.800000X1.600000*%
%ADD35R,1.310000X1.620000*%
%ADD36R,1.620000X1.310000*%
%ADD37O,2.381200X4.362400*%
G04 APERTURE END LIST*
D10*
D11*
X29607366Y-111413832D03*
X30407366Y-111413832D03*
X31207366Y-111413832D03*
X32007366Y-111413832D03*
X32807366Y-111413832D03*
X33607366Y-111413832D03*
X34407366Y-111413832D03*
X35207366Y-111413832D03*
X36007366Y-111413832D03*
X36807366Y-111413832D03*
X37607366Y-111413832D03*
X38407366Y-111413832D03*
X39207366Y-111413832D03*
X40007366Y-111413832D03*
X40807366Y-111413832D03*
X41607366Y-111413832D03*
X42407366Y-111413832D03*
X43207366Y-111413832D03*
X44007366Y-111413832D03*
X44807366Y-111413832D03*
X45607366Y-111413832D03*
X46407366Y-111413832D03*
X47207366Y-111413832D03*
X48007366Y-111413832D03*
X48807366Y-111413832D03*
X49607366Y-111413832D03*
X50407366Y-111413832D03*
X50407366Y-99743832D03*
X49607366Y-99743832D03*
X48807366Y-99743832D03*
X48007366Y-99743832D03*
X47207366Y-99743832D03*
X46407366Y-99743832D03*
X45607366Y-99743832D03*
X44807366Y-99743832D03*
X44007366Y-99743832D03*
X43207366Y-99743832D03*
X42407366Y-99743832D03*
X41607366Y-99743832D03*
X40807366Y-99743832D03*
X40007366Y-99743832D03*
X39207366Y-99743832D03*
X38407366Y-99743832D03*
X37607366Y-99743832D03*
X36807366Y-99743832D03*
X36007366Y-99743832D03*
X35207366Y-99743832D03*
X34407366Y-99743832D03*
X33607366Y-99743832D03*
X32807366Y-99743832D03*
X32007366Y-99743832D03*
X31207366Y-99743832D03*
X30407366Y-99743832D03*
X29607366Y-99743832D03*
D12*
X34049996Y-44850000D03*
X32149996Y-44850000D03*
D13*
X22110000Y-81000000D03*
D14*
X24650000Y-81000000D03*
X22110000Y-83540000D03*
X24650000Y-83540000D03*
X22110000Y-86080000D03*
X24650000Y-86080000D03*
X22110000Y-88620000D03*
X24650000Y-88620000D03*
X22110000Y-91160000D03*
X24650000Y-91160000D03*
X22110000Y-93700000D03*
X24650000Y-93700000D03*
X22110000Y-96240000D03*
X24650000Y-96240000D03*
X22110000Y-98780000D03*
X24650000Y-98780000D03*
X22110000Y-101320000D03*
X24650000Y-101320000D03*
X22110000Y-103860000D03*
X24650000Y-103860000D03*
X22110000Y-106400000D03*
X24650000Y-106400000D03*
X22110000Y-108940000D03*
X24650000Y-108940000D03*
X22110000Y-111480000D03*
X24650000Y-111480000D03*
X22110000Y-114020000D03*
X24650000Y-114020000D03*
X22110000Y-116560000D03*
X24650000Y-116560000D03*
X22110000Y-119100000D03*
X24650000Y-119100000D03*
X22110000Y-121640000D03*
X24650000Y-121640000D03*
X22110000Y-124180000D03*
X24650000Y-124180000D03*
X22110000Y-126720000D03*
X24650000Y-126720000D03*
X22110000Y-129260000D03*
X24650000Y-129260000D03*
D15*
X48950000Y-37250000D03*
X48950000Y-35350000D03*
D10*
G36*
X82745169Y-104780058D02*
X83240143Y-105275032D01*
X81861285Y-106653890D01*
X81366311Y-106158916D01*
X82745169Y-104780058D01*
X82745169Y-104780058D01*
G37*
G36*
X82391616Y-104426504D02*
X82886590Y-104921478D01*
X81507732Y-106300336D01*
X81012758Y-105805362D01*
X82391616Y-104426504D01*
X82391616Y-104426504D01*
G37*
G36*
X82038062Y-104072951D02*
X82533036Y-104567925D01*
X81154178Y-105946783D01*
X80659204Y-105451809D01*
X82038062Y-104072951D01*
X82038062Y-104072951D01*
G37*
G36*
X81684509Y-103719398D02*
X82179483Y-104214372D01*
X80800625Y-105593230D01*
X80305651Y-105098256D01*
X81684509Y-103719398D01*
X81684509Y-103719398D01*
G37*
G36*
X81330955Y-103365844D02*
X81825929Y-103860818D01*
X80447071Y-105239676D01*
X79952097Y-104744702D01*
X81330955Y-103365844D01*
X81330955Y-103365844D01*
G37*
G36*
X80977402Y-103012291D02*
X81472376Y-103507265D01*
X80093518Y-104886123D01*
X79598544Y-104391149D01*
X80977402Y-103012291D01*
X80977402Y-103012291D01*
G37*
G36*
X80623849Y-102658737D02*
X81118823Y-103153711D01*
X79739965Y-104532569D01*
X79244991Y-104037595D01*
X80623849Y-102658737D01*
X80623849Y-102658737D01*
G37*
G36*
X80270295Y-102305184D02*
X80765269Y-102800158D01*
X79386411Y-104179016D01*
X78891437Y-103684042D01*
X80270295Y-102305184D01*
X80270295Y-102305184D01*
G37*
G36*
X79916742Y-101951631D02*
X80411716Y-102446605D01*
X79032858Y-103825463D01*
X78537884Y-103330489D01*
X79916742Y-101951631D01*
X79916742Y-101951631D01*
G37*
G36*
X79563188Y-101598077D02*
X80058162Y-102093051D01*
X78679304Y-103471909D01*
X78184330Y-102976935D01*
X79563188Y-101598077D01*
X79563188Y-101598077D01*
G37*
G36*
X79209635Y-101244524D02*
X79704609Y-101739498D01*
X78325751Y-103118356D01*
X77830777Y-102623382D01*
X79209635Y-101244524D01*
X79209635Y-101244524D01*
G37*
G36*
X78856082Y-100890970D02*
X79351056Y-101385944D01*
X77972198Y-102764802D01*
X77477224Y-102269828D01*
X78856082Y-100890970D01*
X78856082Y-100890970D01*
G37*
G36*
X78502528Y-100537417D02*
X78997502Y-101032391D01*
X77618644Y-102411249D01*
X77123670Y-101916275D01*
X78502528Y-100537417D01*
X78502528Y-100537417D01*
G37*
G36*
X78148975Y-100183864D02*
X78643949Y-100678838D01*
X77265091Y-102057696D01*
X76770117Y-101562722D01*
X78148975Y-100183864D01*
X78148975Y-100183864D01*
G37*
G36*
X77795421Y-99830310D02*
X78290395Y-100325284D01*
X76911537Y-101704142D01*
X76416563Y-101209168D01*
X77795421Y-99830310D01*
X77795421Y-99830310D01*
G37*
G36*
X77441868Y-99476757D02*
X77936842Y-99971731D01*
X76557984Y-101350589D01*
X76063010Y-100855615D01*
X77441868Y-99476757D01*
X77441868Y-99476757D01*
G37*
G36*
X77088315Y-99123204D02*
X77583289Y-99618178D01*
X76204431Y-100997036D01*
X75709457Y-100502062D01*
X77088315Y-99123204D01*
X77088315Y-99123204D01*
G37*
G36*
X76734761Y-98769650D02*
X77229735Y-99264624D01*
X75850877Y-100643482D01*
X75355903Y-100148508D01*
X76734761Y-98769650D01*
X76734761Y-98769650D01*
G37*
G36*
X76381208Y-98416097D02*
X76876182Y-98911071D01*
X75497324Y-100289929D01*
X75002350Y-99794955D01*
X76381208Y-98416097D01*
X76381208Y-98416097D01*
G37*
G36*
X76027654Y-98062543D02*
X76522628Y-98557517D01*
X75143770Y-99936375D01*
X74648796Y-99441401D01*
X76027654Y-98062543D01*
X76027654Y-98062543D01*
G37*
G36*
X75674101Y-97708990D02*
X76169075Y-98203964D01*
X74790217Y-99582822D01*
X74295243Y-99087848D01*
X75674101Y-97708990D01*
X75674101Y-97708990D01*
G37*
G36*
X75320548Y-97355437D02*
X75815522Y-97850411D01*
X74436664Y-99229269D01*
X73941690Y-98734295D01*
X75320548Y-97355437D01*
X75320548Y-97355437D01*
G37*
G36*
X74966994Y-97001883D02*
X75461968Y-97496857D01*
X74083110Y-98875715D01*
X73588136Y-98380741D01*
X74966994Y-97001883D01*
X74966994Y-97001883D01*
G37*
G36*
X74613441Y-96648330D02*
X75108415Y-97143304D01*
X73729557Y-98522162D01*
X73234583Y-98027188D01*
X74613441Y-96648330D01*
X74613441Y-96648330D01*
G37*
G36*
X74259888Y-96294776D02*
X74754862Y-96789750D01*
X73376004Y-98168608D01*
X72881030Y-97673634D01*
X74259888Y-96294776D01*
X74259888Y-96294776D01*
G37*
G36*
X73906334Y-95941223D02*
X74401308Y-96436197D01*
X73022450Y-97815055D01*
X72527476Y-97320081D01*
X73906334Y-95941223D01*
X73906334Y-95941223D01*
G37*
G36*
X73552781Y-95587670D02*
X74047755Y-96082644D01*
X72668897Y-97461502D01*
X72173923Y-96966528D01*
X73552781Y-95587670D01*
X73552781Y-95587670D01*
G37*
G36*
X73199227Y-95234116D02*
X73694201Y-95729090D01*
X72315343Y-97107948D01*
X71820369Y-96612974D01*
X73199227Y-95234116D01*
X73199227Y-95234116D01*
G37*
G36*
X72845674Y-94880563D02*
X73340648Y-95375537D01*
X71961790Y-96754395D01*
X71466816Y-96259421D01*
X72845674Y-94880563D01*
X72845674Y-94880563D01*
G37*
G36*
X72492121Y-94527009D02*
X72987095Y-95021983D01*
X71608237Y-96400841D01*
X71113263Y-95905867D01*
X72492121Y-94527009D01*
X72492121Y-94527009D01*
G37*
G36*
X72138567Y-94173456D02*
X72633541Y-94668430D01*
X71254683Y-96047288D01*
X70759709Y-95552314D01*
X72138567Y-94173456D01*
X72138567Y-94173456D01*
G37*
G36*
X71785014Y-93819903D02*
X72279988Y-94314877D01*
X70901130Y-95693735D01*
X70406156Y-95198761D01*
X71785014Y-93819903D01*
X71785014Y-93819903D01*
G37*
G36*
X71431460Y-93466349D02*
X71926434Y-93961323D01*
X70547576Y-95340181D01*
X70052602Y-94845207D01*
X71431460Y-93466349D01*
X71431460Y-93466349D01*
G37*
G36*
X71077907Y-93112796D02*
X71572881Y-93607770D01*
X70194023Y-94986628D01*
X69699049Y-94491654D01*
X71077907Y-93112796D01*
X71077907Y-93112796D01*
G37*
G36*
X70724354Y-92759242D02*
X71219328Y-93254216D01*
X69840470Y-94633074D01*
X69345496Y-94138100D01*
X70724354Y-92759242D01*
X70724354Y-92759242D01*
G37*
G36*
X70370800Y-92405689D02*
X70865774Y-92900663D01*
X69486916Y-94279521D01*
X68991942Y-93784547D01*
X70370800Y-92405689D01*
X70370800Y-92405689D01*
G37*
G36*
X66234226Y-92900663D02*
X66729200Y-92405689D01*
X68108058Y-93784547D01*
X67613084Y-94279521D01*
X66234226Y-92900663D01*
X66234226Y-92900663D01*
G37*
G36*
X65880672Y-93254216D02*
X66375646Y-92759242D01*
X67754504Y-94138100D01*
X67259530Y-94633074D01*
X65880672Y-93254216D01*
X65880672Y-93254216D01*
G37*
G36*
X65527119Y-93607770D02*
X66022093Y-93112796D01*
X67400951Y-94491654D01*
X66905977Y-94986628D01*
X65527119Y-93607770D01*
X65527119Y-93607770D01*
G37*
G36*
X65173566Y-93961323D02*
X65668540Y-93466349D01*
X67047398Y-94845207D01*
X66552424Y-95340181D01*
X65173566Y-93961323D01*
X65173566Y-93961323D01*
G37*
G36*
X64820012Y-94314877D02*
X65314986Y-93819903D01*
X66693844Y-95198761D01*
X66198870Y-95693735D01*
X64820012Y-94314877D01*
X64820012Y-94314877D01*
G37*
G36*
X64466459Y-94668430D02*
X64961433Y-94173456D01*
X66340291Y-95552314D01*
X65845317Y-96047288D01*
X64466459Y-94668430D01*
X64466459Y-94668430D01*
G37*
G36*
X64112905Y-95021983D02*
X64607879Y-94527009D01*
X65986737Y-95905867D01*
X65491763Y-96400841D01*
X64112905Y-95021983D01*
X64112905Y-95021983D01*
G37*
G36*
X63759352Y-95375537D02*
X64254326Y-94880563D01*
X65633184Y-96259421D01*
X65138210Y-96754395D01*
X63759352Y-95375537D01*
X63759352Y-95375537D01*
G37*
G36*
X63405799Y-95729090D02*
X63900773Y-95234116D01*
X65279631Y-96612974D01*
X64784657Y-97107948D01*
X63405799Y-95729090D01*
X63405799Y-95729090D01*
G37*
G36*
X63052245Y-96082644D02*
X63547219Y-95587670D01*
X64926077Y-96966528D01*
X64431103Y-97461502D01*
X63052245Y-96082644D01*
X63052245Y-96082644D01*
G37*
G36*
X62698692Y-96436197D02*
X63193666Y-95941223D01*
X64572524Y-97320081D01*
X64077550Y-97815055D01*
X62698692Y-96436197D01*
X62698692Y-96436197D01*
G37*
G36*
X62345138Y-96789750D02*
X62840112Y-96294776D01*
X64218970Y-97673634D01*
X63723996Y-98168608D01*
X62345138Y-96789750D01*
X62345138Y-96789750D01*
G37*
G36*
X61991585Y-97143304D02*
X62486559Y-96648330D01*
X63865417Y-98027188D01*
X63370443Y-98522162D01*
X61991585Y-97143304D01*
X61991585Y-97143304D01*
G37*
G36*
X61638032Y-97496857D02*
X62133006Y-97001883D01*
X63511864Y-98380741D01*
X63016890Y-98875715D01*
X61638032Y-97496857D01*
X61638032Y-97496857D01*
G37*
G36*
X61284478Y-97850411D02*
X61779452Y-97355437D01*
X63158310Y-98734295D01*
X62663336Y-99229269D01*
X61284478Y-97850411D01*
X61284478Y-97850411D01*
G37*
G36*
X60930925Y-98203964D02*
X61425899Y-97708990D01*
X62804757Y-99087848D01*
X62309783Y-99582822D01*
X60930925Y-98203964D01*
X60930925Y-98203964D01*
G37*
G36*
X60577372Y-98557517D02*
X61072346Y-98062543D01*
X62451204Y-99441401D01*
X61956230Y-99936375D01*
X60577372Y-98557517D01*
X60577372Y-98557517D01*
G37*
G36*
X60223818Y-98911071D02*
X60718792Y-98416097D01*
X62097650Y-99794955D01*
X61602676Y-100289929D01*
X60223818Y-98911071D01*
X60223818Y-98911071D01*
G37*
G36*
X59870265Y-99264624D02*
X60365239Y-98769650D01*
X61744097Y-100148508D01*
X61249123Y-100643482D01*
X59870265Y-99264624D01*
X59870265Y-99264624D01*
G37*
G36*
X59516711Y-99618178D02*
X60011685Y-99123204D01*
X61390543Y-100502062D01*
X60895569Y-100997036D01*
X59516711Y-99618178D01*
X59516711Y-99618178D01*
G37*
G36*
X59163158Y-99971731D02*
X59658132Y-99476757D01*
X61036990Y-100855615D01*
X60542016Y-101350589D01*
X59163158Y-99971731D01*
X59163158Y-99971731D01*
G37*
G36*
X58809605Y-100325284D02*
X59304579Y-99830310D01*
X60683437Y-101209168D01*
X60188463Y-101704142D01*
X58809605Y-100325284D01*
X58809605Y-100325284D01*
G37*
G36*
X58456051Y-100678838D02*
X58951025Y-100183864D01*
X60329883Y-101562722D01*
X59834909Y-102057696D01*
X58456051Y-100678838D01*
X58456051Y-100678838D01*
G37*
G36*
X58102498Y-101032391D02*
X58597472Y-100537417D01*
X59976330Y-101916275D01*
X59481356Y-102411249D01*
X58102498Y-101032391D01*
X58102498Y-101032391D01*
G37*
G36*
X57748944Y-101385944D02*
X58243918Y-100890970D01*
X59622776Y-102269828D01*
X59127802Y-102764802D01*
X57748944Y-101385944D01*
X57748944Y-101385944D01*
G37*
G36*
X57395391Y-101739498D02*
X57890365Y-101244524D01*
X59269223Y-102623382D01*
X58774249Y-103118356D01*
X57395391Y-101739498D01*
X57395391Y-101739498D01*
G37*
G36*
X57041838Y-102093051D02*
X57536812Y-101598077D01*
X58915670Y-102976935D01*
X58420696Y-103471909D01*
X57041838Y-102093051D01*
X57041838Y-102093051D01*
G37*
G36*
X56688284Y-102446605D02*
X57183258Y-101951631D01*
X58562116Y-103330489D01*
X58067142Y-103825463D01*
X56688284Y-102446605D01*
X56688284Y-102446605D01*
G37*
G36*
X56334731Y-102800158D02*
X56829705Y-102305184D01*
X58208563Y-103684042D01*
X57713589Y-104179016D01*
X56334731Y-102800158D01*
X56334731Y-102800158D01*
G37*
G36*
X55981177Y-103153711D02*
X56476151Y-102658737D01*
X57855009Y-104037595D01*
X57360035Y-104532569D01*
X55981177Y-103153711D01*
X55981177Y-103153711D01*
G37*
G36*
X55627624Y-103507265D02*
X56122598Y-103012291D01*
X57501456Y-104391149D01*
X57006482Y-104886123D01*
X55627624Y-103507265D01*
X55627624Y-103507265D01*
G37*
G36*
X55274071Y-103860818D02*
X55769045Y-103365844D01*
X57147903Y-104744702D01*
X56652929Y-105239676D01*
X55274071Y-103860818D01*
X55274071Y-103860818D01*
G37*
G36*
X54920517Y-104214372D02*
X55415491Y-103719398D01*
X56794349Y-105098256D01*
X56299375Y-105593230D01*
X54920517Y-104214372D01*
X54920517Y-104214372D01*
G37*
G36*
X54566964Y-104567925D02*
X55061938Y-104072951D01*
X56440796Y-105451809D01*
X55945822Y-105946783D01*
X54566964Y-104567925D01*
X54566964Y-104567925D01*
G37*
G36*
X54213410Y-104921478D02*
X54708384Y-104426504D01*
X56087242Y-105805362D01*
X55592268Y-106300336D01*
X54213410Y-104921478D01*
X54213410Y-104921478D01*
G37*
G36*
X53859857Y-105275032D02*
X54354831Y-104780058D01*
X55733689Y-106158916D01*
X55238715Y-106653890D01*
X53859857Y-105275032D01*
X53859857Y-105275032D01*
G37*
G36*
X55238715Y-107537774D02*
X55733689Y-108032748D01*
X54354831Y-109411606D01*
X53859857Y-108916632D01*
X55238715Y-107537774D01*
X55238715Y-107537774D01*
G37*
G36*
X55592268Y-107891328D02*
X56087242Y-108386302D01*
X54708384Y-109765160D01*
X54213410Y-109270186D01*
X55592268Y-107891328D01*
X55592268Y-107891328D01*
G37*
G36*
X55945822Y-108244881D02*
X56440796Y-108739855D01*
X55061938Y-110118713D01*
X54566964Y-109623739D01*
X55945822Y-108244881D01*
X55945822Y-108244881D01*
G37*
G36*
X56299375Y-108598434D02*
X56794349Y-109093408D01*
X55415491Y-110472266D01*
X54920517Y-109977292D01*
X56299375Y-108598434D01*
X56299375Y-108598434D01*
G37*
G36*
X56652929Y-108951988D02*
X57147903Y-109446962D01*
X55769045Y-110825820D01*
X55274071Y-110330846D01*
X56652929Y-108951988D01*
X56652929Y-108951988D01*
G37*
G36*
X57006482Y-109305541D02*
X57501456Y-109800515D01*
X56122598Y-111179373D01*
X55627624Y-110684399D01*
X57006482Y-109305541D01*
X57006482Y-109305541D01*
G37*
G36*
X57360035Y-109659095D02*
X57855009Y-110154069D01*
X56476151Y-111532927D01*
X55981177Y-111037953D01*
X57360035Y-109659095D01*
X57360035Y-109659095D01*
G37*
G36*
X57713589Y-110012648D02*
X58208563Y-110507622D01*
X56829705Y-111886480D01*
X56334731Y-111391506D01*
X57713589Y-110012648D01*
X57713589Y-110012648D01*
G37*
G36*
X58067142Y-110366201D02*
X58562116Y-110861175D01*
X57183258Y-112240033D01*
X56688284Y-111745059D01*
X58067142Y-110366201D01*
X58067142Y-110366201D01*
G37*
G36*
X58420696Y-110719755D02*
X58915670Y-111214729D01*
X57536812Y-112593587D01*
X57041838Y-112098613D01*
X58420696Y-110719755D01*
X58420696Y-110719755D01*
G37*
G36*
X58774249Y-111073308D02*
X59269223Y-111568282D01*
X57890365Y-112947140D01*
X57395391Y-112452166D01*
X58774249Y-111073308D01*
X58774249Y-111073308D01*
G37*
G36*
X59127802Y-111426862D02*
X59622776Y-111921836D01*
X58243918Y-113300694D01*
X57748944Y-112805720D01*
X59127802Y-111426862D01*
X59127802Y-111426862D01*
G37*
G36*
X59481356Y-111780415D02*
X59976330Y-112275389D01*
X58597472Y-113654247D01*
X58102498Y-113159273D01*
X59481356Y-111780415D01*
X59481356Y-111780415D01*
G37*
G36*
X59834909Y-112133968D02*
X60329883Y-112628942D01*
X58951025Y-114007800D01*
X58456051Y-113512826D01*
X59834909Y-112133968D01*
X59834909Y-112133968D01*
G37*
G36*
X60188463Y-112487522D02*
X60683437Y-112982496D01*
X59304579Y-114361354D01*
X58809605Y-113866380D01*
X60188463Y-112487522D01*
X60188463Y-112487522D01*
G37*
G36*
X60542016Y-112841075D02*
X61036990Y-113336049D01*
X59658132Y-114714907D01*
X59163158Y-114219933D01*
X60542016Y-112841075D01*
X60542016Y-112841075D01*
G37*
G36*
X60895569Y-113194628D02*
X61390543Y-113689602D01*
X60011685Y-115068460D01*
X59516711Y-114573486D01*
X60895569Y-113194628D01*
X60895569Y-113194628D01*
G37*
G36*
X61249123Y-113548182D02*
X61744097Y-114043156D01*
X60365239Y-115422014D01*
X59870265Y-114927040D01*
X61249123Y-113548182D01*
X61249123Y-113548182D01*
G37*
G36*
X61602676Y-113901735D02*
X62097650Y-114396709D01*
X60718792Y-115775567D01*
X60223818Y-115280593D01*
X61602676Y-113901735D01*
X61602676Y-113901735D01*
G37*
G36*
X61956230Y-114255289D02*
X62451204Y-114750263D01*
X61072346Y-116129121D01*
X60577372Y-115634147D01*
X61956230Y-114255289D01*
X61956230Y-114255289D01*
G37*
G36*
X62309783Y-114608842D02*
X62804757Y-115103816D01*
X61425899Y-116482674D01*
X60930925Y-115987700D01*
X62309783Y-114608842D01*
X62309783Y-114608842D01*
G37*
G36*
X62663336Y-114962395D02*
X63158310Y-115457369D01*
X61779452Y-116836227D01*
X61284478Y-116341253D01*
X62663336Y-114962395D01*
X62663336Y-114962395D01*
G37*
G36*
X63016890Y-115315949D02*
X63511864Y-115810923D01*
X62133006Y-117189781D01*
X61638032Y-116694807D01*
X63016890Y-115315949D01*
X63016890Y-115315949D01*
G37*
G36*
X63370443Y-115669502D02*
X63865417Y-116164476D01*
X62486559Y-117543334D01*
X61991585Y-117048360D01*
X63370443Y-115669502D01*
X63370443Y-115669502D01*
G37*
G36*
X63723996Y-116023056D02*
X64218970Y-116518030D01*
X62840112Y-117896888D01*
X62345138Y-117401914D01*
X63723996Y-116023056D01*
X63723996Y-116023056D01*
G37*
G36*
X64077550Y-116376609D02*
X64572524Y-116871583D01*
X63193666Y-118250441D01*
X62698692Y-117755467D01*
X64077550Y-116376609D01*
X64077550Y-116376609D01*
G37*
G36*
X64431103Y-116730162D02*
X64926077Y-117225136D01*
X63547219Y-118603994D01*
X63052245Y-118109020D01*
X64431103Y-116730162D01*
X64431103Y-116730162D01*
G37*
G36*
X64784657Y-117083716D02*
X65279631Y-117578690D01*
X63900773Y-118957548D01*
X63405799Y-118462574D01*
X64784657Y-117083716D01*
X64784657Y-117083716D01*
G37*
G36*
X65138210Y-117437269D02*
X65633184Y-117932243D01*
X64254326Y-119311101D01*
X63759352Y-118816127D01*
X65138210Y-117437269D01*
X65138210Y-117437269D01*
G37*
G36*
X65491763Y-117790823D02*
X65986737Y-118285797D01*
X64607879Y-119664655D01*
X64112905Y-119169681D01*
X65491763Y-117790823D01*
X65491763Y-117790823D01*
G37*
G36*
X65845317Y-118144376D02*
X66340291Y-118639350D01*
X64961433Y-120018208D01*
X64466459Y-119523234D01*
X65845317Y-118144376D01*
X65845317Y-118144376D01*
G37*
G36*
X66198870Y-118497929D02*
X66693844Y-118992903D01*
X65314986Y-120371761D01*
X64820012Y-119876787D01*
X66198870Y-118497929D01*
X66198870Y-118497929D01*
G37*
G36*
X66552424Y-118851483D02*
X67047398Y-119346457D01*
X65668540Y-120725315D01*
X65173566Y-120230341D01*
X66552424Y-118851483D01*
X66552424Y-118851483D01*
G37*
G36*
X66905977Y-119205036D02*
X67400951Y-119700010D01*
X66022093Y-121078868D01*
X65527119Y-120583894D01*
X66905977Y-119205036D01*
X66905977Y-119205036D01*
G37*
G36*
X67259530Y-119558590D02*
X67754504Y-120053564D01*
X66375646Y-121432422D01*
X65880672Y-120937448D01*
X67259530Y-119558590D01*
X67259530Y-119558590D01*
G37*
G36*
X67613084Y-119912143D02*
X68108058Y-120407117D01*
X66729200Y-121785975D01*
X66234226Y-121291001D01*
X67613084Y-119912143D01*
X67613084Y-119912143D01*
G37*
G36*
X68991942Y-120407117D02*
X69486916Y-119912143D01*
X70865774Y-121291001D01*
X70370800Y-121785975D01*
X68991942Y-120407117D01*
X68991942Y-120407117D01*
G37*
G36*
X69345496Y-120053564D02*
X69840470Y-119558590D01*
X71219328Y-120937448D01*
X70724354Y-121432422D01*
X69345496Y-120053564D01*
X69345496Y-120053564D01*
G37*
G36*
X69699049Y-119700010D02*
X70194023Y-119205036D01*
X71572881Y-120583894D01*
X71077907Y-121078868D01*
X69699049Y-119700010D01*
X69699049Y-119700010D01*
G37*
G36*
X70052602Y-119346457D02*
X70547576Y-118851483D01*
X71926434Y-120230341D01*
X71431460Y-120725315D01*
X70052602Y-119346457D01*
X70052602Y-119346457D01*
G37*
G36*
X70406156Y-118992903D02*
X70901130Y-118497929D01*
X72279988Y-119876787D01*
X71785014Y-120371761D01*
X70406156Y-118992903D01*
X70406156Y-118992903D01*
G37*
G36*
X70759709Y-118639350D02*
X71254683Y-118144376D01*
X72633541Y-119523234D01*
X72138567Y-120018208D01*
X70759709Y-118639350D01*
X70759709Y-118639350D01*
G37*
G36*
X71113263Y-118285797D02*
X71608237Y-117790823D01*
X72987095Y-119169681D01*
X72492121Y-119664655D01*
X71113263Y-118285797D01*
X71113263Y-118285797D01*
G37*
G36*
X71466816Y-117932243D02*
X71961790Y-117437269D01*
X73340648Y-118816127D01*
X72845674Y-119311101D01*
X71466816Y-117932243D01*
X71466816Y-117932243D01*
G37*
G36*
X71820369Y-117578690D02*
X72315343Y-117083716D01*
X73694201Y-118462574D01*
X73199227Y-118957548D01*
X71820369Y-117578690D01*
X71820369Y-117578690D01*
G37*
G36*
X72173923Y-117225136D02*
X72668897Y-116730162D01*
X74047755Y-118109020D01*
X73552781Y-118603994D01*
X72173923Y-117225136D01*
X72173923Y-117225136D01*
G37*
G36*
X72527476Y-116871583D02*
X73022450Y-116376609D01*
X74401308Y-117755467D01*
X73906334Y-118250441D01*
X72527476Y-116871583D01*
X72527476Y-116871583D01*
G37*
G36*
X72881030Y-116518030D02*
X73376004Y-116023056D01*
X74754862Y-117401914D01*
X74259888Y-117896888D01*
X72881030Y-116518030D01*
X72881030Y-116518030D01*
G37*
G36*
X73234583Y-116164476D02*
X73729557Y-115669502D01*
X75108415Y-117048360D01*
X74613441Y-117543334D01*
X73234583Y-116164476D01*
X73234583Y-116164476D01*
G37*
G36*
X73588136Y-115810923D02*
X74083110Y-115315949D01*
X75461968Y-116694807D01*
X74966994Y-117189781D01*
X73588136Y-115810923D01*
X73588136Y-115810923D01*
G37*
G36*
X73941690Y-115457369D02*
X74436664Y-114962395D01*
X75815522Y-116341253D01*
X75320548Y-116836227D01*
X73941690Y-115457369D01*
X73941690Y-115457369D01*
G37*
G36*
X74295243Y-115103816D02*
X74790217Y-114608842D01*
X76169075Y-115987700D01*
X75674101Y-116482674D01*
X74295243Y-115103816D01*
X74295243Y-115103816D01*
G37*
G36*
X74648796Y-114750263D02*
X75143770Y-114255289D01*
X76522628Y-115634147D01*
X76027654Y-116129121D01*
X74648796Y-114750263D01*
X74648796Y-114750263D01*
G37*
G36*
X75002350Y-114396709D02*
X75497324Y-113901735D01*
X76876182Y-115280593D01*
X76381208Y-115775567D01*
X75002350Y-114396709D01*
X75002350Y-114396709D01*
G37*
G36*
X75355903Y-114043156D02*
X75850877Y-113548182D01*
X77229735Y-114927040D01*
X76734761Y-115422014D01*
X75355903Y-114043156D01*
X75355903Y-114043156D01*
G37*
G36*
X75709457Y-113689602D02*
X76204431Y-113194628D01*
X77583289Y-114573486D01*
X77088315Y-115068460D01*
X75709457Y-113689602D01*
X75709457Y-113689602D01*
G37*
G36*
X76063010Y-113336049D02*
X76557984Y-112841075D01*
X77936842Y-114219933D01*
X77441868Y-114714907D01*
X76063010Y-113336049D01*
X76063010Y-113336049D01*
G37*
G36*
X76416563Y-112982496D02*
X76911537Y-112487522D01*
X78290395Y-113866380D01*
X77795421Y-114361354D01*
X76416563Y-112982496D01*
X76416563Y-112982496D01*
G37*
G36*
X76770117Y-112628942D02*
X77265091Y-112133968D01*
X78643949Y-113512826D01*
X78148975Y-114007800D01*
X76770117Y-112628942D01*
X76770117Y-112628942D01*
G37*
G36*
X77123670Y-112275389D02*
X77618644Y-111780415D01*
X78997502Y-113159273D01*
X78502528Y-113654247D01*
X77123670Y-112275389D01*
X77123670Y-112275389D01*
G37*
G36*
X77477224Y-111921836D02*
X77972198Y-111426862D01*
X79351056Y-112805720D01*
X78856082Y-113300694D01*
X77477224Y-111921836D01*
X77477224Y-111921836D01*
G37*
G36*
X77830777Y-111568282D02*
X78325751Y-111073308D01*
X79704609Y-112452166D01*
X79209635Y-112947140D01*
X77830777Y-111568282D01*
X77830777Y-111568282D01*
G37*
G36*
X78184330Y-111214729D02*
X78679304Y-110719755D01*
X80058162Y-112098613D01*
X79563188Y-112593587D01*
X78184330Y-111214729D01*
X78184330Y-111214729D01*
G37*
G36*
X78537884Y-110861175D02*
X79032858Y-110366201D01*
X80411716Y-111745059D01*
X79916742Y-112240033D01*
X78537884Y-110861175D01*
X78537884Y-110861175D01*
G37*
G36*
X78891437Y-110507622D02*
X79386411Y-110012648D01*
X80765269Y-111391506D01*
X80270295Y-111886480D01*
X78891437Y-110507622D01*
X78891437Y-110507622D01*
G37*
G36*
X79244991Y-110154069D02*
X79739965Y-109659095D01*
X81118823Y-111037953D01*
X80623849Y-111532927D01*
X79244991Y-110154069D01*
X79244991Y-110154069D01*
G37*
G36*
X79598544Y-109800515D02*
X80093518Y-109305541D01*
X81472376Y-110684399D01*
X80977402Y-111179373D01*
X79598544Y-109800515D01*
X79598544Y-109800515D01*
G37*
G36*
X79952097Y-109446962D02*
X80447071Y-108951988D01*
X81825929Y-110330846D01*
X81330955Y-110825820D01*
X79952097Y-109446962D01*
X79952097Y-109446962D01*
G37*
G36*
X80305651Y-109093408D02*
X80800625Y-108598434D01*
X82179483Y-109977292D01*
X81684509Y-110472266D01*
X80305651Y-109093408D01*
X80305651Y-109093408D01*
G37*
G36*
X80659204Y-108739855D02*
X81154178Y-108244881D01*
X82533036Y-109623739D01*
X82038062Y-110118713D01*
X80659204Y-108739855D01*
X80659204Y-108739855D01*
G37*
G36*
X81012758Y-108386302D02*
X81507732Y-107891328D01*
X82886590Y-109270186D01*
X82391616Y-109765160D01*
X81012758Y-108386302D01*
X81012758Y-108386302D01*
G37*
G36*
X81366311Y-108032748D02*
X81861285Y-107537774D01*
X83240143Y-108916632D01*
X82745169Y-109411606D01*
X81366311Y-108032748D01*
X81366311Y-108032748D01*
G37*
D12*
X52450000Y-50750000D03*
X54350000Y-50750000D03*
D10*
G36*
X78938300Y-116140381D02*
X80140381Y-114938300D01*
X80918198Y-115716117D01*
X79716117Y-116918198D01*
X78938300Y-116140381D01*
X78938300Y-116140381D01*
G37*
G36*
X80281802Y-117483883D02*
X81483883Y-116281802D01*
X82261700Y-117059619D01*
X81059619Y-118261700D01*
X80281802Y-117483883D01*
X80281802Y-117483883D01*
G37*
D16*
X87670000Y-39100000D03*
X87670000Y-42100000D03*
X88640000Y-48370000D03*
X88640000Y-51370000D03*
X70229194Y-24741390D03*
X70229194Y-27741390D03*
D17*
X95621870Y-132564032D03*
X93621870Y-132564032D03*
D16*
X72649194Y-24741390D03*
X72649194Y-27741390D03*
D18*
X85390000Y-37290000D03*
X82390000Y-37290000D03*
X85330000Y-46736000D03*
X82330000Y-46736000D03*
D10*
G36*
X60935445Y-95168719D02*
X59768719Y-96335445D01*
X58778769Y-95345495D01*
X59945495Y-94178769D01*
X60935445Y-95168719D01*
X60935445Y-95168719D01*
G37*
G36*
X59521231Y-93754505D02*
X58354505Y-94921231D01*
X57364555Y-93931281D01*
X58531281Y-92764555D01*
X59521231Y-93754505D01*
X59521231Y-93754505D01*
G37*
G36*
X59712742Y-96748528D02*
X58298528Y-98162742D01*
X57308578Y-97172792D01*
X58722792Y-95758578D01*
X59712742Y-96748528D01*
X59712742Y-96748528D01*
G37*
G36*
X57591422Y-94627208D02*
X56177208Y-96041422D01*
X55187258Y-95051472D01*
X56601472Y-93637258D01*
X57591422Y-94627208D01*
X57591422Y-94627208D01*
G37*
D19*
X80350000Y-128425000D03*
X80350000Y-130425000D03*
D17*
X71090000Y-43820000D03*
X69090000Y-43820000D03*
D20*
X24099000Y-42507592D03*
X24099000Y-40409552D03*
D21*
X84150000Y-125800000D03*
X84150000Y-120800000D03*
X79950000Y-120800000D03*
X79950000Y-125800000D03*
D10*
G36*
X66096518Y-121557969D02*
X67242031Y-122703482D01*
X66315722Y-123629791D01*
X65170209Y-122484278D01*
X66096518Y-121557969D01*
X66096518Y-121557969D01*
G37*
G36*
X63784278Y-123870209D02*
X64929791Y-125015722D01*
X64003482Y-125942031D01*
X62857969Y-124796518D01*
X63784278Y-123870209D01*
X63784278Y-123870209D01*
G37*
D22*
X75200000Y-24850000D03*
X75200000Y-27650000D03*
D23*
X77850000Y-42850000D03*
X77850000Y-37350000D03*
X77800000Y-52150000D03*
X77800000Y-46650000D03*
D20*
X96425000Y-61925980D03*
X96425000Y-64024020D03*
D13*
X93230000Y-81000000D03*
D14*
X95770000Y-81000000D03*
X93230000Y-83540000D03*
X95770000Y-83540000D03*
X93230000Y-86080000D03*
X95770000Y-86080000D03*
X93230000Y-88620000D03*
X95770000Y-88620000D03*
X93230000Y-91160000D03*
X95770000Y-91160000D03*
X93230000Y-93700000D03*
X95770000Y-93700000D03*
X93230000Y-96240000D03*
X95770000Y-96240000D03*
X93230000Y-98780000D03*
X95770000Y-98780000D03*
X93230000Y-101320000D03*
X95770000Y-101320000D03*
X93230000Y-103860000D03*
X95770000Y-103860000D03*
X93230000Y-106400000D03*
X95770000Y-106400000D03*
X93230000Y-108940000D03*
X95770000Y-108940000D03*
X93230000Y-111480000D03*
X95770000Y-111480000D03*
X93230000Y-114020000D03*
X95770000Y-114020000D03*
X93230000Y-116560000D03*
X95770000Y-116560000D03*
X93230000Y-119100000D03*
X95770000Y-119100000D03*
X93230000Y-121640000D03*
X95770000Y-121640000D03*
X93230000Y-124180000D03*
X95770000Y-124180000D03*
X93230000Y-126720000D03*
X95770000Y-126720000D03*
X93230000Y-129260000D03*
X95770000Y-129260000D03*
D13*
X34262266Y-141199832D03*
D14*
X34262266Y-138659832D03*
X36802266Y-141199832D03*
X36802266Y-138659832D03*
X39342266Y-141199832D03*
X39342266Y-138659832D03*
X41882266Y-141199832D03*
X41882266Y-138659832D03*
X44422266Y-141199832D03*
X44422266Y-138659832D03*
X46962266Y-141199832D03*
X46962266Y-138659832D03*
X49502266Y-141199832D03*
X49502266Y-138659832D03*
X52042266Y-141199832D03*
X52042266Y-138659832D03*
X54582266Y-141199832D03*
X54582266Y-138659832D03*
X57122266Y-141199832D03*
X57122266Y-138659832D03*
X59662266Y-141199832D03*
X59662266Y-138659832D03*
X62202266Y-141199832D03*
X62202266Y-138659832D03*
X64742266Y-141199832D03*
X64742266Y-138659832D03*
X67282266Y-141199832D03*
X67282266Y-138659832D03*
X69822266Y-141199832D03*
X69822266Y-138659832D03*
X72362266Y-141199832D03*
X72362266Y-138659832D03*
X74902266Y-141199832D03*
X74902266Y-138659832D03*
X77442266Y-141199832D03*
X77442266Y-138659832D03*
X79982266Y-141199832D03*
X79982266Y-138659832D03*
X82522266Y-141199832D03*
X82522266Y-138659832D03*
D13*
X82522266Y-67499832D03*
D14*
X82522266Y-70039832D03*
X79982266Y-67499832D03*
X79982266Y-70039832D03*
X77442266Y-67499832D03*
X77442266Y-70039832D03*
X74902266Y-67499832D03*
X74902266Y-70039832D03*
X72362266Y-67499832D03*
X72362266Y-70039832D03*
X69822266Y-67499832D03*
X69822266Y-70039832D03*
X67282266Y-67499832D03*
X67282266Y-70039832D03*
X64742266Y-67499832D03*
X64742266Y-70039832D03*
X62202266Y-67499832D03*
X62202266Y-70039832D03*
X59662266Y-67499832D03*
X59662266Y-70039832D03*
X57122266Y-67499832D03*
X57122266Y-70039832D03*
X54582266Y-67499832D03*
X54582266Y-70039832D03*
X52042266Y-67499832D03*
X52042266Y-70039832D03*
X49502266Y-67499832D03*
X49502266Y-70039832D03*
X46962266Y-67499832D03*
X46962266Y-70039832D03*
X44422266Y-67499832D03*
X44422266Y-70039832D03*
X41882266Y-67499832D03*
X41882266Y-70039832D03*
X39342266Y-67499832D03*
X39342266Y-70039832D03*
X36802266Y-67499832D03*
X36802266Y-70039832D03*
X34262266Y-67499832D03*
X34262266Y-70039832D03*
D20*
X67900000Y-27399020D03*
X67900000Y-25300980D03*
D15*
X96425000Y-65675000D03*
X96425000Y-67575000D03*
D12*
X26450000Y-22500000D03*
X28350000Y-22500000D03*
D10*
G36*
X54361700Y-100159619D02*
X53159619Y-101361700D01*
X52381802Y-100583883D01*
X53583883Y-99381802D01*
X54361700Y-100159619D01*
X54361700Y-100159619D01*
G37*
G36*
X53018198Y-98816117D02*
X51816117Y-100018198D01*
X51038300Y-99240381D01*
X52240381Y-98038300D01*
X53018198Y-98816117D01*
X53018198Y-98816117D01*
G37*
D15*
X24100000Y-38750000D03*
X24100000Y-36850000D03*
X75960000Y-128200000D03*
X75960000Y-130100000D03*
X72650000Y-35050000D03*
X72650000Y-33150000D03*
X78100000Y-130100000D03*
X78100000Y-128200000D03*
D24*
X25144000Y-24789000D03*
X29644000Y-24789000D03*
X29644000Y-32739000D03*
X25144000Y-32739000D03*
X92471870Y-134794032D03*
X96971870Y-134794032D03*
X96971870Y-142744032D03*
X92471870Y-142744032D03*
D25*
X82276000Y-40162000D03*
X82276000Y-42062000D03*
X84876000Y-40162000D03*
X84876000Y-41112000D03*
X84876000Y-42062000D03*
X82276000Y-49560000D03*
X82276000Y-51460000D03*
X84876000Y-49560000D03*
X84876000Y-50510000D03*
X84876000Y-51460000D03*
D13*
X25400000Y-55380000D03*
D14*
X22860000Y-55380000D03*
X25400000Y-52840000D03*
X22860000Y-52840000D03*
X25400000Y-50300000D03*
X22860000Y-50300000D03*
X25400000Y-47760000D03*
X22860000Y-47760000D03*
D26*
X46300000Y-29800000D03*
X49100000Y-29800000D03*
D27*
X45262000Y-26242000D03*
X44462000Y-26242000D03*
X43662000Y-26242000D03*
X42862000Y-26242000D03*
X42062000Y-26242000D03*
D28*
X48612000Y-25886000D03*
D29*
X48612000Y-21636000D03*
D28*
X38712000Y-25886000D03*
D29*
X38712000Y-21636000D03*
D30*
X45862000Y-23536000D03*
X41462000Y-23536000D03*
D31*
X36314760Y-35874000D03*
X36314760Y-33974000D03*
X34315780Y-34924000D03*
D12*
X34100000Y-38200000D03*
X32200000Y-38200000D03*
D15*
X41450000Y-53900000D03*
X41450000Y-55800000D03*
D12*
X34053571Y-49250000D03*
X32153571Y-49250000D03*
D15*
X37200000Y-53892858D03*
X37200000Y-55792858D03*
X46750000Y-37250000D03*
X46750000Y-35350000D03*
X35050000Y-53900000D03*
X35050000Y-55800000D03*
D12*
X34090712Y-42600000D03*
X32190712Y-42600000D03*
X34036070Y-51550000D03*
X32136070Y-51550000D03*
D15*
X54850000Y-53930000D03*
X54850000Y-55830000D03*
X52750000Y-53930000D03*
X52750000Y-55830000D03*
D12*
X34095354Y-40350000D03*
X32195354Y-40350000D03*
D32*
X47590000Y-49146000D03*
X47590000Y-48646000D03*
X47590000Y-48146000D03*
X47590000Y-47646000D03*
X47590000Y-47146000D03*
X47590000Y-46646000D03*
X47590000Y-46146000D03*
X47590000Y-45646000D03*
X47590000Y-45146000D03*
X47590000Y-44646000D03*
X47590000Y-44146000D03*
X47590000Y-43646000D03*
D33*
X45990000Y-42046000D03*
X45490000Y-42046000D03*
X44990000Y-42046000D03*
X44490000Y-42046000D03*
X43990000Y-42046000D03*
X43490000Y-42046000D03*
X42990000Y-42046000D03*
X42490000Y-42046000D03*
X41990000Y-42046000D03*
X41490000Y-42046000D03*
X40990000Y-42046000D03*
X40490000Y-42046000D03*
D32*
X38890000Y-43646000D03*
X38890000Y-44146000D03*
X38890000Y-44646000D03*
X38890000Y-45146000D03*
X38890000Y-45646000D03*
X38890000Y-46146000D03*
X38890000Y-46646000D03*
X38890000Y-47146000D03*
X38890000Y-47646000D03*
X38890000Y-48146000D03*
X38890000Y-48646000D03*
X38890000Y-49146000D03*
D33*
X40490000Y-50746000D03*
X40990000Y-50746000D03*
X41490000Y-50746000D03*
X41990000Y-50746000D03*
X42490000Y-50746000D03*
X42990000Y-50746000D03*
X43490000Y-50746000D03*
X43990000Y-50746000D03*
X44490000Y-50746000D03*
X44990000Y-50746000D03*
X45490000Y-50746000D03*
X45990000Y-50746000D03*
D34*
X53550000Y-45646000D03*
X51350000Y-45646000D03*
X53550000Y-47246000D03*
X51350000Y-47246000D03*
D17*
X55970000Y-50760000D03*
X57970000Y-50760000D03*
D19*
X43700000Y-53950000D03*
X43700000Y-55950000D03*
D17*
X51100000Y-40900000D03*
X53100000Y-40900000D03*
X51050000Y-43000000D03*
X53050000Y-43000000D03*
D19*
X45850000Y-53950000D03*
X45850000Y-55950000D03*
D17*
X55400000Y-47450000D03*
X57400000Y-47450000D03*
X55400000Y-45200000D03*
X57400000Y-45200000D03*
D13*
X61660000Y-35360000D03*
D14*
X64200000Y-35360000D03*
X61660000Y-37900000D03*
X64200000Y-37900000D03*
X61660000Y-40440000D03*
X64200000Y-40440000D03*
D15*
X39300000Y-55800000D03*
X39300000Y-53900000D03*
D12*
X34008213Y-47150000D03*
X32108213Y-47150000D03*
D15*
X51090000Y-37230000D03*
X51090000Y-35330000D03*
X40486000Y-30572000D03*
X40486000Y-32472000D03*
X42264000Y-30560000D03*
X42264000Y-32460000D03*
X38000000Y-30572000D03*
X38000000Y-32472000D03*
X38108000Y-33974000D03*
X38108000Y-35874000D03*
X38108000Y-37276000D03*
X38108000Y-39176000D03*
X36000000Y-37300000D03*
X36000000Y-39200000D03*
D12*
X36050000Y-23100000D03*
X34150000Y-23100000D03*
D20*
X34050980Y-20800000D03*
X36149020Y-20800000D03*
D15*
X50010000Y-53940000D03*
X50010000Y-55840000D03*
X47940000Y-53940000D03*
X47940000Y-55840000D03*
X47940000Y-59190000D03*
X47940000Y-57290000D03*
D35*
X71993000Y-40640000D03*
X68723000Y-40640000D03*
D36*
X22098000Y-74819000D03*
X22098000Y-78089000D03*
X93218000Y-74819000D03*
X93218000Y-78089000D03*
X95760000Y-74825000D03*
X95760000Y-78095000D03*
X34100000Y-72865000D03*
X34100000Y-76135000D03*
X75250000Y-35035000D03*
X75250000Y-31765000D03*
D35*
X54495000Y-29800000D03*
X51225000Y-29800000D03*
D37*
X85850000Y-24500000D03*
X80850000Y-24500000D03*
M02*
