G04 #@! TF.FileFunction,Legend,Top*
%FSLAX46Y46*%
G04 Gerber Fmt 4.6, Leading zero omitted, Abs format (unit mm)*
G04 Created by KiCad (PCBNEW 4.0.4+e1-6308~48~ubuntu14.04.1-stable) date Wed Oct 19 19:57:22 2016*
%MOMM*%
%LPD*%
G01*
G04 APERTURE LIST*
%ADD10C,0.100000*%
%ADD11C,0.250000*%
%ADD12C,0.200000*%
%ADD13C,0.300000*%
%ADD14C,0.150000*%
%ADD15C,0.254000*%
G04 APERTURE END LIST*
D10*
D11*
X28280002Y-147463571D02*
X28222859Y-147520714D01*
X28051430Y-147577857D01*
X27937144Y-147577857D01*
X27765716Y-147520714D01*
X27651430Y-147406429D01*
X27594287Y-147292143D01*
X27537144Y-147063571D01*
X27537144Y-146892143D01*
X27594287Y-146663571D01*
X27651430Y-146549286D01*
X27765716Y-146435000D01*
X27937144Y-146377857D01*
X28051430Y-146377857D01*
X28222859Y-146435000D01*
X28280002Y-146492143D01*
X28965716Y-147577857D02*
X28851430Y-147520714D01*
X28794287Y-147463571D01*
X28737144Y-147349286D01*
X28737144Y-147006429D01*
X28794287Y-146892143D01*
X28851430Y-146835000D01*
X28965716Y-146777857D01*
X29137144Y-146777857D01*
X29251430Y-146835000D01*
X29308573Y-146892143D01*
X29365716Y-147006429D01*
X29365716Y-147349286D01*
X29308573Y-147463571D01*
X29251430Y-147520714D01*
X29137144Y-147577857D01*
X28965716Y-147577857D01*
X29880001Y-146777857D02*
X29880001Y-147977857D01*
X29880001Y-146835000D02*
X29994287Y-146777857D01*
X30222858Y-146777857D01*
X30337144Y-146835000D01*
X30394287Y-146892143D01*
X30451430Y-147006429D01*
X30451430Y-147349286D01*
X30394287Y-147463571D01*
X30337144Y-147520714D01*
X30222858Y-147577857D01*
X29994287Y-147577857D01*
X29880001Y-147520714D01*
X30851430Y-146777857D02*
X31137144Y-147577857D01*
X31422858Y-146777857D02*
X31137144Y-147577857D01*
X31022858Y-147863571D01*
X30965715Y-147920714D01*
X30851430Y-147977857D01*
X31880001Y-147577857D02*
X31880001Y-146777857D01*
X31880001Y-147006429D02*
X31937144Y-146892143D01*
X31994287Y-146835000D01*
X32108573Y-146777857D01*
X32222858Y-146777857D01*
X32622858Y-147577857D02*
X32622858Y-146777857D01*
X32622858Y-146377857D02*
X32565715Y-146435000D01*
X32622858Y-146492143D01*
X32680001Y-146435000D01*
X32622858Y-146377857D01*
X32622858Y-146492143D01*
X33708573Y-146777857D02*
X33708573Y-147749286D01*
X33651430Y-147863571D01*
X33594287Y-147920714D01*
X33480002Y-147977857D01*
X33308573Y-147977857D01*
X33194287Y-147920714D01*
X33708573Y-147520714D02*
X33594287Y-147577857D01*
X33365716Y-147577857D01*
X33251430Y-147520714D01*
X33194287Y-147463571D01*
X33137144Y-147349286D01*
X33137144Y-147006429D01*
X33194287Y-146892143D01*
X33251430Y-146835000D01*
X33365716Y-146777857D01*
X33594287Y-146777857D01*
X33708573Y-146835000D01*
X34280001Y-147577857D02*
X34280001Y-146377857D01*
X34794287Y-147577857D02*
X34794287Y-146949286D01*
X34737144Y-146835000D01*
X34622858Y-146777857D01*
X34451430Y-146777857D01*
X34337144Y-146835000D01*
X34280001Y-146892143D01*
X35194287Y-146777857D02*
X35651430Y-146777857D01*
X35365715Y-146377857D02*
X35365715Y-147406429D01*
X35422858Y-147520714D01*
X35537144Y-147577857D01*
X35651430Y-147577857D01*
X37937144Y-146663571D02*
X37822858Y-146606429D01*
X37594287Y-146606429D01*
X37480001Y-146663571D01*
X37365715Y-146777857D01*
X37308572Y-146892143D01*
X37308572Y-147120714D01*
X37365715Y-147235000D01*
X37480001Y-147349286D01*
X37594287Y-147406429D01*
X37822858Y-147406429D01*
X37937144Y-147349286D01*
X37708572Y-146206429D02*
X37422858Y-146263571D01*
X37137144Y-146435000D01*
X36965715Y-146720714D01*
X36908572Y-147006429D01*
X36965715Y-147292143D01*
X37137144Y-147577857D01*
X37422858Y-147749286D01*
X37708572Y-147806429D01*
X37994287Y-147749286D01*
X38280001Y-147577857D01*
X38451430Y-147292143D01*
X38508572Y-147006429D01*
X38451430Y-146720714D01*
X38280001Y-146435000D01*
X37994287Y-146263571D01*
X37708572Y-146206429D01*
X39880001Y-146492143D02*
X39937144Y-146435000D01*
X40051430Y-146377857D01*
X40337144Y-146377857D01*
X40451430Y-146435000D01*
X40508573Y-146492143D01*
X40565716Y-146606429D01*
X40565716Y-146720714D01*
X40508573Y-146892143D01*
X39822859Y-147577857D01*
X40565716Y-147577857D01*
X41308573Y-146377857D02*
X41422858Y-146377857D01*
X41537144Y-146435000D01*
X41594287Y-146492143D01*
X41651430Y-146606429D01*
X41708573Y-146835000D01*
X41708573Y-147120714D01*
X41651430Y-147349286D01*
X41594287Y-147463571D01*
X41537144Y-147520714D01*
X41422858Y-147577857D01*
X41308573Y-147577857D01*
X41194287Y-147520714D01*
X41137144Y-147463571D01*
X41080001Y-147349286D01*
X41022858Y-147120714D01*
X41022858Y-146835000D01*
X41080001Y-146606429D01*
X41137144Y-146492143D01*
X41194287Y-146435000D01*
X41308573Y-146377857D01*
X42851430Y-147577857D02*
X42165715Y-147577857D01*
X42508573Y-147577857D02*
X42508573Y-146377857D01*
X42394287Y-146549286D01*
X42280001Y-146663571D01*
X42165715Y-146720714D01*
X43880001Y-146377857D02*
X43651430Y-146377857D01*
X43537144Y-146435000D01*
X43480001Y-146492143D01*
X43365715Y-146663571D01*
X43308572Y-146892143D01*
X43308572Y-147349286D01*
X43365715Y-147463571D01*
X43422858Y-147520714D01*
X43537144Y-147577857D01*
X43765715Y-147577857D01*
X43880001Y-147520714D01*
X43937144Y-147463571D01*
X43994287Y-147349286D01*
X43994287Y-147063571D01*
X43937144Y-146949286D01*
X43880001Y-146892143D01*
X43765715Y-146835000D01*
X43537144Y-146835000D01*
X43422858Y-146892143D01*
X43365715Y-146949286D01*
X43308572Y-147063571D01*
X45422858Y-147577857D02*
X45422858Y-146377857D01*
X45822858Y-147235000D01*
X46222858Y-146377857D01*
X46222858Y-147577857D01*
X47308573Y-147577857D02*
X47308573Y-146949286D01*
X47251430Y-146835000D01*
X47137144Y-146777857D01*
X46908573Y-146777857D01*
X46794287Y-146835000D01*
X47308573Y-147520714D02*
X47194287Y-147577857D01*
X46908573Y-147577857D01*
X46794287Y-147520714D01*
X46737144Y-147406429D01*
X46737144Y-147292143D01*
X46794287Y-147177857D01*
X46908573Y-147120714D01*
X47194287Y-147120714D01*
X47308573Y-147063571D01*
X47880001Y-147577857D02*
X47880001Y-146777857D01*
X47880001Y-147006429D02*
X47937144Y-146892143D01*
X47994287Y-146835000D01*
X48108573Y-146777857D01*
X48222858Y-146777857D01*
X48451430Y-146777857D02*
X48908573Y-146777857D01*
X48622858Y-146377857D02*
X48622858Y-147406429D01*
X48680001Y-147520714D01*
X48794287Y-147577857D01*
X48908573Y-147577857D01*
X49308572Y-147577857D02*
X49308572Y-146777857D01*
X49308572Y-146377857D02*
X49251429Y-146435000D01*
X49308572Y-146492143D01*
X49365715Y-146435000D01*
X49308572Y-146377857D01*
X49308572Y-146492143D01*
X49880001Y-146777857D02*
X49880001Y-147577857D01*
X49880001Y-146892143D02*
X49937144Y-146835000D01*
X50051430Y-146777857D01*
X50222858Y-146777857D01*
X50337144Y-146835000D01*
X50394287Y-146949286D01*
X50394287Y-147577857D01*
X52565716Y-147577857D02*
X52165716Y-147006429D01*
X51880001Y-147577857D02*
X51880001Y-146377857D01*
X52337144Y-146377857D01*
X52451430Y-146435000D01*
X52508573Y-146492143D01*
X52565716Y-146606429D01*
X52565716Y-146777857D01*
X52508573Y-146892143D01*
X52451430Y-146949286D01*
X52337144Y-147006429D01*
X51880001Y-147006429D01*
X53080001Y-147577857D02*
X53080001Y-146777857D01*
X53080001Y-146377857D02*
X53022858Y-146435000D01*
X53080001Y-146492143D01*
X53137144Y-146435000D01*
X53080001Y-146377857D01*
X53080001Y-146492143D01*
X53651430Y-147577857D02*
X53651430Y-146377857D01*
X53651430Y-146835000D02*
X53765716Y-146777857D01*
X53994287Y-146777857D01*
X54108573Y-146835000D01*
X54165716Y-146892143D01*
X54222859Y-147006429D01*
X54222859Y-147349286D01*
X54165716Y-147463571D01*
X54108573Y-147520714D01*
X53994287Y-147577857D01*
X53765716Y-147577857D01*
X53651430Y-147520714D01*
X55194287Y-147520714D02*
X55080001Y-147577857D01*
X54851430Y-147577857D01*
X54737144Y-147520714D01*
X54680001Y-147406429D01*
X54680001Y-146949286D01*
X54737144Y-146835000D01*
X54851430Y-146777857D01*
X55080001Y-146777857D01*
X55194287Y-146835000D01*
X55251430Y-146949286D01*
X55251430Y-147063571D01*
X54680001Y-147177857D01*
X55937144Y-147577857D02*
X55822858Y-147520714D01*
X55765715Y-147406429D01*
X55765715Y-146377857D01*
X56565715Y-147577857D02*
X56451429Y-147520714D01*
X56394286Y-147463571D01*
X56337143Y-147349286D01*
X56337143Y-147006429D01*
X56394286Y-146892143D01*
X56451429Y-146835000D01*
X56565715Y-146777857D01*
X56737143Y-146777857D01*
X56851429Y-146835000D01*
X56908572Y-146892143D01*
X56965715Y-147006429D01*
X56965715Y-147349286D01*
X56908572Y-147463571D01*
X56851429Y-147520714D01*
X56737143Y-147577857D01*
X56565715Y-147577857D01*
X57308572Y-146777857D02*
X57765715Y-146777857D01*
X57480000Y-146377857D02*
X57480000Y-147406429D01*
X57537143Y-147520714D01*
X57651429Y-147577857D01*
X57765715Y-147577857D01*
X57994286Y-146777857D02*
X58451429Y-146777857D01*
X58165714Y-146377857D02*
X58165714Y-147406429D01*
X58222857Y-147520714D01*
X58337143Y-147577857D01*
X58451429Y-147577857D01*
X59365714Y-147577857D02*
X59365714Y-146949286D01*
X59308571Y-146835000D01*
X59194285Y-146777857D01*
X58965714Y-146777857D01*
X58851428Y-146835000D01*
X59365714Y-147520714D02*
X59251428Y-147577857D01*
X58965714Y-147577857D01*
X58851428Y-147520714D01*
X58794285Y-147406429D01*
X58794285Y-147292143D01*
X58851428Y-147177857D01*
X58965714Y-147120714D01*
X59251428Y-147120714D01*
X59365714Y-147063571D01*
X28680001Y-149627857D02*
X28108572Y-149627857D01*
X28108572Y-148427857D01*
X29080001Y-149627857D02*
X29080001Y-148427857D01*
X30337145Y-149513571D02*
X30280002Y-149570714D01*
X30108573Y-149627857D01*
X29994287Y-149627857D01*
X29822859Y-149570714D01*
X29708573Y-149456429D01*
X29651430Y-149342143D01*
X29594287Y-149113571D01*
X29594287Y-148942143D01*
X29651430Y-148713571D01*
X29708573Y-148599286D01*
X29822859Y-148485000D01*
X29994287Y-148427857D01*
X30108573Y-148427857D01*
X30280002Y-148485000D01*
X30337145Y-148542143D01*
X30851430Y-148999286D02*
X31251430Y-148999286D01*
X31422859Y-149627857D02*
X30851430Y-149627857D01*
X30851430Y-148427857D01*
X31422859Y-148427857D01*
X31937144Y-149627857D02*
X31937144Y-148427857D01*
X32622859Y-149627857D01*
X32622859Y-148427857D01*
X33880002Y-149513571D02*
X33822859Y-149570714D01*
X33651430Y-149627857D01*
X33537144Y-149627857D01*
X33365716Y-149570714D01*
X33251430Y-149456429D01*
X33194287Y-149342143D01*
X33137144Y-149113571D01*
X33137144Y-148942143D01*
X33194287Y-148713571D01*
X33251430Y-148599286D01*
X33365716Y-148485000D01*
X33537144Y-148427857D01*
X33651430Y-148427857D01*
X33822859Y-148485000D01*
X33880002Y-148542143D01*
X34394287Y-148999286D02*
X34794287Y-148999286D01*
X34965716Y-149627857D02*
X34394287Y-149627857D01*
X34394287Y-148427857D01*
X34965716Y-148427857D01*
X36337144Y-149285000D02*
X36908573Y-149285000D01*
X36222859Y-149627857D02*
X36622859Y-148427857D01*
X37022859Y-149627857D01*
X37422858Y-148827857D02*
X37422858Y-150027857D01*
X37422858Y-148885000D02*
X37537144Y-148827857D01*
X37765715Y-148827857D01*
X37880001Y-148885000D01*
X37937144Y-148942143D01*
X37994287Y-149056429D01*
X37994287Y-149399286D01*
X37937144Y-149513571D01*
X37880001Y-149570714D01*
X37765715Y-149627857D01*
X37537144Y-149627857D01*
X37422858Y-149570714D01*
X39022858Y-149627857D02*
X39022858Y-148999286D01*
X38965715Y-148885000D01*
X38851429Y-148827857D01*
X38622858Y-148827857D01*
X38508572Y-148885000D01*
X39022858Y-149570714D02*
X38908572Y-149627857D01*
X38622858Y-149627857D01*
X38508572Y-149570714D01*
X38451429Y-149456429D01*
X38451429Y-149342143D01*
X38508572Y-149227857D01*
X38622858Y-149170714D01*
X38908572Y-149170714D01*
X39022858Y-149113571D01*
X40108572Y-149570714D02*
X39994286Y-149627857D01*
X39765715Y-149627857D01*
X39651429Y-149570714D01*
X39594286Y-149513571D01*
X39537143Y-149399286D01*
X39537143Y-149056429D01*
X39594286Y-148942143D01*
X39651429Y-148885000D01*
X39765715Y-148827857D01*
X39994286Y-148827857D01*
X40108572Y-148885000D01*
X40622857Y-149627857D02*
X40622857Y-148427857D01*
X41137143Y-149627857D02*
X41137143Y-148999286D01*
X41080000Y-148885000D01*
X40965714Y-148827857D01*
X40794286Y-148827857D01*
X40680000Y-148885000D01*
X40622857Y-148942143D01*
X42165714Y-149570714D02*
X42051428Y-149627857D01*
X41822857Y-149627857D01*
X41708571Y-149570714D01*
X41651428Y-149456429D01*
X41651428Y-148999286D01*
X41708571Y-148885000D01*
X41822857Y-148827857D01*
X42051428Y-148827857D01*
X42165714Y-148885000D01*
X42222857Y-148999286D01*
X42222857Y-149113571D01*
X41651428Y-149227857D01*
X43594285Y-148542143D02*
X43651428Y-148485000D01*
X43765714Y-148427857D01*
X44051428Y-148427857D01*
X44165714Y-148485000D01*
X44222857Y-148542143D01*
X44280000Y-148656429D01*
X44280000Y-148770714D01*
X44222857Y-148942143D01*
X43537143Y-149627857D01*
X44280000Y-149627857D01*
X44794285Y-149513571D02*
X44851428Y-149570714D01*
X44794285Y-149627857D01*
X44737142Y-149570714D01*
X44794285Y-149513571D01*
X44794285Y-149627857D01*
X45594286Y-148427857D02*
X45708571Y-148427857D01*
X45822857Y-148485000D01*
X45880000Y-148542143D01*
X45937143Y-148656429D01*
X45994286Y-148885000D01*
X45994286Y-149170714D01*
X45937143Y-149399286D01*
X45880000Y-149513571D01*
X45822857Y-149570714D01*
X45708571Y-149627857D01*
X45594286Y-149627857D01*
X45480000Y-149570714D01*
X45422857Y-149513571D01*
X45365714Y-149399286D01*
X45308571Y-149170714D01*
X45308571Y-148885000D01*
X45365714Y-148656429D01*
X45422857Y-148542143D01*
X45480000Y-148485000D01*
X45594286Y-148427857D01*
X47422857Y-149627857D02*
X47422857Y-148827857D01*
X47422857Y-149056429D02*
X47480000Y-148942143D01*
X47537143Y-148885000D01*
X47651429Y-148827857D01*
X47765714Y-148827857D01*
X48622857Y-149570714D02*
X48508571Y-149627857D01*
X48280000Y-149627857D01*
X48165714Y-149570714D01*
X48108571Y-149456429D01*
X48108571Y-148999286D01*
X48165714Y-148885000D01*
X48280000Y-148827857D01*
X48508571Y-148827857D01*
X48622857Y-148885000D01*
X48680000Y-148999286D01*
X48680000Y-149113571D01*
X48108571Y-149227857D01*
X49365714Y-149627857D02*
X49251428Y-149570714D01*
X49194285Y-149456429D01*
X49194285Y-148427857D01*
X49822856Y-149627857D02*
X49822856Y-148827857D01*
X49822856Y-148427857D02*
X49765713Y-148485000D01*
X49822856Y-148542143D01*
X49879999Y-148485000D01*
X49822856Y-148427857D01*
X49822856Y-148542143D01*
X50908571Y-149570714D02*
X50794285Y-149627857D01*
X50565714Y-149627857D01*
X50451428Y-149570714D01*
X50394285Y-149513571D01*
X50337142Y-149399286D01*
X50337142Y-149056429D01*
X50394285Y-148942143D01*
X50451428Y-148885000D01*
X50565714Y-148827857D01*
X50794285Y-148827857D01*
X50908571Y-148885000D01*
X51422856Y-149513571D02*
X51479999Y-149570714D01*
X51422856Y-149627857D01*
X51365713Y-149570714D01*
X51422856Y-149513571D01*
X51422856Y-149627857D01*
X52737143Y-148827857D02*
X53194286Y-148827857D01*
X52908571Y-148427857D02*
X52908571Y-149456429D01*
X52965714Y-149570714D01*
X53080000Y-149627857D01*
X53194286Y-149627857D01*
X53765714Y-149627857D02*
X53651428Y-149570714D01*
X53594285Y-149513571D01*
X53537142Y-149399286D01*
X53537142Y-149056429D01*
X53594285Y-148942143D01*
X53651428Y-148885000D01*
X53765714Y-148827857D01*
X53937142Y-148827857D01*
X54051428Y-148885000D01*
X54108571Y-148942143D01*
X54165714Y-149056429D01*
X54165714Y-149399286D01*
X54108571Y-149513571D01*
X54051428Y-149570714D01*
X53937142Y-149627857D01*
X53765714Y-149627857D01*
X56280000Y-149513571D02*
X56222857Y-149570714D01*
X56051428Y-149627857D01*
X55937142Y-149627857D01*
X55765714Y-149570714D01*
X55651428Y-149456429D01*
X55594285Y-149342143D01*
X55537142Y-149113571D01*
X55537142Y-148942143D01*
X55594285Y-148713571D01*
X55651428Y-148599286D01*
X55765714Y-148485000D01*
X55937142Y-148427857D01*
X56051428Y-148427857D01*
X56222857Y-148485000D01*
X56280000Y-148542143D01*
X56794285Y-149627857D02*
X56794285Y-148427857D01*
X57308571Y-149285000D02*
X57880000Y-149285000D01*
X57194286Y-149627857D02*
X57594286Y-148427857D01*
X57994286Y-149627857D01*
X58337142Y-149285000D02*
X58908571Y-149285000D01*
X58222857Y-149627857D02*
X58622857Y-148427857D01*
X59022857Y-149627857D01*
D12*
X46250000Y-120600000D02*
X46250000Y-114820000D01*
X58750000Y-120600000D02*
X46250000Y-120600000D01*
X58750000Y-114820000D02*
X58750000Y-120600000D01*
X46249997Y-114820000D02*
X58750000Y-114820000D01*
D13*
X48074286Y-117233571D02*
X47217143Y-117233571D01*
X47645715Y-117233571D02*
X47645715Y-115733571D01*
X47502858Y-115947857D01*
X47360000Y-116090714D01*
X47217143Y-116162143D01*
X49360000Y-115733571D02*
X49074286Y-115733571D01*
X48931429Y-115805000D01*
X48860000Y-115876429D01*
X48717143Y-116090714D01*
X48645714Y-116376429D01*
X48645714Y-116947857D01*
X48717143Y-117090714D01*
X48788571Y-117162143D01*
X48931429Y-117233571D01*
X49217143Y-117233571D01*
X49360000Y-117162143D01*
X49431429Y-117090714D01*
X49502857Y-116947857D01*
X49502857Y-116590714D01*
X49431429Y-116447857D01*
X49360000Y-116376429D01*
X49217143Y-116305000D01*
X48931429Y-116305000D01*
X48788571Y-116376429D01*
X48717143Y-116447857D01*
X48645714Y-116590714D01*
X50145714Y-117233571D02*
X50145714Y-115733571D01*
X50645714Y-116805000D01*
X51145714Y-115733571D01*
X51145714Y-117233571D01*
X52360000Y-116447857D02*
X52574286Y-116519286D01*
X52645714Y-116590714D01*
X52717143Y-116733571D01*
X52717143Y-116947857D01*
X52645714Y-117090714D01*
X52574286Y-117162143D01*
X52431428Y-117233571D01*
X51860000Y-117233571D01*
X51860000Y-115733571D01*
X52360000Y-115733571D01*
X52502857Y-115805000D01*
X52574286Y-115876429D01*
X52645714Y-116019286D01*
X52645714Y-116162143D01*
X52574286Y-116305000D01*
X52502857Y-116376429D01*
X52360000Y-116447857D01*
X51860000Y-116447857D01*
X54431428Y-117162143D02*
X54645714Y-117233571D01*
X55002857Y-117233571D01*
X55145714Y-117162143D01*
X55217143Y-117090714D01*
X55288571Y-116947857D01*
X55288571Y-116805000D01*
X55217143Y-116662143D01*
X55145714Y-116590714D01*
X55002857Y-116519286D01*
X54717143Y-116447857D01*
X54574285Y-116376429D01*
X54502857Y-116305000D01*
X54431428Y-116162143D01*
X54431428Y-116019286D01*
X54502857Y-115876429D01*
X54574285Y-115805000D01*
X54717143Y-115733571D01*
X55074285Y-115733571D01*
X55288571Y-115805000D01*
X55931428Y-117233571D02*
X55931428Y-115733571D01*
X56502856Y-115733571D01*
X56645714Y-115805000D01*
X56717142Y-115876429D01*
X56788571Y-116019286D01*
X56788571Y-116233571D01*
X56717142Y-116376429D01*
X56645714Y-116447857D01*
X56502856Y-116519286D01*
X55931428Y-116519286D01*
X57431428Y-117233571D02*
X57431428Y-115733571D01*
X49824286Y-118997857D02*
X49324286Y-118997857D01*
X49324286Y-119783571D02*
X49324286Y-118283571D01*
X50038572Y-118283571D01*
X51324286Y-119783571D02*
X50610000Y-119783571D01*
X50610000Y-118283571D01*
X51752857Y-119355000D02*
X52467143Y-119355000D01*
X51610000Y-119783571D02*
X52110000Y-118283571D01*
X52610000Y-119783571D01*
X53038571Y-119712143D02*
X53252857Y-119783571D01*
X53610000Y-119783571D01*
X53752857Y-119712143D01*
X53824286Y-119640714D01*
X53895714Y-119497857D01*
X53895714Y-119355000D01*
X53824286Y-119212143D01*
X53752857Y-119140714D01*
X53610000Y-119069286D01*
X53324286Y-118997857D01*
X53181428Y-118926429D01*
X53110000Y-118855000D01*
X53038571Y-118712143D01*
X53038571Y-118569286D01*
X53110000Y-118426429D01*
X53181428Y-118355000D01*
X53324286Y-118283571D01*
X53681428Y-118283571D01*
X53895714Y-118355000D01*
X54538571Y-119783571D02*
X54538571Y-118283571D01*
X54538571Y-118997857D02*
X55395714Y-118997857D01*
X55395714Y-119783571D02*
X55395714Y-118283571D01*
D12*
X52750000Y-107520000D02*
X52750000Y-114822739D01*
X53641067Y-106630000D02*
G75*
G03X53641067Y-106630000I-891067J0D01*
G01*
D13*
X89287143Y-22074286D02*
X91572857Y-22074286D01*
X75007143Y-22074286D02*
X77292857Y-22074286D01*
X76150000Y-23217143D02*
X76150000Y-20931429D01*
D12*
X67284996Y-125495004D02*
X70110020Y-122669980D01*
X71464784Y-129675216D02*
X67284784Y-125495216D01*
X74290000Y-126850000D02*
X71464784Y-129675216D01*
X70110000Y-122670000D02*
X74290000Y-126850000D01*
X70539247Y-124092715D02*
X70202529Y-123755997D01*
X69832141Y-124059043D01*
X69899484Y-124059043D01*
X70000499Y-124092714D01*
X70168858Y-124261074D01*
X70202530Y-124362089D01*
X70202530Y-124429432D01*
X70168858Y-124530448D01*
X70000499Y-124698807D01*
X69899484Y-124732478D01*
X69832141Y-124732478D01*
X69731125Y-124698807D01*
X69562766Y-124530447D01*
X69529094Y-124429432D01*
X69529094Y-124362089D01*
X71010651Y-124564119D02*
X71077996Y-124631463D01*
X71111667Y-124732478D01*
X71111667Y-124799822D01*
X71077996Y-124900837D01*
X70976980Y-125069196D01*
X70808621Y-125237555D01*
X70640263Y-125338570D01*
X70539247Y-125372242D01*
X70471904Y-125372242D01*
X70370889Y-125338570D01*
X70303545Y-125271226D01*
X70269873Y-125170211D01*
X70269873Y-125102867D01*
X70303545Y-125001852D01*
X70404560Y-124833494D01*
X70572919Y-124665134D01*
X70741278Y-124564119D01*
X70842293Y-124530447D01*
X70909636Y-124530447D01*
X71010651Y-124564119D01*
X70842293Y-125809974D02*
X71549400Y-125102867D01*
X71280026Y-125843647D01*
X72020804Y-125574272D01*
X71313698Y-126281379D01*
X71650415Y-126618096D02*
X72357522Y-125910989D01*
X72020804Y-126247706D02*
X72424866Y-126651768D01*
X72054476Y-127022157D02*
X72761583Y-126315051D01*
X72795255Y-126820126D02*
X73165644Y-127190516D01*
X72323850Y-127291531D01*
X72694239Y-127661921D01*
X69808569Y-125766201D02*
X69943257Y-125900889D01*
X69976929Y-126001904D01*
X69976929Y-126136591D01*
X69875914Y-126304949D01*
X69640211Y-126540652D01*
X69471852Y-126641667D01*
X69337165Y-126641667D01*
X69236150Y-126607996D01*
X69101463Y-126473308D01*
X69067791Y-126372293D01*
X69067791Y-126237606D01*
X69168806Y-126069247D01*
X69404509Y-125833545D01*
X69572867Y-125732529D01*
X69707554Y-125732529D01*
X69808569Y-125766201D01*
X69707554Y-127012056D02*
X69774898Y-127146743D01*
X69943257Y-127315102D01*
X70044272Y-127348774D01*
X70111616Y-127348774D01*
X70212631Y-127315102D01*
X70279974Y-127247759D01*
X70313646Y-127146744D01*
X70313646Y-127079400D01*
X70279975Y-126978384D01*
X70178959Y-126810025D01*
X70145287Y-126709010D01*
X70145287Y-126641667D01*
X70178959Y-126540651D01*
X70246302Y-126473308D01*
X70347318Y-126439636D01*
X70414661Y-126439636D01*
X70515676Y-126473308D01*
X70684035Y-126641667D01*
X70751379Y-126776354D01*
X70852394Y-128089553D02*
X70785051Y-128089553D01*
X70650364Y-128022209D01*
X70583020Y-127954866D01*
X70515676Y-127820178D01*
X70515676Y-127685491D01*
X70549348Y-127584476D01*
X70650363Y-127416117D01*
X70751379Y-127315102D01*
X70919737Y-127214086D01*
X71020753Y-127180415D01*
X71155440Y-127180415D01*
X71290127Y-127247759D01*
X71357471Y-127315102D01*
X71424814Y-127449789D01*
X71424814Y-127517133D01*
X73840000Y-123100000D02*
X72250000Y-124690000D01*
X78830000Y-123100000D02*
X73840000Y-123100000D01*
X35240000Y-84210000D02*
X35240000Y-90600070D01*
X51250000Y-84210000D02*
X35240000Y-84210000D01*
X51250000Y-90600000D02*
X51250000Y-84210000D01*
X35239972Y-90600000D02*
X51250000Y-90600000D01*
D13*
X36825716Y-85956429D02*
X36682858Y-85885000D01*
X36611430Y-85813571D01*
X36540001Y-85670714D01*
X36540001Y-85599286D01*
X36611430Y-85456429D01*
X36682858Y-85385000D01*
X36825716Y-85313571D01*
X37111430Y-85313571D01*
X37254287Y-85385000D01*
X37325716Y-85456429D01*
X37397144Y-85599286D01*
X37397144Y-85670714D01*
X37325716Y-85813571D01*
X37254287Y-85885000D01*
X37111430Y-85956429D01*
X36825716Y-85956429D01*
X36682858Y-86027857D01*
X36611430Y-86099286D01*
X36540001Y-86242143D01*
X36540001Y-86527857D01*
X36611430Y-86670714D01*
X36682858Y-86742143D01*
X36825716Y-86813571D01*
X37111430Y-86813571D01*
X37254287Y-86742143D01*
X37325716Y-86670714D01*
X37397144Y-86527857D01*
X37397144Y-86242143D01*
X37325716Y-86099286D01*
X37254287Y-86027857D01*
X37111430Y-85956429D01*
X38040001Y-86242143D02*
X39182858Y-86242143D01*
X40682858Y-86813571D02*
X39825715Y-86813571D01*
X40254287Y-86813571D02*
X40254287Y-85313571D01*
X40111430Y-85527857D01*
X39968572Y-85670714D01*
X39825715Y-85742143D01*
X41968572Y-85313571D02*
X41682858Y-85313571D01*
X41540001Y-85385000D01*
X41468572Y-85456429D01*
X41325715Y-85670714D01*
X41254286Y-85956429D01*
X41254286Y-86527857D01*
X41325715Y-86670714D01*
X41397143Y-86742143D01*
X41540001Y-86813571D01*
X41825715Y-86813571D01*
X41968572Y-86742143D01*
X42040001Y-86670714D01*
X42111429Y-86527857D01*
X42111429Y-86170714D01*
X42040001Y-86027857D01*
X41968572Y-85956429D01*
X41825715Y-85885000D01*
X41540001Y-85885000D01*
X41397143Y-85956429D01*
X41325715Y-86027857D01*
X41254286Y-86170714D01*
X42754286Y-86242143D02*
X43897143Y-86242143D01*
X44468572Y-85313571D02*
X45397143Y-85313571D01*
X44897143Y-85885000D01*
X45111429Y-85885000D01*
X45254286Y-85956429D01*
X45325715Y-86027857D01*
X45397143Y-86170714D01*
X45397143Y-86527857D01*
X45325715Y-86670714D01*
X45254286Y-86742143D01*
X45111429Y-86813571D01*
X44682857Y-86813571D01*
X44540000Y-86742143D01*
X44468572Y-86670714D01*
X45968571Y-85456429D02*
X46040000Y-85385000D01*
X46182857Y-85313571D01*
X46540000Y-85313571D01*
X46682857Y-85385000D01*
X46754286Y-85456429D01*
X46825714Y-85599286D01*
X46825714Y-85742143D01*
X46754286Y-85956429D01*
X45897143Y-86813571D01*
X46825714Y-86813571D01*
X47468571Y-86813571D02*
X47468571Y-85313571D01*
X47968571Y-86385000D01*
X48468571Y-85313571D01*
X48468571Y-86813571D01*
X49682857Y-86027857D02*
X49897143Y-86099286D01*
X49968571Y-86170714D01*
X50040000Y-86313571D01*
X50040000Y-86527857D01*
X49968571Y-86670714D01*
X49897143Y-86742143D01*
X49754285Y-86813571D01*
X49182857Y-86813571D01*
X49182857Y-85313571D01*
X49682857Y-85313571D01*
X49825714Y-85385000D01*
X49897143Y-85456429D01*
X49968571Y-85599286D01*
X49968571Y-85742143D01*
X49897143Y-85885000D01*
X49825714Y-85956429D01*
X49682857Y-86027857D01*
X49182857Y-86027857D01*
X39861429Y-89292143D02*
X40075715Y-89363571D01*
X40432858Y-89363571D01*
X40575715Y-89292143D01*
X40647144Y-89220714D01*
X40718572Y-89077857D01*
X40718572Y-88935000D01*
X40647144Y-88792143D01*
X40575715Y-88720714D01*
X40432858Y-88649286D01*
X40147144Y-88577857D01*
X40004286Y-88506429D01*
X39932858Y-88435000D01*
X39861429Y-88292143D01*
X39861429Y-88149286D01*
X39932858Y-88006429D01*
X40004286Y-87935000D01*
X40147144Y-87863571D01*
X40504286Y-87863571D01*
X40718572Y-87935000D01*
X41361429Y-89363571D02*
X41361429Y-87863571D01*
X41718572Y-87863571D01*
X41932857Y-87935000D01*
X42075715Y-88077857D01*
X42147143Y-88220714D01*
X42218572Y-88506429D01*
X42218572Y-88720714D01*
X42147143Y-89006429D01*
X42075715Y-89149286D01*
X41932857Y-89292143D01*
X41718572Y-89363571D01*
X41361429Y-89363571D01*
X43718572Y-89363571D02*
X43218572Y-88649286D01*
X42861429Y-89363571D02*
X42861429Y-87863571D01*
X43432857Y-87863571D01*
X43575715Y-87935000D01*
X43647143Y-88006429D01*
X43718572Y-88149286D01*
X43718572Y-88363571D01*
X43647143Y-88506429D01*
X43575715Y-88577857D01*
X43432857Y-88649286D01*
X42861429Y-88649286D01*
X44290000Y-88935000D02*
X45004286Y-88935000D01*
X44147143Y-89363571D02*
X44647143Y-87863571D01*
X45147143Y-89363571D01*
X45647143Y-89363571D02*
X45647143Y-87863571D01*
X46147143Y-88935000D01*
X46647143Y-87863571D01*
X46647143Y-89363571D01*
D12*
X43420000Y-99810000D02*
X43420000Y-90600000D01*
X71480000Y-79960000D02*
X71480000Y-87100028D01*
X87010000Y-79960000D02*
X71480000Y-79960000D01*
X87010000Y-87100000D02*
X87010000Y-79960000D01*
X71479997Y-87100000D02*
X87010000Y-87100000D01*
D13*
X72460001Y-83233571D02*
X72460001Y-82233571D01*
X72460001Y-81733571D02*
X72388572Y-81805000D01*
X72460001Y-81876429D01*
X72531429Y-81805000D01*
X72460001Y-81733571D01*
X72460001Y-81876429D01*
X74031430Y-83090714D02*
X73960001Y-83162143D01*
X73745715Y-83233571D01*
X73602858Y-83233571D01*
X73388573Y-83162143D01*
X73245715Y-83019286D01*
X73174287Y-82876429D01*
X73102858Y-82590714D01*
X73102858Y-82376429D01*
X73174287Y-82090714D01*
X73245715Y-81947857D01*
X73388573Y-81805000D01*
X73602858Y-81733571D01*
X73745715Y-81733571D01*
X73960001Y-81805000D01*
X74031430Y-81876429D01*
X74674287Y-82447857D02*
X75174287Y-82447857D01*
X75388573Y-83233571D02*
X74674287Y-83233571D01*
X74674287Y-81733571D01*
X75388573Y-81733571D01*
X76674287Y-82233571D02*
X76674287Y-83233571D01*
X76317144Y-81662143D02*
X75960001Y-82733571D01*
X76888573Y-82733571D01*
X77745715Y-81733571D02*
X77888572Y-81733571D01*
X78031429Y-81805000D01*
X78102858Y-81876429D01*
X78174287Y-82019286D01*
X78245715Y-82305000D01*
X78245715Y-82662143D01*
X78174287Y-82947857D01*
X78102858Y-83090714D01*
X78031429Y-83162143D01*
X77888572Y-83233571D01*
X77745715Y-83233571D01*
X77602858Y-83162143D01*
X77531429Y-83090714D01*
X77460001Y-82947857D01*
X77388572Y-82662143D01*
X77388572Y-82305000D01*
X77460001Y-82019286D01*
X77531429Y-81876429D01*
X77602858Y-81805000D01*
X77745715Y-81733571D01*
X78888572Y-82662143D02*
X80031429Y-82662143D01*
X80745715Y-83233571D02*
X80745715Y-81733571D01*
X80745715Y-82447857D02*
X81602858Y-82447857D01*
X81602858Y-83233571D02*
X81602858Y-81733571D01*
X82174287Y-81733571D02*
X83174287Y-83233571D01*
X83174287Y-81733571D02*
X82174287Y-83233571D01*
X84388572Y-82233571D02*
X84388572Y-83233571D01*
X84031429Y-81662143D02*
X83674286Y-82733571D01*
X84602858Y-82733571D01*
X85174286Y-83233571D02*
X85174286Y-81733571D01*
X86031429Y-83233571D02*
X85388572Y-82376429D01*
X86031429Y-81733571D02*
X85174286Y-82590714D01*
X75781429Y-84283571D02*
X76281429Y-85783571D01*
X76781429Y-84283571D01*
X78281429Y-85926429D02*
X78138572Y-85855000D01*
X77995715Y-85712143D01*
X77781429Y-85497857D01*
X77638572Y-85426429D01*
X77495715Y-85426429D01*
X77567143Y-85783571D02*
X77424286Y-85712143D01*
X77281429Y-85569286D01*
X77210000Y-85283571D01*
X77210000Y-84783571D01*
X77281429Y-84497857D01*
X77424286Y-84355000D01*
X77567143Y-84283571D01*
X77852857Y-84283571D01*
X77995715Y-84355000D01*
X78138572Y-84497857D01*
X78210000Y-84783571D01*
X78210000Y-85283571D01*
X78138572Y-85569286D01*
X77995715Y-85712143D01*
X77852857Y-85783571D01*
X77567143Y-85783571D01*
X79638572Y-85783571D02*
X78781429Y-85783571D01*
X79210001Y-85783571D02*
X79210001Y-84283571D01*
X79067144Y-84497857D01*
X78924286Y-84640714D01*
X78781429Y-84712143D01*
X80924286Y-84783571D02*
X80924286Y-85783571D01*
X80567143Y-84212143D02*
X80210000Y-85283571D01*
X81138572Y-85283571D01*
X82352857Y-84783571D02*
X82352857Y-85783571D01*
X81995714Y-84212143D02*
X81638571Y-85283571D01*
X82567143Y-85283571D01*
D12*
X79410000Y-95210000D02*
X79410000Y-87099994D01*
X76960000Y-97660000D02*
X79410000Y-95210000D01*
D13*
X51167143Y-64292857D02*
X51667143Y-64292857D01*
X51881429Y-65078571D02*
X51167143Y-65078571D01*
X51167143Y-63578571D01*
X51881429Y-63578571D01*
X52381429Y-63578571D02*
X53381429Y-65078571D01*
X53381429Y-63578571D02*
X52381429Y-65078571D01*
X53952857Y-65078571D02*
X53952857Y-63578571D01*
X54524285Y-63578571D01*
X54667143Y-63650000D01*
X54738571Y-63721429D01*
X54810000Y-63864286D01*
X54810000Y-64078571D01*
X54738571Y-64221429D01*
X54667143Y-64292857D01*
X54524285Y-64364286D01*
X53952857Y-64364286D01*
X55381428Y-64650000D02*
X56095714Y-64650000D01*
X55238571Y-65078571D02*
X55738571Y-63578571D01*
X56238571Y-65078571D01*
X56738571Y-65078571D02*
X56738571Y-63578571D01*
X57595714Y-65078571D01*
X57595714Y-63578571D01*
X58238571Y-65007143D02*
X58452857Y-65078571D01*
X58810000Y-65078571D01*
X58952857Y-65007143D01*
X59024286Y-64935714D01*
X59095714Y-64792857D01*
X59095714Y-64650000D01*
X59024286Y-64507143D01*
X58952857Y-64435714D01*
X58810000Y-64364286D01*
X58524286Y-64292857D01*
X58381428Y-64221429D01*
X58310000Y-64150000D01*
X58238571Y-64007143D01*
X58238571Y-63864286D01*
X58310000Y-63721429D01*
X58381428Y-63650000D01*
X58524286Y-63578571D01*
X58881428Y-63578571D01*
X59095714Y-63650000D01*
X59738571Y-65078571D02*
X59738571Y-63578571D01*
X60738571Y-63578571D02*
X61024285Y-63578571D01*
X61167143Y-63650000D01*
X61310000Y-63792857D01*
X61381428Y-64078571D01*
X61381428Y-64578571D01*
X61310000Y-64864286D01*
X61167143Y-65007143D01*
X61024285Y-65078571D01*
X60738571Y-65078571D01*
X60595714Y-65007143D01*
X60452857Y-64864286D01*
X60381428Y-64578571D01*
X60381428Y-64078571D01*
X60452857Y-63792857D01*
X60595714Y-63650000D01*
X60738571Y-63578571D01*
X62024286Y-65078571D02*
X62024286Y-63578571D01*
X62881429Y-65078571D01*
X62881429Y-63578571D01*
X64738572Y-65078571D02*
X64738572Y-63578571D01*
X65452858Y-65078571D02*
X65452858Y-63578571D01*
X50584286Y-144122857D02*
X51084286Y-144122857D01*
X51298572Y-144908571D02*
X50584286Y-144908571D01*
X50584286Y-143408571D01*
X51298572Y-143408571D01*
X51798572Y-143408571D02*
X52798572Y-144908571D01*
X52798572Y-143408571D02*
X51798572Y-144908571D01*
X53370000Y-144908571D02*
X53370000Y-143408571D01*
X53941428Y-143408571D01*
X54084286Y-143480000D01*
X54155714Y-143551429D01*
X54227143Y-143694286D01*
X54227143Y-143908571D01*
X54155714Y-144051429D01*
X54084286Y-144122857D01*
X53941428Y-144194286D01*
X53370000Y-144194286D01*
X54798571Y-144480000D02*
X55512857Y-144480000D01*
X54655714Y-144908571D02*
X55155714Y-143408571D01*
X55655714Y-144908571D01*
X56155714Y-144908571D02*
X56155714Y-143408571D01*
X57012857Y-144908571D01*
X57012857Y-143408571D01*
X57655714Y-144837143D02*
X57870000Y-144908571D01*
X58227143Y-144908571D01*
X58370000Y-144837143D01*
X58441429Y-144765714D01*
X58512857Y-144622857D01*
X58512857Y-144480000D01*
X58441429Y-144337143D01*
X58370000Y-144265714D01*
X58227143Y-144194286D01*
X57941429Y-144122857D01*
X57798571Y-144051429D01*
X57727143Y-143980000D01*
X57655714Y-143837143D01*
X57655714Y-143694286D01*
X57727143Y-143551429D01*
X57798571Y-143480000D01*
X57941429Y-143408571D01*
X58298571Y-143408571D01*
X58512857Y-143480000D01*
X59155714Y-144908571D02*
X59155714Y-143408571D01*
X60155714Y-143408571D02*
X60441428Y-143408571D01*
X60584286Y-143480000D01*
X60727143Y-143622857D01*
X60798571Y-143908571D01*
X60798571Y-144408571D01*
X60727143Y-144694286D01*
X60584286Y-144837143D01*
X60441428Y-144908571D01*
X60155714Y-144908571D01*
X60012857Y-144837143D01*
X59870000Y-144694286D01*
X59798571Y-144408571D01*
X59798571Y-143908571D01*
X59870000Y-143622857D01*
X60012857Y-143480000D01*
X60155714Y-143408571D01*
X61441429Y-144908571D02*
X61441429Y-143408571D01*
X62298572Y-144908571D01*
X62298572Y-143408571D01*
X64155715Y-144908571D02*
X64155715Y-143408571D01*
D11*
X25924287Y-151564286D02*
X25524287Y-151564286D01*
X25524287Y-152192857D02*
X25524287Y-150992857D01*
X26095716Y-150992857D01*
X26552858Y-152192857D02*
X26552858Y-150992857D01*
X27010001Y-150992857D01*
X27124287Y-151050000D01*
X27181430Y-151107143D01*
X27238573Y-151221429D01*
X27238573Y-151392857D01*
X27181430Y-151507143D01*
X27124287Y-151564286D01*
X27010001Y-151621429D01*
X26552858Y-151621429D01*
X28381430Y-151050000D02*
X28267144Y-150992857D01*
X28095715Y-150992857D01*
X27924287Y-151050000D01*
X27810001Y-151164286D01*
X27752858Y-151278571D01*
X27695715Y-151507143D01*
X27695715Y-151678571D01*
X27752858Y-151907143D01*
X27810001Y-152021429D01*
X27924287Y-152135714D01*
X28095715Y-152192857D01*
X28210001Y-152192857D01*
X28381430Y-152135714D01*
X28438573Y-152078571D01*
X28438573Y-151678571D01*
X28210001Y-151678571D01*
X28895715Y-151850000D02*
X29467144Y-151850000D01*
X28781430Y-152192857D02*
X29181430Y-150992857D01*
X29581430Y-152192857D01*
X30895715Y-152192857D02*
X30895715Y-150992857D01*
X31181430Y-150992857D01*
X31352858Y-151050000D01*
X31467144Y-151164286D01*
X31524287Y-151278571D01*
X31581430Y-151507143D01*
X31581430Y-151678571D01*
X31524287Y-151907143D01*
X31467144Y-152021429D01*
X31352858Y-152135714D01*
X31181430Y-152192857D01*
X30895715Y-152192857D01*
X32267144Y-152192857D02*
X32152858Y-152135714D01*
X32095715Y-152078571D01*
X32038572Y-151964286D01*
X32038572Y-151621429D01*
X32095715Y-151507143D01*
X32152858Y-151450000D01*
X32267144Y-151392857D01*
X32438572Y-151392857D01*
X32552858Y-151450000D01*
X32610001Y-151507143D01*
X32667144Y-151621429D01*
X32667144Y-151964286D01*
X32610001Y-152078571D01*
X32552858Y-152135714D01*
X32438572Y-152192857D01*
X32267144Y-152192857D01*
X33181429Y-151392857D02*
X33181429Y-152192857D01*
X33181429Y-151507143D02*
X33238572Y-151450000D01*
X33352858Y-151392857D01*
X33524286Y-151392857D01*
X33638572Y-151450000D01*
X33695715Y-151564286D01*
X33695715Y-152192857D01*
X34781429Y-151392857D02*
X34781429Y-152364286D01*
X34724286Y-152478571D01*
X34667143Y-152535714D01*
X34552858Y-152592857D01*
X34381429Y-152592857D01*
X34267143Y-152535714D01*
X34781429Y-152135714D02*
X34667143Y-152192857D01*
X34438572Y-152192857D01*
X34324286Y-152135714D01*
X34267143Y-152078571D01*
X34210000Y-151964286D01*
X34210000Y-151621429D01*
X34267143Y-151507143D01*
X34324286Y-151450000D01*
X34438572Y-151392857D01*
X34667143Y-151392857D01*
X34781429Y-151450000D01*
X35524286Y-152192857D02*
X35410000Y-152135714D01*
X35352857Y-152021429D01*
X35352857Y-150992857D01*
X36438571Y-152135714D02*
X36324285Y-152192857D01*
X36095714Y-152192857D01*
X35981428Y-152135714D01*
X35924285Y-152021429D01*
X35924285Y-151564286D01*
X35981428Y-151450000D01*
X36095714Y-151392857D01*
X36324285Y-151392857D01*
X36438571Y-151450000D01*
X36495714Y-151564286D01*
X36495714Y-151678571D01*
X35924285Y-151792857D01*
X37924285Y-152192857D02*
X37924285Y-151392857D01*
X37924285Y-150992857D02*
X37867142Y-151050000D01*
X37924285Y-151107143D01*
X37981428Y-151050000D01*
X37924285Y-150992857D01*
X37924285Y-151107143D01*
X39181429Y-152078571D02*
X39124286Y-152135714D01*
X38952857Y-152192857D01*
X38838571Y-152192857D01*
X38667143Y-152135714D01*
X38552857Y-152021429D01*
X38495714Y-151907143D01*
X38438571Y-151678571D01*
X38438571Y-151507143D01*
X38495714Y-151278571D01*
X38552857Y-151164286D01*
X38667143Y-151050000D01*
X38838571Y-150992857D01*
X38952857Y-150992857D01*
X39124286Y-151050000D01*
X39181429Y-151107143D01*
X39695714Y-151564286D02*
X40095714Y-151564286D01*
X40267143Y-152192857D02*
X39695714Y-152192857D01*
X39695714Y-150992857D01*
X40267143Y-150992857D01*
X41295714Y-151392857D02*
X41295714Y-152192857D01*
X41010000Y-150935714D02*
X40724285Y-151792857D01*
X41467143Y-151792857D01*
X42152857Y-150992857D02*
X42267142Y-150992857D01*
X42381428Y-151050000D01*
X42438571Y-151107143D01*
X42495714Y-151221429D01*
X42552857Y-151450000D01*
X42552857Y-151735714D01*
X42495714Y-151964286D01*
X42438571Y-152078571D01*
X42381428Y-152135714D01*
X42267142Y-152192857D01*
X42152857Y-152192857D01*
X42038571Y-152135714D01*
X41981428Y-152078571D01*
X41924285Y-151964286D01*
X41867142Y-151735714D01*
X41867142Y-151450000D01*
X41924285Y-151221429D01*
X41981428Y-151107143D01*
X42038571Y-151050000D01*
X42152857Y-150992857D01*
X44724285Y-151621429D02*
X44667143Y-151564286D01*
X44552857Y-151507143D01*
X44438571Y-151507143D01*
X44324285Y-151564286D01*
X44267143Y-151621429D01*
X44210000Y-151735714D01*
X44210000Y-151850000D01*
X44267143Y-151964286D01*
X44324285Y-152021429D01*
X44438571Y-152078571D01*
X44552857Y-152078571D01*
X44667143Y-152021429D01*
X44724285Y-151964286D01*
X44724285Y-151507143D02*
X44724285Y-151964286D01*
X44781428Y-152021429D01*
X44838571Y-152021429D01*
X44952857Y-151964286D01*
X45010000Y-151850000D01*
X45010000Y-151564286D01*
X44895714Y-151392857D01*
X44724285Y-151278571D01*
X44495714Y-151221429D01*
X44267143Y-151278571D01*
X44095714Y-151392857D01*
X43981428Y-151564286D01*
X43924285Y-151792857D01*
X43981428Y-152021429D01*
X44095714Y-152192857D01*
X44267143Y-152307143D01*
X44495714Y-152364286D01*
X44724285Y-152307143D01*
X44895714Y-152192857D01*
X46438571Y-151564286D02*
X46838571Y-151564286D01*
X47010000Y-152192857D02*
X46438571Y-152192857D01*
X46438571Y-150992857D01*
X47010000Y-150992857D01*
X47524285Y-152192857D02*
X47524285Y-150992857D01*
X47810000Y-150992857D01*
X47981428Y-151050000D01*
X48095714Y-151164286D01*
X48152857Y-151278571D01*
X48210000Y-151507143D01*
X48210000Y-151678571D01*
X48152857Y-151907143D01*
X48095714Y-152021429D01*
X47981428Y-152135714D01*
X47810000Y-152192857D01*
X47524285Y-152192857D01*
X48724285Y-150992857D02*
X48724285Y-151964286D01*
X48781428Y-152078571D01*
X48838571Y-152135714D01*
X48952857Y-152192857D01*
X49181428Y-152192857D01*
X49295714Y-152135714D01*
X49352857Y-152078571D01*
X49410000Y-151964286D01*
X49410000Y-150992857D01*
X49981428Y-151735714D02*
X50895714Y-151735714D01*
X52152857Y-152078571D02*
X52095714Y-152135714D01*
X51924285Y-152192857D01*
X51809999Y-152192857D01*
X51638571Y-152135714D01*
X51524285Y-152021429D01*
X51467142Y-151907143D01*
X51409999Y-151678571D01*
X51409999Y-151507143D01*
X51467142Y-151278571D01*
X51524285Y-151164286D01*
X51638571Y-151050000D01*
X51809999Y-150992857D01*
X51924285Y-150992857D01*
X52095714Y-151050000D01*
X52152857Y-151107143D01*
X52667142Y-152192857D02*
X52667142Y-150992857D01*
X53181428Y-151850000D02*
X53752857Y-151850000D01*
X53067143Y-152192857D02*
X53467143Y-150992857D01*
X53867143Y-152192857D01*
X54209999Y-151850000D02*
X54781428Y-151850000D01*
X54095714Y-152192857D02*
X54495714Y-150992857D01*
X54895714Y-152192857D01*
X55295713Y-151735714D02*
X56209999Y-151735714D01*
X56781427Y-152192857D02*
X56781427Y-150992857D01*
X57467142Y-152192857D01*
X57467142Y-150992857D01*
X57924285Y-150992857D02*
X58724285Y-152192857D01*
X58724285Y-150992857D02*
X57924285Y-152192857D01*
X59181427Y-152192857D02*
X59181427Y-150992857D01*
X59638570Y-150992857D01*
X59752856Y-151050000D01*
X59809999Y-151107143D01*
X59867142Y-151221429D01*
X59867142Y-151392857D01*
X59809999Y-151507143D01*
X59752856Y-151564286D01*
X59638570Y-151621429D01*
X59181427Y-151621429D01*
X61181428Y-151392857D02*
X61467142Y-152192857D01*
X61752856Y-151392857D01*
X62438571Y-150992857D02*
X62552856Y-150992857D01*
X62667142Y-151050000D01*
X62724285Y-151107143D01*
X62781428Y-151221429D01*
X62838571Y-151450000D01*
X62838571Y-151735714D01*
X62781428Y-151964286D01*
X62724285Y-152078571D01*
X62667142Y-152135714D01*
X62552856Y-152192857D01*
X62438571Y-152192857D01*
X62324285Y-152135714D01*
X62267142Y-152078571D01*
X62209999Y-151964286D01*
X62152856Y-151735714D01*
X62152856Y-151450000D01*
X62209999Y-151221429D01*
X62267142Y-151107143D01*
X62324285Y-151050000D01*
X62438571Y-150992857D01*
X63352856Y-152078571D02*
X63409999Y-152135714D01*
X63352856Y-152192857D01*
X63295713Y-152135714D01*
X63352856Y-152078571D01*
X63352856Y-152192857D01*
X64552857Y-152192857D02*
X63867142Y-152192857D01*
X64210000Y-152192857D02*
X64210000Y-150992857D01*
X64095714Y-151164286D01*
X63981428Y-151278571D01*
X63867142Y-151335714D01*
D12*
X66650000Y-17650000D02*
X66650000Y-57050000D01*
D13*
X19337143Y-47161430D02*
X19337143Y-46661430D01*
X18551429Y-46661430D02*
X20051429Y-46661430D01*
X20051429Y-47375716D01*
X18551429Y-47947144D02*
X20051429Y-47947144D01*
X20051429Y-48518572D01*
X19980000Y-48661430D01*
X19908571Y-48732858D01*
X19765714Y-48804287D01*
X19551429Y-48804287D01*
X19408571Y-48732858D01*
X19337143Y-48661430D01*
X19265714Y-48518572D01*
X19265714Y-47947144D01*
X19980000Y-50232858D02*
X20051429Y-50090001D01*
X20051429Y-49875715D01*
X19980000Y-49661430D01*
X19837143Y-49518572D01*
X19694286Y-49447144D01*
X19408571Y-49375715D01*
X19194286Y-49375715D01*
X18908571Y-49447144D01*
X18765714Y-49518572D01*
X18622857Y-49661430D01*
X18551429Y-49875715D01*
X18551429Y-50018572D01*
X18622857Y-50232858D01*
X18694286Y-50304287D01*
X19194286Y-50304287D01*
X19194286Y-50018572D01*
X18980000Y-50875715D02*
X18980000Y-51590001D01*
X18551429Y-50732858D02*
X20051429Y-51232858D01*
X18551429Y-51732858D01*
X18622857Y-53304286D02*
X18551429Y-53518572D01*
X18551429Y-53875715D01*
X18622857Y-54018572D01*
X18694286Y-54090001D01*
X18837143Y-54161429D01*
X18980000Y-54161429D01*
X19122857Y-54090001D01*
X19194286Y-54018572D01*
X19265714Y-53875715D01*
X19337143Y-53590001D01*
X19408571Y-53447143D01*
X19480000Y-53375715D01*
X19622857Y-53304286D01*
X19765714Y-53304286D01*
X19908571Y-53375715D01*
X19980000Y-53447143D01*
X20051429Y-53590001D01*
X20051429Y-53947143D01*
X19980000Y-54161429D01*
X18622857Y-54732857D02*
X18551429Y-54947143D01*
X18551429Y-55304286D01*
X18622857Y-55447143D01*
X18694286Y-55518572D01*
X18837143Y-55590000D01*
X18980000Y-55590000D01*
X19122857Y-55518572D01*
X19194286Y-55447143D01*
X19265714Y-55304286D01*
X19337143Y-55018572D01*
X19408571Y-54875714D01*
X19480000Y-54804286D01*
X19622857Y-54732857D01*
X19765714Y-54732857D01*
X19908571Y-54804286D01*
X19980000Y-54875714D01*
X20051429Y-55018572D01*
X20051429Y-55375714D01*
X19980000Y-55590000D01*
X18551429Y-56232857D02*
X20051429Y-56232857D01*
X20051429Y-56804285D01*
X19980000Y-56947143D01*
X19908571Y-57018571D01*
X19765714Y-57090000D01*
X19551429Y-57090000D01*
X19408571Y-57018571D01*
X19337143Y-56947143D01*
X19265714Y-56804285D01*
X19265714Y-56232857D01*
D12*
X97902381Y-65966667D02*
X98711905Y-65966667D01*
X98807143Y-65919048D01*
X98854762Y-65871429D01*
X98902381Y-65776191D01*
X98902381Y-65585714D01*
X98854762Y-65490476D01*
X98807143Y-65442857D01*
X98711905Y-65395238D01*
X97902381Y-65395238D01*
X98854762Y-64966667D02*
X98902381Y-64871429D01*
X98902381Y-64680953D01*
X98854762Y-64585714D01*
X98759524Y-64538095D01*
X98711905Y-64538095D01*
X98616667Y-64585714D01*
X98569048Y-64680953D01*
X98569048Y-64823810D01*
X98521429Y-64919048D01*
X98426190Y-64966667D01*
X98378571Y-64966667D01*
X98283333Y-64919048D01*
X98235714Y-64823810D01*
X98235714Y-64680953D01*
X98283333Y-64585714D01*
X98854762Y-63728571D02*
X98902381Y-63823809D01*
X98902381Y-64014286D01*
X98854762Y-64109524D01*
X98759524Y-64157143D01*
X98378571Y-64157143D01*
X98283333Y-64109524D01*
X98235714Y-64014286D01*
X98235714Y-63823809D01*
X98283333Y-63728571D01*
X98378571Y-63680952D01*
X98473810Y-63680952D01*
X98569048Y-64157143D01*
X98902381Y-63252381D02*
X98235714Y-63252381D01*
X98426190Y-63252381D02*
X98330952Y-63204762D01*
X98283333Y-63157143D01*
X98235714Y-63061905D01*
X98235714Y-62966666D01*
X98902381Y-61395237D02*
X98902381Y-61871428D01*
X97902381Y-61871428D01*
X98378571Y-61061904D02*
X98378571Y-60728570D01*
X98902381Y-60585713D02*
X98902381Y-61061904D01*
X97902381Y-61061904D01*
X97902381Y-60585713D01*
X98902381Y-60157142D02*
X97902381Y-60157142D01*
X97902381Y-59919047D01*
X97950000Y-59776189D01*
X98045238Y-59680951D01*
X98140476Y-59633332D01*
X98330952Y-59585713D01*
X98473810Y-59585713D01*
X98664286Y-59633332D01*
X98759524Y-59680951D01*
X98854762Y-59776189D01*
X98902381Y-59919047D01*
X98902381Y-60157142D01*
X37069048Y-19547619D02*
X37069048Y-18738095D01*
X37021429Y-18642857D01*
X36973810Y-18595238D01*
X36878572Y-18547619D01*
X36688095Y-18547619D01*
X36592857Y-18595238D01*
X36545238Y-18642857D01*
X36497619Y-18738095D01*
X36497619Y-19547619D01*
X36069048Y-18595238D02*
X35926191Y-18547619D01*
X35688095Y-18547619D01*
X35592857Y-18595238D01*
X35545238Y-18642857D01*
X35497619Y-18738095D01*
X35497619Y-18833333D01*
X35545238Y-18928571D01*
X35592857Y-18976190D01*
X35688095Y-19023810D01*
X35878572Y-19071429D01*
X35973810Y-19119048D01*
X36021429Y-19166667D01*
X36069048Y-19261905D01*
X36069048Y-19357143D01*
X36021429Y-19452381D01*
X35973810Y-19500000D01*
X35878572Y-19547619D01*
X35640476Y-19547619D01*
X35497619Y-19500000D01*
X34735714Y-19071429D02*
X34592857Y-19023810D01*
X34545238Y-18976190D01*
X34497619Y-18880952D01*
X34497619Y-18738095D01*
X34545238Y-18642857D01*
X34592857Y-18595238D01*
X34688095Y-18547619D01*
X35069048Y-18547619D01*
X35069048Y-19547619D01*
X34735714Y-19547619D01*
X34640476Y-19500000D01*
X34592857Y-19452381D01*
X34545238Y-19357143D01*
X34545238Y-19261905D01*
X34592857Y-19166667D01*
X34640476Y-19119048D01*
X34735714Y-19071429D01*
X35069048Y-19071429D01*
X33116667Y-19547619D02*
X32926190Y-19547619D01*
X32830952Y-19500000D01*
X32735714Y-19404762D01*
X32688095Y-19214286D01*
X32688095Y-18880952D01*
X32735714Y-18690476D01*
X32830952Y-18595238D01*
X32926190Y-18547619D01*
X33116667Y-18547619D01*
X33211905Y-18595238D01*
X33307143Y-18690476D01*
X33354762Y-18880952D01*
X33354762Y-19214286D01*
X33307143Y-19404762D01*
X33211905Y-19500000D01*
X33116667Y-19547619D01*
X32259524Y-19214286D02*
X32259524Y-18547619D01*
X32259524Y-19119048D02*
X32211905Y-19166667D01*
X32116667Y-19214286D01*
X31973809Y-19214286D01*
X31878571Y-19166667D01*
X31830952Y-19071429D01*
X31830952Y-18547619D01*
X98502381Y-142690477D02*
X99311905Y-142690477D01*
X99407143Y-142642858D01*
X99454762Y-142595239D01*
X99502381Y-142500001D01*
X99502381Y-142309524D01*
X99454762Y-142214286D01*
X99407143Y-142166667D01*
X99311905Y-142119048D01*
X98502381Y-142119048D01*
X99454762Y-141690477D02*
X99502381Y-141595239D01*
X99502381Y-141404763D01*
X99454762Y-141309524D01*
X99359524Y-141261905D01*
X99311905Y-141261905D01*
X99216667Y-141309524D01*
X99169048Y-141404763D01*
X99169048Y-141547620D01*
X99121429Y-141642858D01*
X99026190Y-141690477D01*
X98978571Y-141690477D01*
X98883333Y-141642858D01*
X98835714Y-141547620D01*
X98835714Y-141404763D01*
X98883333Y-141309524D01*
X99454762Y-140452381D02*
X99502381Y-140547619D01*
X99502381Y-140738096D01*
X99454762Y-140833334D01*
X99359524Y-140880953D01*
X98978571Y-140880953D01*
X98883333Y-140833334D01*
X98835714Y-140738096D01*
X98835714Y-140547619D01*
X98883333Y-140452381D01*
X98978571Y-140404762D01*
X99073810Y-140404762D01*
X99169048Y-140880953D01*
X99502381Y-139976191D02*
X98835714Y-139976191D01*
X99026190Y-139976191D02*
X98930952Y-139928572D01*
X98883333Y-139880953D01*
X98835714Y-139785715D01*
X98835714Y-139690476D01*
X99502381Y-138595238D02*
X98502381Y-138595238D01*
X98883333Y-138595238D02*
X98835714Y-138500000D01*
X98835714Y-138309523D01*
X98883333Y-138214285D01*
X98930952Y-138166666D01*
X99026190Y-138119047D01*
X99311905Y-138119047D01*
X99407143Y-138166666D01*
X99454762Y-138214285D01*
X99502381Y-138309523D01*
X99502381Y-138500000D01*
X99454762Y-138595238D01*
X98835714Y-137261904D02*
X99502381Y-137261904D01*
X98835714Y-137690476D02*
X99359524Y-137690476D01*
X99454762Y-137642857D01*
X99502381Y-137547619D01*
X99502381Y-137404761D01*
X99454762Y-137309523D01*
X99407143Y-137261904D01*
X98835714Y-136928571D02*
X98835714Y-136547619D01*
X98502381Y-136785714D02*
X99359524Y-136785714D01*
X99454762Y-136738095D01*
X99502381Y-136642857D01*
X99502381Y-136547619D01*
X98835714Y-136357142D02*
X98835714Y-135976190D01*
X98502381Y-136214285D02*
X99359524Y-136214285D01*
X99454762Y-136166666D01*
X99502381Y-136071428D01*
X99502381Y-135976190D01*
X99502381Y-135499999D02*
X99454762Y-135595237D01*
X99407143Y-135642856D01*
X99311905Y-135690475D01*
X99026190Y-135690475D01*
X98930952Y-135642856D01*
X98883333Y-135595237D01*
X98835714Y-135499999D01*
X98835714Y-135357141D01*
X98883333Y-135261903D01*
X98930952Y-135214284D01*
X99026190Y-135166665D01*
X99311905Y-135166665D01*
X99407143Y-135214284D01*
X99454762Y-135261903D01*
X99502381Y-135357141D01*
X99502381Y-135499999D01*
X98835714Y-134738094D02*
X99502381Y-134738094D01*
X98930952Y-134738094D02*
X98883333Y-134690475D01*
X98835714Y-134595237D01*
X98835714Y-134452379D01*
X98883333Y-134357141D01*
X98978571Y-134309522D01*
X99502381Y-134309522D01*
D13*
X64128571Y-54021428D02*
X62628571Y-54021428D01*
X62628571Y-53450000D01*
X62700000Y-53307142D01*
X62771429Y-53235714D01*
X62914286Y-53164285D01*
X63128571Y-53164285D01*
X63271429Y-53235714D01*
X63342857Y-53307142D01*
X63414286Y-53450000D01*
X63414286Y-54021428D01*
X64128571Y-51664285D02*
X63414286Y-52164285D01*
X64128571Y-52521428D02*
X62628571Y-52521428D01*
X62628571Y-51950000D01*
X62700000Y-51807142D01*
X62771429Y-51735714D01*
X62914286Y-51664285D01*
X63128571Y-51664285D01*
X63271429Y-51735714D01*
X63342857Y-51807142D01*
X63414286Y-51950000D01*
X63414286Y-52521428D01*
X62628571Y-50735714D02*
X62628571Y-50450000D01*
X62700000Y-50307142D01*
X62842857Y-50164285D01*
X63128571Y-50092857D01*
X63628571Y-50092857D01*
X63914286Y-50164285D01*
X64057143Y-50307142D01*
X64128571Y-50450000D01*
X64128571Y-50735714D01*
X64057143Y-50878571D01*
X63914286Y-51021428D01*
X63628571Y-51092857D01*
X63128571Y-51092857D01*
X62842857Y-51021428D01*
X62700000Y-50878571D01*
X62628571Y-50735714D01*
X62700000Y-48664285D02*
X62628571Y-48807142D01*
X62628571Y-49021428D01*
X62700000Y-49235713D01*
X62842857Y-49378571D01*
X62985714Y-49449999D01*
X63271429Y-49521428D01*
X63485714Y-49521428D01*
X63771429Y-49449999D01*
X63914286Y-49378571D01*
X64057143Y-49235713D01*
X64128571Y-49021428D01*
X64128571Y-48878571D01*
X64057143Y-48664285D01*
X63985714Y-48592856D01*
X63485714Y-48592856D01*
X63485714Y-48878571D01*
X64057143Y-46878571D02*
X64128571Y-46664285D01*
X64128571Y-46307142D01*
X64057143Y-46164285D01*
X63985714Y-46092856D01*
X63842857Y-46021428D01*
X63700000Y-46021428D01*
X63557143Y-46092856D01*
X63485714Y-46164285D01*
X63414286Y-46307142D01*
X63342857Y-46592856D01*
X63271429Y-46735714D01*
X63200000Y-46807142D01*
X63057143Y-46878571D01*
X62914286Y-46878571D01*
X62771429Y-46807142D01*
X62700000Y-46735714D01*
X62628571Y-46592856D01*
X62628571Y-46235714D01*
X62700000Y-46021428D01*
X62628571Y-45521428D02*
X64128571Y-45164285D01*
X63057143Y-44878571D01*
X64128571Y-44592857D01*
X62628571Y-44235714D01*
X64128571Y-43664285D02*
X62628571Y-43664285D01*
X62628571Y-43307142D01*
X62700000Y-43092857D01*
X62842857Y-42949999D01*
X62985714Y-42878571D01*
X63271429Y-42807142D01*
X63485714Y-42807142D01*
X63771429Y-42878571D01*
X63914286Y-42949999D01*
X64057143Y-43092857D01*
X64128571Y-43307142D01*
X64128571Y-43664285D01*
X57928571Y-32021428D02*
X56428571Y-32021428D01*
X56428571Y-31450000D01*
X56500000Y-31307142D01*
X56571429Y-31235714D01*
X56714286Y-31164285D01*
X56928571Y-31164285D01*
X57071429Y-31235714D01*
X57142857Y-31307142D01*
X57214286Y-31450000D01*
X57214286Y-32021428D01*
X57928571Y-29664285D02*
X57214286Y-30164285D01*
X57928571Y-30521428D02*
X56428571Y-30521428D01*
X56428571Y-29950000D01*
X56500000Y-29807142D01*
X56571429Y-29735714D01*
X56714286Y-29664285D01*
X56928571Y-29664285D01*
X57071429Y-29735714D01*
X57142857Y-29807142D01*
X57214286Y-29950000D01*
X57214286Y-30521428D01*
X56428571Y-28735714D02*
X56428571Y-28450000D01*
X56500000Y-28307142D01*
X56642857Y-28164285D01*
X56928571Y-28092857D01*
X57428571Y-28092857D01*
X57714286Y-28164285D01*
X57857143Y-28307142D01*
X57928571Y-28450000D01*
X57928571Y-28735714D01*
X57857143Y-28878571D01*
X57714286Y-29021428D01*
X57428571Y-29092857D01*
X56928571Y-29092857D01*
X56642857Y-29021428D01*
X56500000Y-28878571D01*
X56428571Y-28735714D01*
X56500000Y-26664285D02*
X56428571Y-26807142D01*
X56428571Y-27021428D01*
X56500000Y-27235713D01*
X56642857Y-27378571D01*
X56785714Y-27449999D01*
X57071429Y-27521428D01*
X57285714Y-27521428D01*
X57571429Y-27449999D01*
X57714286Y-27378571D01*
X57857143Y-27235713D01*
X57928571Y-27021428D01*
X57928571Y-26878571D01*
X57857143Y-26664285D01*
X57785714Y-26592856D01*
X57285714Y-26592856D01*
X57285714Y-26878571D01*
X57928571Y-24807142D02*
X56428571Y-24807142D01*
X57142857Y-23592856D02*
X57142857Y-24092856D01*
X57928571Y-24092856D02*
X56428571Y-24092856D01*
X56428571Y-23378570D01*
X57500000Y-22878571D02*
X57500000Y-22164285D01*
X57928571Y-23021428D02*
X56428571Y-22521428D01*
X57928571Y-22021428D01*
X57785714Y-20664285D02*
X57857143Y-20735714D01*
X57928571Y-20950000D01*
X57928571Y-21092857D01*
X57857143Y-21307142D01*
X57714286Y-21450000D01*
X57571429Y-21521428D01*
X57285714Y-21592857D01*
X57071429Y-21592857D01*
X56785714Y-21521428D01*
X56642857Y-21450000D01*
X56500000Y-21307142D01*
X56428571Y-21092857D01*
X56428571Y-20950000D01*
X56500000Y-20735714D01*
X56571429Y-20664285D01*
X57142857Y-20021428D02*
X57142857Y-19521428D01*
X57928571Y-19307142D02*
X57928571Y-20021428D01*
X56428571Y-20021428D01*
X56428571Y-19307142D01*
D12*
X20950000Y-59800000D02*
X20950000Y-24649680D01*
X59300000Y-59800000D02*
X20950000Y-59800000D01*
X59300000Y-17650000D02*
X59300000Y-59800000D01*
D13*
X90652857Y-45300000D02*
X90652857Y-44800000D01*
X91438571Y-44585714D02*
X91438571Y-45300000D01*
X89938571Y-45300000D01*
X89938571Y-44585714D01*
X89938571Y-44085714D02*
X91438571Y-43085714D01*
X89938571Y-43085714D02*
X91438571Y-44085714D01*
X89938571Y-42728572D02*
X89938571Y-41871429D01*
X91438571Y-42300000D02*
X89938571Y-42300000D01*
X91438571Y-40228572D02*
X89938571Y-40228572D01*
X89938571Y-39657144D01*
X90010000Y-39514286D01*
X90081429Y-39442858D01*
X90224286Y-39371429D01*
X90438571Y-39371429D01*
X90581429Y-39442858D01*
X90652857Y-39514286D01*
X90724286Y-39657144D01*
X90724286Y-40228572D01*
X89938571Y-38442858D02*
X89938571Y-38157144D01*
X90010000Y-38014286D01*
X90152857Y-37871429D01*
X90438571Y-37800001D01*
X90938571Y-37800001D01*
X91224286Y-37871429D01*
X91367143Y-38014286D01*
X91438571Y-38157144D01*
X91438571Y-38442858D01*
X91367143Y-38585715D01*
X91224286Y-38728572D01*
X90938571Y-38800001D01*
X90438571Y-38800001D01*
X90152857Y-38728572D01*
X90010000Y-38585715D01*
X89938571Y-38442858D01*
X89938571Y-37300000D02*
X91438571Y-36942857D01*
X90367143Y-36657143D01*
X91438571Y-36371429D01*
X89938571Y-36014286D01*
X90652857Y-35442857D02*
X90652857Y-34942857D01*
X91438571Y-34728571D02*
X91438571Y-35442857D01*
X89938571Y-35442857D01*
X89938571Y-34728571D01*
X91438571Y-33228571D02*
X90724286Y-33728571D01*
X91438571Y-34085714D02*
X89938571Y-34085714D01*
X89938571Y-33514286D01*
X90010000Y-33371428D01*
X90081429Y-33300000D01*
X90224286Y-33228571D01*
X90438571Y-33228571D01*
X90581429Y-33300000D01*
X90652857Y-33371428D01*
X90724286Y-33514286D01*
X90724286Y-34085714D01*
D12*
X92280000Y-57050000D02*
X92280000Y-17650000D01*
X66650000Y-57050000D02*
X92280000Y-57050000D01*
D14*
X51070366Y-100745008D02*
X51070366Y-110524832D01*
X51070366Y-110524832D02*
X28845366Y-110524832D01*
X28845366Y-110524832D02*
X28845366Y-100745832D01*
X28845366Y-100745832D02*
X51070366Y-100745832D01*
X32499996Y-43975000D02*
X33699996Y-43975000D01*
X33699996Y-45725000D02*
X32499996Y-45725000D01*
X25920000Y-130530000D02*
X25920000Y-79730000D01*
X20840000Y-82270000D02*
X20840000Y-130530000D01*
X25920000Y-130530000D02*
X20840000Y-130530000D01*
X25920000Y-79730000D02*
X23380000Y-79730000D01*
X22110000Y-79450000D02*
X20560000Y-79450000D01*
X23380000Y-79730000D02*
X23380000Y-82270000D01*
X23380000Y-82270000D02*
X20840000Y-82270000D01*
X20560000Y-79450000D02*
X20560000Y-81000000D01*
X49825000Y-35700000D02*
X49825000Y-36900000D01*
X48075000Y-36900000D02*
X48075000Y-35700000D01*
X82939623Y-107095832D02*
X82197161Y-106353370D01*
X68550000Y-121485455D02*
X67807538Y-120742993D01*
X54160377Y-107095832D02*
X54902839Y-107838294D01*
X68550000Y-92706209D02*
X69292462Y-93448671D01*
X82939623Y-107095832D02*
X82197161Y-107838294D01*
X68550000Y-92706209D02*
X67807538Y-93448671D01*
X54160377Y-107095832D02*
X54902839Y-106353370D01*
X68550000Y-121485455D02*
X69292462Y-120742993D01*
X82197161Y-106353370D02*
X83116400Y-105434131D01*
X54000000Y-51625000D02*
X52800000Y-51625000D01*
X52800000Y-49875000D02*
X54000000Y-49875000D01*
X80405546Y-117642983D02*
X79557017Y-116794454D01*
X80794454Y-115557017D02*
X81642983Y-116405546D01*
X88695000Y-41600000D02*
X88695000Y-39600000D01*
X86645000Y-39600000D02*
X86645000Y-41600000D01*
X89665000Y-50870000D02*
X89665000Y-48870000D01*
X87615000Y-48870000D02*
X87615000Y-50870000D01*
X71254194Y-27241390D02*
X71254194Y-25241390D01*
X69204194Y-25241390D02*
X69204194Y-27241390D01*
X94121870Y-133414032D02*
X95121870Y-133414032D01*
X95121870Y-131714032D02*
X94121870Y-131714032D01*
X73674194Y-27241390D02*
X73674194Y-25241390D01*
X71624194Y-25241390D02*
X71624194Y-27241390D01*
X82890000Y-38315000D02*
X84890000Y-38315000D01*
X84890000Y-36265000D02*
X82890000Y-36265000D01*
X82830000Y-47761000D02*
X84830000Y-47761000D01*
X84830000Y-45711000D02*
X82830000Y-45711000D01*
X58195406Y-94797487D02*
X58902513Y-95504594D01*
X60104594Y-94302513D02*
X59397487Y-93595406D01*
X56018109Y-95917678D02*
X57432322Y-97331891D01*
X58881891Y-95882322D02*
X57467678Y-94468109D01*
X81200000Y-129925000D02*
X81200000Y-128925000D01*
X79500000Y-128925000D02*
X79500000Y-129925000D01*
X69590000Y-44670000D02*
X70590000Y-44670000D01*
X70590000Y-42970000D02*
X69590000Y-42970000D01*
X23349000Y-39858572D02*
X23349000Y-42558572D01*
X24849000Y-39858572D02*
X24849000Y-42558572D01*
X23949000Y-41358572D02*
X24199000Y-41358572D01*
X24199000Y-41358572D02*
X24049000Y-41208572D01*
X24449000Y-41108572D02*
X23749000Y-41108572D01*
X24099000Y-41458572D02*
X24099000Y-41808572D01*
X24099000Y-41108572D02*
X24449000Y-41458572D01*
X24449000Y-41458572D02*
X23749000Y-41458572D01*
X23749000Y-41458572D02*
X24099000Y-41108572D01*
D15*
X81850000Y-126700000D02*
X82250000Y-126700000D01*
X81650000Y-126900000D02*
X82450000Y-126900000D01*
X84450000Y-127900000D02*
G75*
G03X84450000Y-127900000I-400000J0D01*
G01*
X82300000Y-124070000D02*
X82300000Y-122530000D01*
X82300000Y-122530000D02*
X81800000Y-122530000D01*
X81800000Y-122530000D02*
X81800000Y-124070000D01*
X81800000Y-124070000D02*
X82300000Y-124070000D01*
X82680000Y-124070000D02*
X82680000Y-123300000D01*
X82680000Y-123300000D02*
X82680000Y-122530000D01*
X82680000Y-123300000D02*
X83050000Y-123300000D01*
X81400000Y-124070000D02*
X81400000Y-123300000D01*
X81400000Y-123300000D02*
X81400000Y-122530000D01*
X81400000Y-123300000D02*
X81050000Y-123300000D01*
X84750000Y-124500000D02*
X84750000Y-122100000D01*
X84550000Y-119500000D02*
X79550000Y-119500000D01*
X79350000Y-122100000D02*
X79350000Y-124500000D01*
X79550000Y-127100000D02*
X81600000Y-127100000D01*
X81550000Y-127100000D02*
X82550000Y-127100000D01*
X82550000Y-127100000D02*
X84550000Y-127100000D01*
X82565240Y-127100000D02*
G75*
G03X81550000Y-127100000I-507620J0D01*
G01*
D14*
X64825494Y-123974506D02*
X64556086Y-124243914D01*
X65543914Y-123256086D02*
X65274506Y-123525494D01*
X65274506Y-123525494D02*
X65094901Y-124243914D01*
X65094901Y-124243914D02*
X64556086Y-123705099D01*
X64556086Y-123705099D02*
X65274506Y-123525494D01*
X65633717Y-123884704D02*
X64915296Y-123166283D01*
X65827817Y-121699390D02*
X63324659Y-124202548D01*
X67100610Y-122972183D02*
X64597452Y-125475341D01*
X75945000Y-38195000D02*
G75*
G03X75945000Y-42005000I1905000J-1905000D01*
G01*
X79755000Y-42005000D02*
G75*
G03X79755000Y-38195000I-1905000J1905000D01*
G01*
X81000000Y-36950000D02*
X79350000Y-36950000D01*
X74700000Y-36950000D02*
X76350000Y-36950000D01*
X81000000Y-43250000D02*
X79350000Y-43250000D01*
X74700000Y-43250000D02*
X76350000Y-43250000D01*
X74700000Y-43250000D02*
X74700000Y-36950000D01*
X81000000Y-43250000D02*
X81000000Y-36950000D01*
X75895000Y-47495000D02*
G75*
G03X75895000Y-51305000I1905000J-1905000D01*
G01*
X79705000Y-51305000D02*
G75*
G03X79705000Y-47495000I-1905000J1905000D01*
G01*
X80950000Y-46250000D02*
X79300000Y-46250000D01*
X74650000Y-46250000D02*
X76300000Y-46250000D01*
X80950000Y-52550000D02*
X79300000Y-52550000D01*
X74650000Y-52550000D02*
X76300000Y-52550000D01*
X74650000Y-52550000D02*
X74650000Y-46250000D01*
X80950000Y-52550000D02*
X80950000Y-46250000D01*
X97175000Y-64575000D02*
X97175000Y-61875000D01*
X95675000Y-64575000D02*
X95675000Y-61875000D01*
X96575000Y-63075000D02*
X96325000Y-63075000D01*
X96325000Y-63075000D02*
X96475000Y-63225000D01*
X96075000Y-63325000D02*
X96775000Y-63325000D01*
X96425000Y-62975000D02*
X96425000Y-62625000D01*
X96425000Y-63325000D02*
X96075000Y-62975000D01*
X96075000Y-62975000D02*
X96775000Y-62975000D01*
X96775000Y-62975000D02*
X96425000Y-63325000D01*
X97040000Y-130530000D02*
X97040000Y-79730000D01*
X91960000Y-82270000D02*
X91960000Y-130530000D01*
X97040000Y-130530000D02*
X91960000Y-130530000D01*
X97040000Y-79730000D02*
X94500000Y-79730000D01*
X93230000Y-79450000D02*
X91680000Y-79450000D01*
X94500000Y-79730000D02*
X94500000Y-82270000D01*
X94500000Y-82270000D02*
X91960000Y-82270000D01*
X91680000Y-79450000D02*
X91680000Y-81000000D01*
X83792266Y-137389832D02*
X32992266Y-137389832D01*
X35532266Y-142469832D02*
X83792266Y-142469832D01*
X83792266Y-137389832D02*
X83792266Y-142469832D01*
X32992266Y-137389832D02*
X32992266Y-139929832D01*
X32712266Y-141199832D02*
X32712266Y-142749832D01*
X32992266Y-139929832D02*
X35532266Y-139929832D01*
X35532266Y-139929832D02*
X35532266Y-142469832D01*
X32712266Y-142749832D02*
X34262266Y-142749832D01*
X32992266Y-71309832D02*
X83792266Y-71309832D01*
X81252266Y-66229832D02*
X32992266Y-66229832D01*
X32992266Y-71309832D02*
X32992266Y-66229832D01*
X83792266Y-71309832D02*
X83792266Y-68769832D01*
X84072266Y-67499832D02*
X84072266Y-65949832D01*
X83792266Y-68769832D02*
X81252266Y-68769832D01*
X81252266Y-68769832D02*
X81252266Y-66229832D01*
X84072266Y-65949832D02*
X82522266Y-65949832D01*
X67150000Y-24750000D02*
X67150000Y-27450000D01*
X68650000Y-24750000D02*
X68650000Y-27450000D01*
X67750000Y-26250000D02*
X68000000Y-26250000D01*
X68000000Y-26250000D02*
X67850000Y-26100000D01*
X68250000Y-26000000D02*
X67550000Y-26000000D01*
X67900000Y-26350000D02*
X67900000Y-26700000D01*
X67900000Y-26000000D02*
X68250000Y-26350000D01*
X68250000Y-26350000D02*
X67550000Y-26350000D01*
X67550000Y-26350000D02*
X67900000Y-26000000D01*
X95550000Y-67225000D02*
X95550000Y-66025000D01*
X97300000Y-66025000D02*
X97300000Y-67225000D01*
X28000000Y-23375000D02*
X26800000Y-23375000D01*
X26800000Y-21625000D02*
X28000000Y-21625000D01*
X52894454Y-98657017D02*
X53742983Y-99505546D01*
X52505546Y-100742983D02*
X51657017Y-99894454D01*
X24975000Y-37200000D02*
X24975000Y-38400000D01*
X23225000Y-38400000D02*
X23225000Y-37200000D01*
X75085000Y-129750000D02*
X75085000Y-128550000D01*
X76835000Y-128550000D02*
X76835000Y-129750000D01*
X73525000Y-33500000D02*
X73525000Y-34700000D01*
X71775000Y-34700000D02*
X71775000Y-33500000D01*
X78975000Y-128550000D02*
X78975000Y-129750000D01*
X77225000Y-129750000D02*
X77225000Y-128550000D01*
X29144714Y-28764000D02*
G75*
G03X29144714Y-28764000I-1750714J0D01*
G01*
X30619000Y-31989000D02*
X30494000Y-31989000D01*
X24169000Y-31989000D02*
X24294000Y-31989000D01*
X24169000Y-25539000D02*
X24294000Y-25539000D01*
X30494000Y-25539000D02*
X30619000Y-25539000D01*
X28794000Y-31989000D02*
X25994000Y-31989000D01*
X30619000Y-25539000D02*
X30619000Y-31989000D01*
X28794000Y-25539000D02*
X25994000Y-25539000D01*
X24169000Y-25539000D02*
X24169000Y-31989000D01*
X96472584Y-138769032D02*
G75*
G03X96472584Y-138769032I-1750714J0D01*
G01*
X97946870Y-141994032D02*
X97821870Y-141994032D01*
X91496870Y-141994032D02*
X91621870Y-141994032D01*
X91496870Y-135544032D02*
X91621870Y-135544032D01*
X97821870Y-135544032D02*
X97946870Y-135544032D01*
X96121870Y-141994032D02*
X93321870Y-141994032D01*
X97946870Y-135544032D02*
X97946870Y-141994032D01*
X96121870Y-135544032D02*
X93321870Y-135544032D01*
X91496870Y-135544032D02*
X91496870Y-141994032D01*
D15*
X83017200Y-42521700D02*
X84147500Y-42521700D01*
X83017200Y-39715000D02*
X84147500Y-39715000D01*
X83017200Y-51919700D02*
X84147500Y-51919700D01*
X83017200Y-49113000D02*
X84147500Y-49113000D01*
D14*
X26670000Y-54110000D02*
X26670000Y-46490000D01*
X26670000Y-46490000D02*
X21590000Y-46490000D01*
X21590000Y-46490000D02*
X21590000Y-56650000D01*
X21590000Y-56650000D02*
X24130000Y-56650000D01*
X25400000Y-56930000D02*
X26950000Y-56930000D01*
X24130000Y-56650000D02*
X24130000Y-54110000D01*
X24130000Y-54110000D02*
X26670000Y-54110000D01*
X26950000Y-56930000D02*
X26950000Y-55380000D01*
D15*
X40956900Y-17630500D02*
X39750400Y-17630500D01*
X43154000Y-17630500D02*
X41960200Y-17630500D01*
X45363800Y-17630500D02*
X44373200Y-17630500D01*
X47573600Y-17630500D02*
X46367100Y-17630500D01*
X39750400Y-19395800D02*
X39902800Y-19395800D01*
X39902800Y-19395800D02*
X39902800Y-19675200D01*
X39750400Y-17643200D02*
X39750400Y-19395800D01*
X47586300Y-19395800D02*
X47421200Y-19395800D01*
X47421200Y-19395800D02*
X47421200Y-19637100D01*
X47573600Y-17643200D02*
X47573600Y-19383100D01*
X47433900Y-19637100D02*
X39890100Y-19637100D01*
X39890100Y-23536000D02*
X40360000Y-23536000D01*
X47421200Y-23536000D02*
X46964000Y-23536000D01*
X39890100Y-19637100D02*
X39890100Y-23536000D01*
X47433900Y-19637100D02*
X47433900Y-23536000D01*
X43662000Y-23536000D02*
X42658700Y-23536000D01*
X43662000Y-23536000D02*
X44665300Y-23536000D01*
D14*
X34663760Y-33624840D02*
X34663760Y-33673100D01*
X35364800Y-36423820D02*
X34663760Y-36423820D01*
X34663760Y-36423820D02*
X34663760Y-36174900D01*
X34663760Y-33624840D02*
X34663760Y-33424180D01*
X34663760Y-33424180D02*
X35364800Y-33424180D01*
X32550000Y-37325000D02*
X33750000Y-37325000D01*
X33750000Y-39075000D02*
X32550000Y-39075000D01*
X40575000Y-55450000D02*
X40575000Y-54250000D01*
X42325000Y-54250000D02*
X42325000Y-55450000D01*
X32503571Y-48375000D02*
X33703571Y-48375000D01*
X33703571Y-50125000D02*
X32503571Y-50125000D01*
X36325000Y-55442858D02*
X36325000Y-54242858D01*
X38075000Y-54242858D02*
X38075000Y-55442858D01*
X47625000Y-35700000D02*
X47625000Y-36900000D01*
X45875000Y-36900000D02*
X45875000Y-35700000D01*
X34175000Y-55450000D02*
X34175000Y-54250000D01*
X35925000Y-54250000D02*
X35925000Y-55450000D01*
X32540712Y-41725000D02*
X33740712Y-41725000D01*
X33740712Y-43475000D02*
X32540712Y-43475000D01*
X32486070Y-50675000D02*
X33686070Y-50675000D01*
X33686070Y-52425000D02*
X32486070Y-52425000D01*
X53975000Y-55480000D02*
X53975000Y-54280000D01*
X55725000Y-54280000D02*
X55725000Y-55480000D01*
X51875000Y-55480000D02*
X51875000Y-54280000D01*
X53625000Y-54280000D02*
X53625000Y-55480000D01*
X32545354Y-39475000D02*
X33745354Y-39475000D01*
X33745354Y-41225000D02*
X32545354Y-41225000D01*
X46865000Y-50021000D02*
X46865000Y-49496000D01*
X39615000Y-50021000D02*
X39615000Y-49496000D01*
X39615000Y-42771000D02*
X39615000Y-43296000D01*
X46865000Y-42771000D02*
X46865000Y-43296000D01*
X46865000Y-50021000D02*
X46340000Y-50021000D01*
X46865000Y-42771000D02*
X46340000Y-42771000D01*
X39615000Y-42771000D02*
X40140000Y-42771000D01*
X39615000Y-50021000D02*
X40140000Y-50021000D01*
X46865000Y-49496000D02*
X48240000Y-49496000D01*
X54050000Y-47746000D02*
X50850000Y-47746000D01*
X50850000Y-47746000D02*
X50850000Y-45146000D01*
X50850000Y-45146000D02*
X54050000Y-45146000D01*
X54050000Y-45146000D02*
X54050000Y-47746000D01*
X57470000Y-49910000D02*
X56470000Y-49910000D01*
X56470000Y-51610000D02*
X57470000Y-51610000D01*
X44550000Y-55450000D02*
X44550000Y-54450000D01*
X42850000Y-54450000D02*
X42850000Y-55450000D01*
X52600000Y-40050000D02*
X51600000Y-40050000D01*
X51600000Y-41750000D02*
X52600000Y-41750000D01*
X52550000Y-42150000D02*
X51550000Y-42150000D01*
X51550000Y-43850000D02*
X52550000Y-43850000D01*
X46700000Y-55450000D02*
X46700000Y-54450000D01*
X45000000Y-54450000D02*
X45000000Y-55450000D01*
X56900000Y-46600000D02*
X55900000Y-46600000D01*
X55900000Y-48300000D02*
X56900000Y-48300000D01*
X56900000Y-44350000D02*
X55900000Y-44350000D01*
X55900000Y-46050000D02*
X56900000Y-46050000D01*
X60390000Y-36630000D02*
X60390000Y-41710000D01*
X60110000Y-33810000D02*
X61660000Y-33810000D01*
X62930000Y-34090000D02*
X62930000Y-36630000D01*
X62930000Y-36630000D02*
X60390000Y-36630000D01*
X60390000Y-41710000D02*
X65470000Y-41710000D01*
X65470000Y-41710000D02*
X65470000Y-36630000D01*
X60110000Y-33810000D02*
X60110000Y-35360000D01*
X65470000Y-34090000D02*
X62930000Y-34090000D01*
X65470000Y-36630000D02*
X65470000Y-34090000D01*
X40175000Y-54250000D02*
X40175000Y-55450000D01*
X38425000Y-55450000D02*
X38425000Y-54250000D01*
X32458213Y-46275000D02*
X33658213Y-46275000D01*
X33658213Y-48025000D02*
X32458213Y-48025000D01*
X51965000Y-35680000D02*
X51965000Y-36880000D01*
X50215000Y-36880000D02*
X50215000Y-35680000D01*
X39611000Y-32122000D02*
X39611000Y-30922000D01*
X41361000Y-30922000D02*
X41361000Y-32122000D01*
X41389000Y-32110000D02*
X41389000Y-30910000D01*
X43139000Y-30910000D02*
X43139000Y-32110000D01*
X37125000Y-32122000D02*
X37125000Y-30922000D01*
X38875000Y-30922000D02*
X38875000Y-32122000D01*
X37233000Y-35524000D02*
X37233000Y-34324000D01*
X38983000Y-34324000D02*
X38983000Y-35524000D01*
X37233000Y-38826000D02*
X37233000Y-37626000D01*
X38983000Y-37626000D02*
X38983000Y-38826000D01*
X35125000Y-38850000D02*
X35125000Y-37650000D01*
X36875000Y-37650000D02*
X36875000Y-38850000D01*
X34500000Y-22225000D02*
X35700000Y-22225000D01*
X35700000Y-23975000D02*
X34500000Y-23975000D01*
X36700000Y-20050000D02*
X34000000Y-20050000D01*
X36700000Y-21550000D02*
X34000000Y-21550000D01*
X35200000Y-20650000D02*
X35200000Y-20900000D01*
X35200000Y-20900000D02*
X35350000Y-20750000D01*
X35450000Y-21150000D02*
X35450000Y-20450000D01*
X35100000Y-20800000D02*
X34750000Y-20800000D01*
X35450000Y-20800000D02*
X35100000Y-21150000D01*
X35100000Y-21150000D02*
X35100000Y-20450000D01*
X35100000Y-20450000D02*
X35450000Y-20800000D01*
X49135000Y-55490000D02*
X49135000Y-54290000D01*
X50885000Y-54290000D02*
X50885000Y-55490000D01*
X47065000Y-55490000D02*
X47065000Y-54290000D01*
X48815000Y-54290000D02*
X48815000Y-55490000D01*
X48815000Y-57640000D02*
X48815000Y-58840000D01*
X47065000Y-58840000D02*
X47065000Y-57640000D01*
X70040500Y-40640000D02*
X69659500Y-40640000D01*
X71056500Y-40640000D02*
X70675500Y-40640000D01*
X70675500Y-40640000D02*
X70040500Y-41021000D01*
X70040500Y-41021000D02*
X70040500Y-40259000D01*
X70040500Y-40259000D02*
X70675500Y-40640000D01*
X70675500Y-41148000D02*
X70675500Y-40132000D01*
X72358000Y-39740000D02*
X68818000Y-39740000D01*
X72358000Y-41540000D02*
X68818000Y-41540000D01*
X22098000Y-76771500D02*
X22098000Y-77152500D01*
X22098000Y-75755500D02*
X22098000Y-76136500D01*
X22098000Y-76136500D02*
X22479000Y-76771500D01*
X22479000Y-76771500D02*
X21717000Y-76771500D01*
X21717000Y-76771500D02*
X22098000Y-76136500D01*
X22606000Y-76136500D02*
X21590000Y-76136500D01*
X21198000Y-74454000D02*
X21198000Y-77994000D01*
X22998000Y-74454000D02*
X22998000Y-77994000D01*
X93218000Y-76771500D02*
X93218000Y-77152500D01*
X93218000Y-75755500D02*
X93218000Y-76136500D01*
X93218000Y-76136500D02*
X93599000Y-76771500D01*
X93599000Y-76771500D02*
X92837000Y-76771500D01*
X92837000Y-76771500D02*
X93218000Y-76136500D01*
X93726000Y-76136500D02*
X92710000Y-76136500D01*
X92318000Y-74454000D02*
X92318000Y-77994000D01*
X94118000Y-74454000D02*
X94118000Y-77994000D01*
X95760000Y-76777500D02*
X95760000Y-77158500D01*
X95760000Y-75761500D02*
X95760000Y-76142500D01*
X95760000Y-76142500D02*
X96141000Y-76777500D01*
X96141000Y-76777500D02*
X95379000Y-76777500D01*
X95379000Y-76777500D02*
X95760000Y-76142500D01*
X96268000Y-76142500D02*
X95252000Y-76142500D01*
X94860000Y-74460000D02*
X94860000Y-78000000D01*
X96660000Y-74460000D02*
X96660000Y-78000000D01*
X34100000Y-74817500D02*
X34100000Y-75198500D01*
X34100000Y-73801500D02*
X34100000Y-74182500D01*
X34100000Y-74182500D02*
X34481000Y-74817500D01*
X34481000Y-74817500D02*
X33719000Y-74817500D01*
X33719000Y-74817500D02*
X34100000Y-74182500D01*
X34608000Y-74182500D02*
X33592000Y-74182500D01*
X33200000Y-72500000D02*
X33200000Y-76040000D01*
X35000000Y-72500000D02*
X35000000Y-76040000D01*
X75250000Y-33082500D02*
X75250000Y-32701500D01*
X75250000Y-34098500D02*
X75250000Y-33717500D01*
X75250000Y-33717500D02*
X74869000Y-33082500D01*
X74869000Y-33082500D02*
X75631000Y-33082500D01*
X75631000Y-33082500D02*
X75250000Y-33717500D01*
X74742000Y-33717500D02*
X75758000Y-33717500D01*
X76150000Y-35400000D02*
X76150000Y-31860000D01*
X74350000Y-35400000D02*
X74350000Y-31860000D01*
X52542500Y-29800000D02*
X52161500Y-29800000D01*
X53558500Y-29800000D02*
X53177500Y-29800000D01*
X53177500Y-29800000D02*
X52542500Y-30181000D01*
X52542500Y-30181000D02*
X52542500Y-29419000D01*
X52542500Y-29419000D02*
X53177500Y-29800000D01*
X53177500Y-30308000D02*
X53177500Y-29292000D01*
X54860000Y-28900000D02*
X51320000Y-28900000D01*
X54860000Y-30700000D02*
X51320000Y-30700000D01*
X87109600Y-21960000D02*
X84569600Y-21960000D01*
X84569600Y-21960000D02*
X84569600Y-24754000D01*
X87109600Y-24754000D02*
X84569600Y-24754000D01*
X87109600Y-21960000D02*
X87109600Y-24754000D01*
X82105800Y-21960000D02*
X79565800Y-21960000D01*
X79565800Y-21960000D02*
X79565800Y-24754000D01*
X82105800Y-24754000D02*
X79565800Y-24754000D01*
X82105800Y-21960000D02*
X82105800Y-24754000D01*
X78245000Y-30723000D02*
X78245000Y-27675000D01*
X78245000Y-30723000D02*
X88430000Y-30723000D01*
X78245000Y-30723000D02*
X77737000Y-30723000D01*
X77737000Y-30723000D02*
X77737000Y-25897000D01*
X77737000Y-25897000D02*
X78245000Y-26151000D01*
X77737000Y-19039000D02*
X78245000Y-19293000D01*
X78245000Y-19293000D02*
X78245000Y-18277000D01*
X77737000Y-20690000D02*
X78245000Y-20436000D01*
X78245000Y-20436000D02*
X78245000Y-19293000D01*
X77737000Y-20690000D02*
X77737000Y-19039000D01*
X82867800Y-18277000D02*
X82867800Y-20182000D01*
X78803800Y-24754000D02*
X78803800Y-20182000D01*
X82867800Y-18277000D02*
X78803800Y-18277000D01*
X78803800Y-18277000D02*
X78245000Y-18277000D01*
X83807600Y-18277000D02*
X83807600Y-20182000D01*
X83807600Y-18277000D02*
X82867800Y-18277000D01*
X87871600Y-24754000D02*
X87871600Y-20182000D01*
X88430000Y-18277000D02*
X87871600Y-18277000D01*
X87871600Y-18277000D02*
X83807600Y-18277000D01*
X82867800Y-20182000D02*
X78803800Y-20182000D01*
X82867800Y-20182000D02*
X82867800Y-24754000D01*
X78803800Y-20182000D02*
X78803800Y-18277000D01*
X83807600Y-20182000D02*
X87871600Y-20182000D01*
X83807600Y-20182000D02*
X83807600Y-24754000D01*
X87871600Y-20182000D02*
X87871600Y-18277000D01*
X79184800Y-20817000D02*
X79184800Y-23992000D01*
X79184800Y-20817000D02*
X82486800Y-20817000D01*
X82486800Y-20817000D02*
X82486800Y-23992000D01*
X84188600Y-20817000D02*
X84188600Y-23992000D01*
X84188600Y-20817000D02*
X87490600Y-20817000D01*
X87490600Y-20817000D02*
X87490600Y-23992000D01*
X87490600Y-23992000D02*
X87109600Y-23992000D01*
X84188600Y-23992000D02*
X84569600Y-23992000D01*
X82486800Y-23992000D02*
X82105800Y-23992000D01*
X79184800Y-23992000D02*
X79565800Y-23992000D01*
X88430000Y-18277000D02*
X88430000Y-25135000D01*
X88430000Y-25135000D02*
X88430000Y-27675000D01*
X78245000Y-26151000D02*
X78245000Y-25135000D01*
X78245000Y-25135000D02*
X78245000Y-20436000D01*
X88430000Y-27675000D02*
X78245000Y-27675000D01*
X88430000Y-27675000D02*
X88430000Y-30723000D01*
X78245000Y-27675000D02*
X78245000Y-26151000D01*
X82867800Y-27929000D02*
X82867800Y-30469000D01*
X82867800Y-30469000D02*
X78803800Y-30469000D01*
X78803800Y-30469000D02*
X78803800Y-27929000D01*
X78803800Y-27929000D02*
X82867800Y-27929000D01*
X83807600Y-27929000D02*
X83807600Y-30469000D01*
X83807600Y-27929000D02*
X87871600Y-27929000D01*
X87871600Y-27929000D02*
X87871600Y-30469000D01*
X83807600Y-30469000D02*
X87871600Y-30469000D01*
X82461400Y-28945000D02*
X79413400Y-29580000D01*
X82334400Y-28818000D02*
X79286400Y-29453000D01*
X87465200Y-28945000D02*
X84414660Y-29580000D01*
X87338200Y-28818000D02*
X84290200Y-29453000D01*
X87871600Y-24754000D02*
X87490600Y-24754000D01*
X83807600Y-24754000D02*
X84188600Y-24754000D01*
X84188600Y-24754000D02*
X87490600Y-24754000D01*
X88430000Y-25135000D02*
X87490600Y-25135000D01*
X87490600Y-25135000D02*
X84188600Y-25135000D01*
X84188600Y-25135000D02*
X82486800Y-25135000D01*
X78245000Y-25135000D02*
X79184800Y-25135000D01*
X79184800Y-25135000D02*
X82486800Y-25135000D01*
X78803800Y-24754000D02*
X79184800Y-24754000D01*
X82867800Y-24754000D02*
X82486800Y-24754000D01*
X82486800Y-24754000D02*
X79184800Y-24754000D01*
X79367028Y-28585430D02*
G75*
G03X79314340Y-29552060I452772J-509430D01*
G01*
X82309728Y-28665104D02*
G75*
G03X79321960Y-28617340I-1524728J-1905496D01*
G01*
X79310589Y-29556844D02*
G75*
G03X82461400Y-29503800I1553151J1348444D01*
G01*
X82410097Y-29553481D02*
G75*
G03X82268360Y-28627500I-431297J407821D01*
G01*
X84370851Y-28582890D02*
G75*
G03X84315600Y-29552060I452749J-511970D01*
G01*
X87310988Y-28665104D02*
G75*
G03X84323220Y-28617340I-1524728J-1905496D01*
G01*
X84308427Y-29561847D02*
G75*
G03X87465200Y-29503800I1554033J1353447D01*
G01*
X87414520Y-29551019D02*
G75*
G03X87269620Y-28627500I-431920J405359D01*
G01*
X13756667Y-157772381D02*
X13423333Y-157296190D01*
X13185238Y-157772381D02*
X13185238Y-156772381D01*
X13566191Y-156772381D01*
X13661429Y-156820000D01*
X13709048Y-156867619D01*
X13756667Y-156962857D01*
X13756667Y-157105714D01*
X13709048Y-157200952D01*
X13661429Y-157248571D01*
X13566191Y-157296190D01*
X13185238Y-157296190D01*
X14185238Y-157248571D02*
X14518572Y-157248571D01*
X14661429Y-157772381D02*
X14185238Y-157772381D01*
X14185238Y-156772381D01*
X14661429Y-156772381D01*
X15423334Y-157248571D02*
X15090000Y-157248571D01*
X15090000Y-157772381D02*
X15090000Y-156772381D01*
X15566191Y-156772381D01*
X16090000Y-156772381D02*
X16090000Y-157010476D01*
X15851905Y-156915238D02*
X16090000Y-157010476D01*
X16328096Y-156915238D01*
X15947143Y-157200952D02*
X16090000Y-157010476D01*
X16232858Y-157200952D01*
X16851905Y-156772381D02*
X16851905Y-157010476D01*
X16613810Y-156915238D02*
X16851905Y-157010476D01*
X17090001Y-156915238D01*
X16709048Y-157200952D02*
X16851905Y-157010476D01*
X16994763Y-157200952D01*
X97636667Y-157252381D02*
X97303333Y-156776190D01*
X97065238Y-157252381D02*
X97065238Y-156252381D01*
X97446191Y-156252381D01*
X97541429Y-156300000D01*
X97589048Y-156347619D01*
X97636667Y-156442857D01*
X97636667Y-156585714D01*
X97589048Y-156680952D01*
X97541429Y-156728571D01*
X97446191Y-156776190D01*
X97065238Y-156776190D01*
X98065238Y-156728571D02*
X98398572Y-156728571D01*
X98541429Y-157252381D02*
X98065238Y-157252381D01*
X98065238Y-156252381D01*
X98541429Y-156252381D01*
X99303334Y-156728571D02*
X98970000Y-156728571D01*
X98970000Y-157252381D02*
X98970000Y-156252381D01*
X99446191Y-156252381D01*
X99970000Y-156252381D02*
X99970000Y-156490476D01*
X99731905Y-156395238D02*
X99970000Y-156490476D01*
X100208096Y-156395238D01*
X99827143Y-156680952D02*
X99970000Y-156490476D01*
X100112858Y-156680952D01*
X100731905Y-156252381D02*
X100731905Y-156490476D01*
X100493810Y-156395238D02*
X100731905Y-156490476D01*
X100970001Y-156395238D01*
X100589048Y-156680952D02*
X100731905Y-156490476D01*
X100874763Y-156680952D01*
X18616667Y-17343281D02*
X18283333Y-16867090D01*
X18045238Y-17343281D02*
X18045238Y-16343281D01*
X18426191Y-16343281D01*
X18521429Y-16390900D01*
X18569048Y-16438519D01*
X18616667Y-16533757D01*
X18616667Y-16676614D01*
X18569048Y-16771852D01*
X18521429Y-16819471D01*
X18426191Y-16867090D01*
X18045238Y-16867090D01*
X19045238Y-16819471D02*
X19378572Y-16819471D01*
X19521429Y-17343281D02*
X19045238Y-17343281D01*
X19045238Y-16343281D01*
X19521429Y-16343281D01*
X20283334Y-16819471D02*
X19950000Y-16819471D01*
X19950000Y-17343281D02*
X19950000Y-16343281D01*
X20426191Y-16343281D01*
X20950000Y-16343281D02*
X20950000Y-16581376D01*
X20711905Y-16486138D02*
X20950000Y-16581376D01*
X21188096Y-16486138D01*
X20807143Y-16771852D02*
X20950000Y-16581376D01*
X21092858Y-16771852D01*
X21711905Y-16343281D02*
X21711905Y-16581376D01*
X21473810Y-16486138D02*
X21711905Y-16581376D01*
X21950001Y-16486138D01*
X21569048Y-16771852D02*
X21711905Y-16581376D01*
X21854763Y-16771852D01*
X27052381Y-106661905D02*
X27861905Y-106661905D01*
X27957143Y-106614286D01*
X28004762Y-106566667D01*
X28052381Y-106471429D01*
X28052381Y-106280952D01*
X28004762Y-106185714D01*
X27957143Y-106138095D01*
X27861905Y-106090476D01*
X27052381Y-106090476D01*
X27052381Y-105138095D02*
X27052381Y-105614286D01*
X27528571Y-105661905D01*
X27480952Y-105614286D01*
X27433333Y-105519048D01*
X27433333Y-105280952D01*
X27480952Y-105185714D01*
X27528571Y-105138095D01*
X27623810Y-105090476D01*
X27861905Y-105090476D01*
X27957143Y-105138095D01*
X28004762Y-105185714D01*
X28052381Y-105280952D01*
X28052381Y-105519048D01*
X28004762Y-105614286D01*
X27957143Y-105661905D01*
X40257143Y-113416667D02*
X40733334Y-113416667D01*
X40161905Y-113702381D02*
X40495238Y-112702381D01*
X40828572Y-113702381D01*
X41114286Y-113654762D02*
X41257143Y-113702381D01*
X41495239Y-113702381D01*
X41590477Y-113654762D01*
X41638096Y-113607143D01*
X41685715Y-113511905D01*
X41685715Y-113416667D01*
X41638096Y-113321429D01*
X41590477Y-113273810D01*
X41495239Y-113226190D01*
X41304762Y-113178571D01*
X41209524Y-113130952D01*
X41161905Y-113083333D01*
X41114286Y-112988095D01*
X41114286Y-112892857D01*
X41161905Y-112797619D01*
X41209524Y-112750000D01*
X41304762Y-112702381D01*
X41542858Y-112702381D01*
X41685715Y-112750000D01*
X42542858Y-113035714D02*
X42542858Y-113702381D01*
X42304762Y-112654762D02*
X42066667Y-113369048D01*
X42685715Y-113369048D01*
X43638096Y-113607143D02*
X43590477Y-113654762D01*
X43447620Y-113702381D01*
X43352382Y-113702381D01*
X43209524Y-113654762D01*
X43114286Y-113559524D01*
X43066667Y-113464286D01*
X43019048Y-113273810D01*
X43019048Y-113130952D01*
X43066667Y-112940476D01*
X43114286Y-112845238D01*
X43209524Y-112750000D01*
X43352382Y-112702381D01*
X43447620Y-112702381D01*
X43590477Y-112750000D01*
X43638096Y-112797619D01*
X44590477Y-113702381D02*
X44019048Y-113702381D01*
X44304762Y-113702381D02*
X44304762Y-112702381D01*
X44209524Y-112845238D01*
X44114286Y-112940476D01*
X44019048Y-112988095D01*
X45447620Y-112702381D02*
X45257143Y-112702381D01*
X45161905Y-112750000D01*
X45114286Y-112797619D01*
X45019048Y-112940476D01*
X44971429Y-113130952D01*
X44971429Y-113511905D01*
X45019048Y-113607143D01*
X45066667Y-113654762D01*
X45161905Y-113702381D01*
X45352382Y-113702381D01*
X45447620Y-113654762D01*
X45495239Y-113607143D01*
X45542858Y-113511905D01*
X45542858Y-113273810D01*
X45495239Y-113178571D01*
X45447620Y-113130952D01*
X45352382Y-113083333D01*
X45161905Y-113083333D01*
X45066667Y-113130952D01*
X45019048Y-113178571D01*
X44971429Y-113273810D01*
X45971429Y-113702381D02*
X45971429Y-112702381D01*
X46304763Y-113416667D01*
X46638096Y-112702381D01*
X46638096Y-113702381D01*
X47638096Y-113702381D02*
X47066667Y-113702381D01*
X47352381Y-113702381D02*
X47352381Y-112702381D01*
X47257143Y-112845238D01*
X47161905Y-112940476D01*
X47066667Y-112988095D01*
X48495239Y-112702381D02*
X48304762Y-112702381D01*
X48209524Y-112750000D01*
X48161905Y-112797619D01*
X48066667Y-112940476D01*
X48019048Y-113130952D01*
X48019048Y-113511905D01*
X48066667Y-113607143D01*
X48114286Y-113654762D01*
X48209524Y-113702381D01*
X48400001Y-113702381D01*
X48495239Y-113654762D01*
X48542858Y-113607143D01*
X48590477Y-113511905D01*
X48590477Y-113273810D01*
X48542858Y-113178571D01*
X48495239Y-113130952D01*
X48400001Y-113083333D01*
X48209524Y-113083333D01*
X48114286Y-113130952D01*
X48066667Y-113178571D01*
X48019048Y-113273810D01*
X48971429Y-113654762D02*
X49114286Y-113702381D01*
X49352382Y-113702381D01*
X49447620Y-113654762D01*
X49495239Y-113607143D01*
X49542858Y-113511905D01*
X49542858Y-113416667D01*
X49495239Y-113321429D01*
X49447620Y-113273810D01*
X49352382Y-113226190D01*
X49161905Y-113178571D01*
X49066667Y-113130952D01*
X49019048Y-113083333D01*
X48971429Y-112988095D01*
X48971429Y-112892857D01*
X49019048Y-112797619D01*
X49066667Y-112750000D01*
X49161905Y-112702381D01*
X49400001Y-112702381D01*
X49542858Y-112750000D01*
X29607139Y-45352381D02*
X29273805Y-44876190D01*
X29035710Y-45352381D02*
X29035710Y-44352381D01*
X29416663Y-44352381D01*
X29511901Y-44400000D01*
X29559520Y-44447619D01*
X29607139Y-44542857D01*
X29607139Y-44685714D01*
X29559520Y-44780952D01*
X29511901Y-44828571D01*
X29416663Y-44876190D01*
X29035710Y-44876190D01*
X29940472Y-44352381D02*
X30559520Y-44352381D01*
X30226186Y-44733333D01*
X30369044Y-44733333D01*
X30464282Y-44780952D01*
X30511901Y-44828571D01*
X30559520Y-44923810D01*
X30559520Y-45161905D01*
X30511901Y-45257143D01*
X30464282Y-45304762D01*
X30369044Y-45352381D01*
X30083329Y-45352381D01*
X29988091Y-45304762D01*
X29940472Y-45257143D01*
X31416663Y-44685714D02*
X31416663Y-45352381D01*
X31178567Y-44304762D02*
X30940472Y-45019048D01*
X31559520Y-45019048D01*
X26693905Y-81732381D02*
X26693905Y-80732381D01*
X27074858Y-80732381D01*
X27170096Y-80780000D01*
X27217715Y-80827619D01*
X27265334Y-80922857D01*
X27265334Y-81065714D01*
X27217715Y-81160952D01*
X27170096Y-81208571D01*
X27074858Y-81256190D01*
X26693905Y-81256190D01*
X27598667Y-80732381D02*
X28217715Y-80732381D01*
X27884381Y-81113333D01*
X28027239Y-81113333D01*
X28122477Y-81160952D01*
X28170096Y-81208571D01*
X28217715Y-81303810D01*
X28217715Y-81541905D01*
X28170096Y-81637143D01*
X28122477Y-81684762D01*
X28027239Y-81732381D01*
X27741524Y-81732381D01*
X27646286Y-81684762D01*
X27598667Y-81637143D01*
X49292381Y-40082857D02*
X48816190Y-40416191D01*
X49292381Y-40654286D02*
X48292381Y-40654286D01*
X48292381Y-40273333D01*
X48340000Y-40178095D01*
X48387619Y-40130476D01*
X48482857Y-40082857D01*
X48625714Y-40082857D01*
X48720952Y-40130476D01*
X48768571Y-40178095D01*
X48816190Y-40273333D01*
X48816190Y-40654286D01*
X48292381Y-39749524D02*
X48292381Y-39130476D01*
X48673333Y-39463810D01*
X48673333Y-39320952D01*
X48720952Y-39225714D01*
X48768571Y-39178095D01*
X48863810Y-39130476D01*
X49101905Y-39130476D01*
X49197143Y-39178095D01*
X49244762Y-39225714D01*
X49292381Y-39320952D01*
X49292381Y-39606667D01*
X49244762Y-39701905D01*
X49197143Y-39749524D01*
X49292381Y-38178095D02*
X49292381Y-38749524D01*
X49292381Y-38463810D02*
X48292381Y-38463810D01*
X48435238Y-38559048D01*
X48530476Y-38654286D01*
X48578095Y-38749524D01*
X76445184Y-116068512D02*
X77017604Y-116640932D01*
X77118619Y-116674604D01*
X77185962Y-116674604D01*
X77286977Y-116640932D01*
X77421665Y-116506244D01*
X77455337Y-116405229D01*
X77455337Y-116337886D01*
X77421665Y-116236871D01*
X76849245Y-115664451D01*
X77724710Y-115260389D02*
X78196115Y-115731794D01*
X77286977Y-115159375D02*
X77623695Y-115832810D01*
X78061428Y-115395077D01*
X52717143Y-49532381D02*
X52383809Y-49056190D01*
X52145714Y-49532381D02*
X52145714Y-48532381D01*
X52526667Y-48532381D01*
X52621905Y-48580000D01*
X52669524Y-48627619D01*
X52717143Y-48722857D01*
X52717143Y-48865714D01*
X52669524Y-48960952D01*
X52621905Y-49008571D01*
X52526667Y-49056190D01*
X52145714Y-49056190D01*
X53669524Y-49532381D02*
X53098095Y-49532381D01*
X53383809Y-49532381D02*
X53383809Y-48532381D01*
X53288571Y-48675238D01*
X53193333Y-48770476D01*
X53098095Y-48818095D01*
X54002857Y-48532381D02*
X54669524Y-48532381D01*
X54240952Y-49532381D01*
X81125550Y-115265313D02*
X81226565Y-114692893D01*
X80721488Y-114861252D02*
X81428595Y-114154145D01*
X81697970Y-114423519D01*
X81731641Y-114524535D01*
X81731641Y-114591878D01*
X81697970Y-114692893D01*
X81596955Y-114793908D01*
X81495939Y-114827580D01*
X81428596Y-114827580D01*
X81327581Y-114793908D01*
X81058206Y-114524534D01*
X81798985Y-115938748D02*
X81394924Y-115534687D01*
X81596954Y-115736717D02*
X82304061Y-115029610D01*
X82135702Y-115063282D01*
X82001015Y-115063282D01*
X81900000Y-115029610D01*
X82943824Y-115669374D02*
X83011168Y-115736718D01*
X83044840Y-115837733D01*
X83044840Y-115905076D01*
X83011168Y-116006092D01*
X82910153Y-116174450D01*
X82741794Y-116342810D01*
X82573435Y-116443825D01*
X82472420Y-116477496D01*
X82405076Y-116477496D01*
X82304061Y-116443825D01*
X82236717Y-116376481D01*
X82203045Y-116275465D01*
X82203045Y-116208122D01*
X82236717Y-116107107D01*
X82337732Y-115938748D01*
X82506092Y-115770389D01*
X82674450Y-115669374D01*
X82775465Y-115635702D01*
X82842809Y-115635702D01*
X82943824Y-115669374D01*
X88057143Y-44406666D02*
X88104762Y-44454285D01*
X88152381Y-44597142D01*
X88152381Y-44692380D01*
X88104762Y-44835238D01*
X88009524Y-44930476D01*
X87914286Y-44978095D01*
X87723810Y-45025714D01*
X87580952Y-45025714D01*
X87390476Y-44978095D01*
X87295238Y-44930476D01*
X87200000Y-44835238D01*
X87152381Y-44692380D01*
X87152381Y-44597142D01*
X87200000Y-44454285D01*
X87247619Y-44406666D01*
X87247619Y-44025714D02*
X87200000Y-43978095D01*
X87152381Y-43882857D01*
X87152381Y-43644761D01*
X87200000Y-43549523D01*
X87247619Y-43501904D01*
X87342857Y-43454285D01*
X87438095Y-43454285D01*
X87580952Y-43501904D01*
X88152381Y-44073333D01*
X88152381Y-43454285D01*
X88997143Y-46480666D02*
X89044762Y-46528285D01*
X89092381Y-46671142D01*
X89092381Y-46766380D01*
X89044762Y-46909238D01*
X88949524Y-47004476D01*
X88854286Y-47052095D01*
X88663810Y-47099714D01*
X88520952Y-47099714D01*
X88330476Y-47052095D01*
X88235238Y-47004476D01*
X88140000Y-46909238D01*
X88092381Y-46766380D01*
X88092381Y-46671142D01*
X88140000Y-46528285D01*
X88187619Y-46480666D01*
X88092381Y-46147333D02*
X88092381Y-45528285D01*
X88473333Y-45861619D01*
X88473333Y-45718761D01*
X88520952Y-45623523D01*
X88568571Y-45575904D01*
X88663810Y-45528285D01*
X88901905Y-45528285D01*
X88997143Y-45575904D01*
X89044762Y-45623523D01*
X89092381Y-45718761D01*
X89092381Y-46004476D01*
X89044762Y-46099714D01*
X88997143Y-46147333D01*
X70332337Y-22852056D02*
X70379956Y-22899675D01*
X70427575Y-23042532D01*
X70427575Y-23137770D01*
X70379956Y-23280628D01*
X70284718Y-23375866D01*
X70189480Y-23423485D01*
X69999004Y-23471104D01*
X69856146Y-23471104D01*
X69665670Y-23423485D01*
X69570432Y-23375866D01*
X69475194Y-23280628D01*
X69427575Y-23137770D01*
X69427575Y-23042532D01*
X69475194Y-22899675D01*
X69522813Y-22852056D01*
X69427575Y-21947294D02*
X69427575Y-22423485D01*
X69903765Y-22471104D01*
X69856146Y-22423485D01*
X69808527Y-22328247D01*
X69808527Y-22090151D01*
X69856146Y-21994913D01*
X69903765Y-21947294D01*
X69999004Y-21899675D01*
X70237099Y-21899675D01*
X70332337Y-21947294D01*
X70379956Y-21994913D01*
X70427575Y-22090151D01*
X70427575Y-22328247D01*
X70379956Y-22423485D01*
X70332337Y-22471104D01*
X97249204Y-132921175D02*
X97201585Y-132968794D01*
X97058728Y-133016413D01*
X96963490Y-133016413D01*
X96820632Y-132968794D01*
X96725394Y-132873556D01*
X96677775Y-132778318D01*
X96630156Y-132587842D01*
X96630156Y-132444984D01*
X96677775Y-132254508D01*
X96725394Y-132159270D01*
X96820632Y-132064032D01*
X96963490Y-132016413D01*
X97058728Y-132016413D01*
X97201585Y-132064032D01*
X97249204Y-132111651D01*
X98106347Y-132016413D02*
X97915870Y-132016413D01*
X97820632Y-132064032D01*
X97773013Y-132111651D01*
X97677775Y-132254508D01*
X97630156Y-132444984D01*
X97630156Y-132825937D01*
X97677775Y-132921175D01*
X97725394Y-132968794D01*
X97820632Y-133016413D01*
X98011109Y-133016413D01*
X98106347Y-132968794D01*
X98153966Y-132921175D01*
X98201585Y-132825937D01*
X98201585Y-132587842D01*
X98153966Y-132492603D01*
X98106347Y-132444984D01*
X98011109Y-132397365D01*
X97820632Y-132397365D01*
X97725394Y-132444984D01*
X97677775Y-132492603D01*
X97630156Y-132587842D01*
X73260337Y-22598056D02*
X73307956Y-22645675D01*
X73355575Y-22788532D01*
X73355575Y-22883770D01*
X73307956Y-23026628D01*
X73212718Y-23121866D01*
X73117480Y-23169485D01*
X72927004Y-23217104D01*
X72784146Y-23217104D01*
X72593670Y-23169485D01*
X72498432Y-23121866D01*
X72403194Y-23026628D01*
X72355575Y-22883770D01*
X72355575Y-22788532D01*
X72403194Y-22645675D01*
X72450813Y-22598056D01*
X72355575Y-22264723D02*
X72355575Y-21598056D01*
X73355575Y-22026628D01*
X87903334Y-37637143D02*
X87855715Y-37684762D01*
X87712858Y-37732381D01*
X87617620Y-37732381D01*
X87474762Y-37684762D01*
X87379524Y-37589524D01*
X87331905Y-37494286D01*
X87284286Y-37303810D01*
X87284286Y-37160952D01*
X87331905Y-36970476D01*
X87379524Y-36875238D01*
X87474762Y-36780000D01*
X87617620Y-36732381D01*
X87712858Y-36732381D01*
X87855715Y-36780000D01*
X87903334Y-36827619D01*
X88474762Y-37160952D02*
X88379524Y-37113333D01*
X88331905Y-37065714D01*
X88284286Y-36970476D01*
X88284286Y-36922857D01*
X88331905Y-36827619D01*
X88379524Y-36780000D01*
X88474762Y-36732381D01*
X88665239Y-36732381D01*
X88760477Y-36780000D01*
X88808096Y-36827619D01*
X88855715Y-36922857D01*
X88855715Y-36970476D01*
X88808096Y-37065714D01*
X88760477Y-37113333D01*
X88665239Y-37160952D01*
X88474762Y-37160952D01*
X88379524Y-37208571D01*
X88331905Y-37256190D01*
X88284286Y-37351429D01*
X88284286Y-37541905D01*
X88331905Y-37637143D01*
X88379524Y-37684762D01*
X88474762Y-37732381D01*
X88665239Y-37732381D01*
X88760477Y-37684762D01*
X88808096Y-37637143D01*
X88855715Y-37541905D01*
X88855715Y-37351429D01*
X88808096Y-37256190D01*
X88760477Y-37208571D01*
X88665239Y-37160952D01*
X83663334Y-45061143D02*
X83615715Y-45108762D01*
X83472858Y-45156381D01*
X83377620Y-45156381D01*
X83234762Y-45108762D01*
X83139524Y-45013524D01*
X83091905Y-44918286D01*
X83044286Y-44727810D01*
X83044286Y-44584952D01*
X83091905Y-44394476D01*
X83139524Y-44299238D01*
X83234762Y-44204000D01*
X83377620Y-44156381D01*
X83472858Y-44156381D01*
X83615715Y-44204000D01*
X83663334Y-44251619D01*
X84139524Y-45156381D02*
X84330000Y-45156381D01*
X84425239Y-45108762D01*
X84472858Y-45061143D01*
X84568096Y-44918286D01*
X84615715Y-44727810D01*
X84615715Y-44346857D01*
X84568096Y-44251619D01*
X84520477Y-44204000D01*
X84425239Y-44156381D01*
X84234762Y-44156381D01*
X84139524Y-44204000D01*
X84091905Y-44251619D01*
X84044286Y-44346857D01*
X84044286Y-44584952D01*
X84091905Y-44680190D01*
X84139524Y-44727810D01*
X84234762Y-44775429D01*
X84425239Y-44775429D01*
X84520477Y-44727810D01*
X84568096Y-44680190D01*
X84615715Y-44584952D01*
X55850000Y-92055077D02*
X55782657Y-92055077D01*
X55647970Y-91987733D01*
X55580626Y-91920390D01*
X55513282Y-91785702D01*
X55513282Y-91651015D01*
X55546954Y-91550000D01*
X55647969Y-91381642D01*
X55748985Y-91280626D01*
X55917344Y-91179611D01*
X56018359Y-91145939D01*
X56153046Y-91145939D01*
X56287733Y-91213283D01*
X56355077Y-91280626D01*
X56422420Y-91415313D01*
X56422420Y-91482657D01*
X56456092Y-92795855D02*
X56052031Y-92391794D01*
X56254061Y-92593824D02*
X56961168Y-91886717D01*
X56792809Y-91920389D01*
X56658122Y-91920389D01*
X56557107Y-91886717D01*
X57600931Y-92526481D02*
X57668275Y-92593825D01*
X57701947Y-92694840D01*
X57701947Y-92762183D01*
X57668275Y-92863199D01*
X57567260Y-93031557D01*
X57398901Y-93199917D01*
X57230542Y-93300932D01*
X57129527Y-93334603D01*
X57062183Y-93334603D01*
X56961168Y-93300932D01*
X56893824Y-93233588D01*
X56860152Y-93132572D01*
X56860152Y-93065229D01*
X56893824Y-92964214D01*
X56994839Y-92795855D01*
X57163199Y-92627496D01*
X57331557Y-92526481D01*
X57432572Y-92492809D01*
X57499916Y-92492809D01*
X57600931Y-92526481D01*
X53879111Y-92834188D02*
X53811768Y-92834188D01*
X53677081Y-92766844D01*
X53609737Y-92699501D01*
X53542393Y-92564813D01*
X53542393Y-92430126D01*
X53576065Y-92329111D01*
X53677080Y-92160753D01*
X53778096Y-92059737D01*
X53946455Y-91958722D01*
X54047470Y-91925050D01*
X54182157Y-91925050D01*
X54316844Y-91992394D01*
X54384188Y-92059737D01*
X54451531Y-92194424D01*
X54451531Y-92261768D01*
X54485203Y-93574966D02*
X54081142Y-93170905D01*
X54283172Y-93372935D02*
X54990279Y-92665828D01*
X54821920Y-92699500D01*
X54687233Y-92699500D01*
X54586218Y-92665828D01*
X55158638Y-94248401D02*
X54754577Y-93844340D01*
X54956607Y-94046370D02*
X55663714Y-93339263D01*
X55495355Y-93372935D01*
X55360668Y-93372935D01*
X55259653Y-93339263D01*
X80787143Y-133312857D02*
X80834762Y-133360476D01*
X80882381Y-133503333D01*
X80882381Y-133598571D01*
X80834762Y-133741429D01*
X80739524Y-133836667D01*
X80644286Y-133884286D01*
X80453810Y-133931905D01*
X80310952Y-133931905D01*
X80120476Y-133884286D01*
X80025238Y-133836667D01*
X79930000Y-133741429D01*
X79882381Y-133598571D01*
X79882381Y-133503333D01*
X79930000Y-133360476D01*
X79977619Y-133312857D01*
X79977619Y-132931905D02*
X79930000Y-132884286D01*
X79882381Y-132789048D01*
X79882381Y-132550952D01*
X79930000Y-132455714D01*
X79977619Y-132408095D01*
X80072857Y-132360476D01*
X80168095Y-132360476D01*
X80310952Y-132408095D01*
X80882381Y-132979524D01*
X80882381Y-132360476D01*
X80215714Y-131503333D02*
X80882381Y-131503333D01*
X79834762Y-131741429D02*
X80549048Y-131979524D01*
X80549048Y-131360476D01*
X68857143Y-46507143D02*
X68809524Y-46554762D01*
X68666667Y-46602381D01*
X68571429Y-46602381D01*
X68428571Y-46554762D01*
X68333333Y-46459524D01*
X68285714Y-46364286D01*
X68238095Y-46173810D01*
X68238095Y-46030952D01*
X68285714Y-45840476D01*
X68333333Y-45745238D01*
X68428571Y-45650000D01*
X68571429Y-45602381D01*
X68666667Y-45602381D01*
X68809524Y-45650000D01*
X68857143Y-45697619D01*
X69238095Y-45697619D02*
X69285714Y-45650000D01*
X69380952Y-45602381D01*
X69619048Y-45602381D01*
X69714286Y-45650000D01*
X69761905Y-45697619D01*
X69809524Y-45792857D01*
X69809524Y-45888095D01*
X69761905Y-46030952D01*
X69190476Y-46602381D01*
X69809524Y-46602381D01*
X70380952Y-46030952D02*
X70285714Y-45983333D01*
X70238095Y-45935714D01*
X70190476Y-45840476D01*
X70190476Y-45792857D01*
X70238095Y-45697619D01*
X70285714Y-45650000D01*
X70380952Y-45602381D01*
X70571429Y-45602381D01*
X70666667Y-45650000D01*
X70714286Y-45697619D01*
X70761905Y-45792857D01*
X70761905Y-45840476D01*
X70714286Y-45935714D01*
X70666667Y-45983333D01*
X70571429Y-46030952D01*
X70380952Y-46030952D01*
X70285714Y-46078571D01*
X70238095Y-46126190D01*
X70190476Y-46221429D01*
X70190476Y-46411905D01*
X70238095Y-46507143D01*
X70285714Y-46554762D01*
X70380952Y-46602381D01*
X70571429Y-46602381D01*
X70666667Y-46554762D01*
X70714286Y-46507143D01*
X70761905Y-46411905D01*
X70761905Y-46221429D01*
X70714286Y-46126190D01*
X70666667Y-46078571D01*
X70571429Y-46030952D01*
X26558143Y-43400000D02*
X26605762Y-43447619D01*
X26653381Y-43590476D01*
X26653381Y-43685714D01*
X26605762Y-43828572D01*
X26510524Y-43923810D01*
X26415286Y-43971429D01*
X26224810Y-44019048D01*
X26081952Y-44019048D01*
X25891476Y-43971429D01*
X25796238Y-43923810D01*
X25701000Y-43828572D01*
X25653381Y-43685714D01*
X25653381Y-43590476D01*
X25701000Y-43447619D01*
X25748619Y-43400000D01*
X26653381Y-42971429D02*
X25653381Y-42971429D01*
X25653381Y-42733334D01*
X25701000Y-42590476D01*
X25796238Y-42495238D01*
X25891476Y-42447619D01*
X26081952Y-42400000D01*
X26224810Y-42400000D01*
X26415286Y-42447619D01*
X26510524Y-42495238D01*
X26605762Y-42590476D01*
X26653381Y-42733334D01*
X26653381Y-42971429D01*
X26653381Y-41828572D02*
X26605762Y-41923810D01*
X26558143Y-41971429D01*
X26462905Y-42019048D01*
X26177190Y-42019048D01*
X26081952Y-41971429D01*
X26034333Y-41923810D01*
X25986714Y-41828572D01*
X25986714Y-41685714D01*
X26034333Y-41590476D01*
X26081952Y-41542857D01*
X26177190Y-41495238D01*
X26462905Y-41495238D01*
X26558143Y-41542857D01*
X26605762Y-41590476D01*
X26653381Y-41685714D01*
X26653381Y-41828572D01*
X25986714Y-41066667D02*
X26653381Y-41066667D01*
X26081952Y-41066667D02*
X26034333Y-41019048D01*
X25986714Y-40923810D01*
X25986714Y-40780952D01*
X26034333Y-40685714D01*
X26129571Y-40638095D01*
X26653381Y-40638095D01*
X26605762Y-39780952D02*
X26653381Y-39876190D01*
X26653381Y-40066667D01*
X26605762Y-40161905D01*
X26510524Y-40209524D01*
X26129571Y-40209524D01*
X26034333Y-40161905D01*
X25986714Y-40066667D01*
X25986714Y-39876190D01*
X26034333Y-39780952D01*
X26129571Y-39733333D01*
X26224810Y-39733333D01*
X26320048Y-40209524D01*
X26653381Y-38780952D02*
X26653381Y-39352381D01*
X26653381Y-39066667D02*
X25653381Y-39066667D01*
X25796238Y-39161905D01*
X25891476Y-39257143D01*
X25939095Y-39352381D01*
D15*
X86903571Y-124146667D02*
X86964048Y-124207143D01*
X87024524Y-124388572D01*
X87024524Y-124509524D01*
X86964048Y-124690952D01*
X86843095Y-124811905D01*
X86722143Y-124872381D01*
X86480238Y-124932857D01*
X86298810Y-124932857D01*
X86056905Y-124872381D01*
X85935952Y-124811905D01*
X85815000Y-124690952D01*
X85754524Y-124509524D01*
X85754524Y-124388572D01*
X85815000Y-124207143D01*
X85875476Y-124146667D01*
X87024524Y-122876667D02*
X86419762Y-123300000D01*
X87024524Y-123602381D02*
X85754524Y-123602381D01*
X85754524Y-123118572D01*
X85815000Y-122997619D01*
X85875476Y-122937143D01*
X85996429Y-122876667D01*
X86177857Y-122876667D01*
X86298810Y-122937143D01*
X86359286Y-122997619D01*
X86419762Y-123118572D01*
X86419762Y-123602381D01*
X87024524Y-121667143D02*
X87024524Y-122392857D01*
X87024524Y-122030000D02*
X85754524Y-122030000D01*
X85935952Y-122150952D01*
X86056905Y-122271905D01*
X86117381Y-122392857D01*
D14*
X66262184Y-126006008D02*
X65555077Y-125298901D01*
X65723436Y-125130542D01*
X65858123Y-125063198D01*
X65992810Y-125063198D01*
X66093825Y-125096870D01*
X66262184Y-125197885D01*
X66363200Y-125298901D01*
X66464215Y-125467259D01*
X66497886Y-125568275D01*
X66497886Y-125702961D01*
X66430542Y-125837649D01*
X66262184Y-126006008D01*
X66295855Y-124692809D02*
X66295855Y-124625466D01*
X66329527Y-124524451D01*
X66497886Y-124356091D01*
X66598902Y-124322420D01*
X66666245Y-124322420D01*
X66767260Y-124356091D01*
X66834604Y-124423435D01*
X66901947Y-124558122D01*
X66901947Y-125366244D01*
X67339680Y-124928511D01*
D15*
X75109286Y-30163333D02*
X75109286Y-30586666D01*
X75774524Y-30586666D02*
X74504524Y-30586666D01*
X74504524Y-29981904D01*
X75774524Y-28832857D02*
X75774524Y-29558571D01*
X75774524Y-29195714D02*
X74504524Y-29195714D01*
X74685952Y-29316666D01*
X74806905Y-29437619D01*
X74867381Y-29558571D01*
D14*
X76524381Y-40266666D02*
X76524381Y-40742857D01*
X75524381Y-40742857D01*
X76524381Y-39409523D02*
X76524381Y-39980952D01*
X76524381Y-39695238D02*
X75524381Y-39695238D01*
X75667238Y-39790476D01*
X75762476Y-39885714D01*
X75810095Y-39980952D01*
X76474381Y-49610666D02*
X76474381Y-50086857D01*
X75474381Y-50086857D01*
X75569619Y-49324952D02*
X75522000Y-49277333D01*
X75474381Y-49182095D01*
X75474381Y-48943999D01*
X75522000Y-48848761D01*
X75569619Y-48801142D01*
X75664857Y-48753523D01*
X75760095Y-48753523D01*
X75902952Y-48801142D01*
X76474381Y-49372571D01*
X76474381Y-48753523D01*
X95052381Y-64204523D02*
X95052381Y-64680714D01*
X94052381Y-64680714D01*
X94528571Y-63871190D02*
X94528571Y-63537856D01*
X95052381Y-63394999D02*
X95052381Y-63871190D01*
X94052381Y-63871190D01*
X94052381Y-63394999D01*
X95052381Y-62966428D02*
X94052381Y-62966428D01*
X94052381Y-62728333D01*
X94100000Y-62585475D01*
X94195238Y-62490237D01*
X94290476Y-62442618D01*
X94480952Y-62394999D01*
X94623810Y-62394999D01*
X94814286Y-62442618D01*
X94909524Y-62490237D01*
X95004762Y-62585475D01*
X95052381Y-62728333D01*
X95052381Y-62966428D01*
X95052381Y-61442618D02*
X95052381Y-62014047D01*
X95052381Y-61728333D02*
X94052381Y-61728333D01*
X94195238Y-61823571D01*
X94290476Y-61918809D01*
X94338095Y-62014047D01*
X89177905Y-81224381D02*
X89177905Y-80224381D01*
X89558858Y-80224381D01*
X89654096Y-80272000D01*
X89701715Y-80319619D01*
X89749334Y-80414857D01*
X89749334Y-80557714D01*
X89701715Y-80652952D01*
X89654096Y-80700571D01*
X89558858Y-80748190D01*
X89177905Y-80748190D01*
X90606477Y-80557714D02*
X90606477Y-81224381D01*
X90368381Y-80176762D02*
X90130286Y-80891048D01*
X90749334Y-80891048D01*
X38611905Y-144252381D02*
X38611905Y-143252381D01*
X38992858Y-143252381D01*
X39088096Y-143300000D01*
X39135715Y-143347619D01*
X39183334Y-143442857D01*
X39183334Y-143585714D01*
X39135715Y-143680952D01*
X39088096Y-143728571D01*
X38992858Y-143776190D01*
X38611905Y-143776190D01*
X40088096Y-143252381D02*
X39611905Y-143252381D01*
X39564286Y-143728571D01*
X39611905Y-143680952D01*
X39707143Y-143633333D01*
X39945239Y-143633333D01*
X40040477Y-143680952D01*
X40088096Y-143728571D01*
X40135715Y-143823810D01*
X40135715Y-144061905D01*
X40088096Y-144157143D01*
X40040477Y-144204762D01*
X39945239Y-144252381D01*
X39707143Y-144252381D01*
X39611905Y-144204762D01*
X39564286Y-144157143D01*
X88074647Y-68237927D02*
X87074647Y-68237927D01*
X87074647Y-67856974D01*
X87122266Y-67761736D01*
X87169885Y-67714117D01*
X87265123Y-67666498D01*
X87407980Y-67666498D01*
X87503218Y-67714117D01*
X87550837Y-67761736D01*
X87598456Y-67856974D01*
X87598456Y-68237927D01*
X87074647Y-66809355D02*
X87074647Y-66999832D01*
X87122266Y-67095070D01*
X87169885Y-67142689D01*
X87312742Y-67237927D01*
X87503218Y-67285546D01*
X87884171Y-67285546D01*
X87979409Y-67237927D01*
X88027028Y-67190308D01*
X88074647Y-67095070D01*
X88074647Y-66904593D01*
X88027028Y-66809355D01*
X87979409Y-66761736D01*
X87884171Y-66714117D01*
X87646076Y-66714117D01*
X87550837Y-66761736D01*
X87503218Y-66809355D01*
X87455599Y-66904593D01*
X87455599Y-67095070D01*
X87503218Y-67190308D01*
X87550837Y-67237927D01*
X87646076Y-67285546D01*
X68302381Y-34716667D02*
X67302381Y-34716667D01*
X67302381Y-34335714D01*
X67350000Y-34240476D01*
X67397619Y-34192857D01*
X67492857Y-34145238D01*
X67635714Y-34145238D01*
X67730952Y-34192857D01*
X67778571Y-34240476D01*
X67826190Y-34335714D01*
X67826190Y-34716667D01*
X67302381Y-33811905D02*
X68302381Y-33573810D01*
X67588095Y-33383333D01*
X68302381Y-33192857D01*
X67302381Y-32954762D01*
X68302381Y-32002381D02*
X67826190Y-32335715D01*
X68302381Y-32573810D02*
X67302381Y-32573810D01*
X67302381Y-32192857D01*
X67350000Y-32097619D01*
X67397619Y-32050000D01*
X67492857Y-32002381D01*
X67635714Y-32002381D01*
X67730952Y-32050000D01*
X67778571Y-32097619D01*
X67826190Y-32192857D01*
X67826190Y-32573810D01*
X68302381Y-31097619D02*
X68302381Y-31573810D01*
X67302381Y-31573810D01*
X67778571Y-30764286D02*
X67778571Y-30430952D01*
X68302381Y-30288095D02*
X68302381Y-30764286D01*
X67302381Y-30764286D01*
X67302381Y-30288095D01*
X68302381Y-29859524D02*
X67302381Y-29859524D01*
X67302381Y-29621429D01*
X67350000Y-29478571D01*
X67445238Y-29383333D01*
X67540476Y-29335714D01*
X67730952Y-29288095D01*
X67873810Y-29288095D01*
X68064286Y-29335714D01*
X68159524Y-29383333D01*
X68254762Y-29478571D01*
X68302381Y-29621429D01*
X68302381Y-29859524D01*
X68302381Y-28335714D02*
X68302381Y-28907143D01*
X68302381Y-28621429D02*
X67302381Y-28621429D01*
X67445238Y-28716667D01*
X67540476Y-28811905D01*
X67588095Y-28907143D01*
X95052381Y-66516666D02*
X94576190Y-66850000D01*
X95052381Y-67088095D02*
X94052381Y-67088095D01*
X94052381Y-66707142D01*
X94100000Y-66611904D01*
X94147619Y-66564285D01*
X94242857Y-66516666D01*
X94385714Y-66516666D01*
X94480952Y-66564285D01*
X94528571Y-66611904D01*
X94576190Y-66707142D01*
X94576190Y-67088095D01*
X95052381Y-65564285D02*
X95052381Y-66135714D01*
X95052381Y-65850000D02*
X94052381Y-65850000D01*
X94195238Y-65945238D01*
X94290476Y-66040476D01*
X94338095Y-66135714D01*
X29735334Y-22922381D02*
X29402000Y-22446190D01*
X29163905Y-22922381D02*
X29163905Y-21922381D01*
X29544858Y-21922381D01*
X29640096Y-21970000D01*
X29687715Y-22017619D01*
X29735334Y-22112857D01*
X29735334Y-22255714D01*
X29687715Y-22350952D01*
X29640096Y-22398571D01*
X29544858Y-22446190D01*
X29163905Y-22446190D01*
X30116286Y-22017619D02*
X30163905Y-21970000D01*
X30259143Y-21922381D01*
X30497239Y-21922381D01*
X30592477Y-21970000D01*
X30640096Y-22017619D01*
X30687715Y-22112857D01*
X30687715Y-22208095D01*
X30640096Y-22350952D01*
X30068667Y-22922381D01*
X30687715Y-22922381D01*
X53412268Y-98602031D02*
X53513283Y-98029610D01*
X53008206Y-98197970D02*
X53715313Y-97490863D01*
X53984688Y-97760237D01*
X54018359Y-97861253D01*
X54018359Y-97928596D01*
X53984688Y-98029611D01*
X53883672Y-98130626D01*
X53782657Y-98164298D01*
X53715314Y-98164298D01*
X53614299Y-98130626D01*
X53344924Y-97861252D01*
X54355076Y-98130626D02*
X54792810Y-98568359D01*
X54287733Y-98602030D01*
X54388749Y-98703046D01*
X54422421Y-98804061D01*
X54422421Y-98871405D01*
X54388748Y-98972421D01*
X54220390Y-99140779D01*
X54119374Y-99174451D01*
X54052031Y-99174451D01*
X53951016Y-99140779D01*
X53748985Y-98938748D01*
X53715313Y-98837733D01*
X53715313Y-98770390D01*
X26452381Y-37616666D02*
X25976190Y-37950000D01*
X26452381Y-38188095D02*
X25452381Y-38188095D01*
X25452381Y-37807142D01*
X25500000Y-37711904D01*
X25547619Y-37664285D01*
X25642857Y-37616666D01*
X25785714Y-37616666D01*
X25880952Y-37664285D01*
X25928571Y-37711904D01*
X25976190Y-37807142D01*
X25976190Y-38188095D01*
X25785714Y-36759523D02*
X26452381Y-36759523D01*
X25404762Y-36997619D02*
X26119048Y-37235714D01*
X26119048Y-36616666D01*
X76412381Y-132110666D02*
X75936190Y-132444000D01*
X76412381Y-132682095D02*
X75412381Y-132682095D01*
X75412381Y-132301142D01*
X75460000Y-132205904D01*
X75507619Y-132158285D01*
X75602857Y-132110666D01*
X75745714Y-132110666D01*
X75840952Y-132158285D01*
X75888571Y-132205904D01*
X75936190Y-132301142D01*
X75936190Y-132682095D01*
X75412381Y-131253523D02*
X75412381Y-131444000D01*
X75460000Y-131539238D01*
X75507619Y-131586857D01*
X75650476Y-131682095D01*
X75840952Y-131729714D01*
X76221905Y-131729714D01*
X76317143Y-131682095D01*
X76364762Y-131634476D01*
X76412381Y-131539238D01*
X76412381Y-131348761D01*
X76364762Y-131253523D01*
X76317143Y-131205904D01*
X76221905Y-131158285D01*
X75983810Y-131158285D01*
X75888571Y-131205904D01*
X75840952Y-131253523D01*
X75793333Y-131348761D01*
X75793333Y-131539238D01*
X75840952Y-131634476D01*
X75888571Y-131682095D01*
X75983810Y-131729714D01*
X71272381Y-34466666D02*
X70796190Y-34800000D01*
X71272381Y-35038095D02*
X70272381Y-35038095D01*
X70272381Y-34657142D01*
X70320000Y-34561904D01*
X70367619Y-34514285D01*
X70462857Y-34466666D01*
X70605714Y-34466666D01*
X70700952Y-34514285D01*
X70748571Y-34561904D01*
X70796190Y-34657142D01*
X70796190Y-35038095D01*
X71272381Y-33990476D02*
X71272381Y-33800000D01*
X71224762Y-33704761D01*
X71177143Y-33657142D01*
X71034286Y-33561904D01*
X70843810Y-33514285D01*
X70462857Y-33514285D01*
X70367619Y-33561904D01*
X70320000Y-33609523D01*
X70272381Y-33704761D01*
X70272381Y-33895238D01*
X70320000Y-33990476D01*
X70367619Y-34038095D01*
X70462857Y-34085714D01*
X70700952Y-34085714D01*
X70796190Y-34038095D01*
X70843810Y-33990476D01*
X70891429Y-33895238D01*
X70891429Y-33704761D01*
X70843810Y-33609523D01*
X70796190Y-33561904D01*
X70700952Y-33514285D01*
X78482381Y-132882857D02*
X78006190Y-133216191D01*
X78482381Y-133454286D02*
X77482381Y-133454286D01*
X77482381Y-133073333D01*
X77530000Y-132978095D01*
X77577619Y-132930476D01*
X77672857Y-132882857D01*
X77815714Y-132882857D01*
X77910952Y-132930476D01*
X77958571Y-132978095D01*
X78006190Y-133073333D01*
X78006190Y-133454286D01*
X78482381Y-131930476D02*
X78482381Y-132501905D01*
X78482381Y-132216191D02*
X77482381Y-132216191D01*
X77625238Y-132311429D01*
X77720476Y-132406667D01*
X77768095Y-132501905D01*
X78482381Y-130978095D02*
X78482381Y-131549524D01*
X78482381Y-131263810D02*
X77482381Y-131263810D01*
X77625238Y-131359048D01*
X77720476Y-131454286D01*
X77768095Y-131549524D01*
X23402381Y-30678571D02*
X22926190Y-31011905D01*
X23402381Y-31250000D02*
X22402381Y-31250000D01*
X22402381Y-30869047D01*
X22450000Y-30773809D01*
X22497619Y-30726190D01*
X22592857Y-30678571D01*
X22735714Y-30678571D01*
X22830952Y-30726190D01*
X22878571Y-30773809D01*
X22926190Y-30869047D01*
X22926190Y-31250000D01*
X22878571Y-30250000D02*
X22878571Y-29916666D01*
X23402381Y-29773809D02*
X23402381Y-30250000D01*
X22402381Y-30250000D01*
X22402381Y-29773809D01*
X23354762Y-29392857D02*
X23402381Y-29250000D01*
X23402381Y-29011904D01*
X23354762Y-28916666D01*
X23307143Y-28869047D01*
X23211905Y-28821428D01*
X23116667Y-28821428D01*
X23021429Y-28869047D01*
X22973810Y-28916666D01*
X22926190Y-29011904D01*
X22878571Y-29202381D01*
X22830952Y-29297619D01*
X22783333Y-29345238D01*
X22688095Y-29392857D01*
X22592857Y-29392857D01*
X22497619Y-29345238D01*
X22450000Y-29297619D01*
X22402381Y-29202381D01*
X22402381Y-28964285D01*
X22450000Y-28821428D01*
X22878571Y-28392857D02*
X22878571Y-28059523D01*
X23402381Y-27916666D02*
X23402381Y-28392857D01*
X22402381Y-28392857D01*
X22402381Y-27916666D01*
X22402381Y-27630952D02*
X22402381Y-27059523D01*
X23402381Y-27345238D02*
X22402381Y-27345238D01*
X23402381Y-26202380D02*
X23402381Y-26773809D01*
X23402381Y-26488095D02*
X22402381Y-26488095D01*
X22545238Y-26583333D01*
X22640476Y-26678571D01*
X22688095Y-26773809D01*
X95040632Y-140243365D02*
X95088251Y-140100508D01*
X95088251Y-139862412D01*
X95040632Y-139767174D01*
X94993013Y-139719555D01*
X94897775Y-139671936D01*
X94802537Y-139671936D01*
X94707299Y-139719555D01*
X94659680Y-139767174D01*
X94612060Y-139862412D01*
X94564441Y-140052889D01*
X94516822Y-140148127D01*
X94469203Y-140195746D01*
X94373965Y-140243365D01*
X94278727Y-140243365D01*
X94183489Y-140195746D01*
X94135870Y-140148127D01*
X94088251Y-140052889D01*
X94088251Y-139814793D01*
X94135870Y-139671936D01*
X94088251Y-139338603D02*
X95088251Y-139100508D01*
X94373965Y-138910031D01*
X95088251Y-138719555D01*
X94088251Y-138481460D01*
X95088251Y-137576698D02*
X95088251Y-138148127D01*
X95088251Y-137862413D02*
X94088251Y-137862413D01*
X94231108Y-137957651D01*
X94326346Y-138052889D01*
X94373965Y-138148127D01*
D15*
X82608381Y-42956524D02*
X82608381Y-43984619D01*
X82668857Y-44105571D01*
X82729333Y-44166048D01*
X82850286Y-44226524D01*
X83092190Y-44226524D01*
X83213143Y-44166048D01*
X83273619Y-44105571D01*
X83334095Y-43984619D01*
X83334095Y-42956524D01*
X83878381Y-43077476D02*
X83938857Y-43017000D01*
X84059809Y-42956524D01*
X84362190Y-42956524D01*
X84483143Y-43017000D01*
X84543619Y-43077476D01*
X84604095Y-43198429D01*
X84604095Y-43319381D01*
X84543619Y-43500810D01*
X83817905Y-44226524D01*
X84604095Y-44226524D01*
X82608381Y-52354524D02*
X82608381Y-53382619D01*
X82668857Y-53503571D01*
X82729333Y-53564048D01*
X82850286Y-53624524D01*
X83092190Y-53624524D01*
X83213143Y-53564048D01*
X83273619Y-53503571D01*
X83334095Y-53382619D01*
X83334095Y-52354524D01*
X83817905Y-52354524D02*
X84604095Y-52354524D01*
X84180762Y-52838333D01*
X84362190Y-52838333D01*
X84483143Y-52898810D01*
X84543619Y-52959286D01*
X84604095Y-53080238D01*
X84604095Y-53382619D01*
X84543619Y-53503571D01*
X84483143Y-53564048D01*
X84362190Y-53624524D01*
X83999333Y-53624524D01*
X83878381Y-53564048D01*
X83817905Y-53503571D01*
D14*
X28392381Y-56118095D02*
X27392381Y-56118095D01*
X27392381Y-55737142D01*
X27440000Y-55641904D01*
X27487619Y-55594285D01*
X27582857Y-55546666D01*
X27725714Y-55546666D01*
X27820952Y-55594285D01*
X27868571Y-55641904D01*
X27916190Y-55737142D01*
X27916190Y-56118095D01*
X27487619Y-55165714D02*
X27440000Y-55118095D01*
X27392381Y-55022857D01*
X27392381Y-54784761D01*
X27440000Y-54689523D01*
X27487619Y-54641904D01*
X27582857Y-54594285D01*
X27678095Y-54594285D01*
X27820952Y-54641904D01*
X28392381Y-55213333D01*
X28392381Y-54594285D01*
D15*
X47226667Y-32259286D02*
X46803334Y-32259286D01*
X46803334Y-32924524D02*
X46803334Y-31654524D01*
X47408096Y-31654524D01*
X47831429Y-31775476D02*
X47891905Y-31715000D01*
X48012857Y-31654524D01*
X48315238Y-31654524D01*
X48436191Y-31715000D01*
X48496667Y-31775476D01*
X48557143Y-31896429D01*
X48557143Y-32017381D01*
X48496667Y-32198810D01*
X47770953Y-32924524D01*
X48557143Y-32924524D01*
X51357619Y-24347904D02*
X50257619Y-24347904D01*
X50257619Y-23928857D01*
X50310000Y-23824095D01*
X50362381Y-23771714D01*
X50467143Y-23719333D01*
X50624286Y-23719333D01*
X50729048Y-23771714D01*
X50781429Y-23824095D01*
X50833810Y-23928857D01*
X50833810Y-24347904D01*
X50729048Y-23090761D02*
X50676667Y-23195523D01*
X50624286Y-23247904D01*
X50519524Y-23300285D01*
X50467143Y-23300285D01*
X50362381Y-23247904D01*
X50310000Y-23195523D01*
X50257619Y-23090761D01*
X50257619Y-22881238D01*
X50310000Y-22776476D01*
X50362381Y-22724095D01*
X50467143Y-22671714D01*
X50519524Y-22671714D01*
X50624286Y-22724095D01*
X50676667Y-22776476D01*
X50729048Y-22881238D01*
X50729048Y-23090761D01*
X50781429Y-23195523D01*
X50833810Y-23247904D01*
X50938571Y-23300285D01*
X51148095Y-23300285D01*
X51252857Y-23247904D01*
X51305238Y-23195523D01*
X51357619Y-23090761D01*
X51357619Y-22881238D01*
X51305238Y-22776476D01*
X51252857Y-22724095D01*
X51148095Y-22671714D01*
X50938571Y-22671714D01*
X50833810Y-22724095D01*
X50781429Y-22776476D01*
X50729048Y-22881238D01*
X41859524Y-21178095D02*
X41859524Y-22230476D01*
X41921429Y-22354286D01*
X41983333Y-22416190D01*
X42107143Y-22478095D01*
X42354762Y-22478095D01*
X42478571Y-22416190D01*
X42540476Y-22354286D01*
X42602381Y-22230476D01*
X42602381Y-21178095D01*
X43159524Y-22416190D02*
X43345238Y-22478095D01*
X43654762Y-22478095D01*
X43778572Y-22416190D01*
X43840476Y-22354286D01*
X43902381Y-22230476D01*
X43902381Y-22106667D01*
X43840476Y-21982857D01*
X43778572Y-21920952D01*
X43654762Y-21859048D01*
X43407143Y-21797143D01*
X43283334Y-21735238D01*
X43221429Y-21673333D01*
X43159524Y-21549524D01*
X43159524Y-21425714D01*
X43221429Y-21301905D01*
X43283334Y-21240000D01*
X43407143Y-21178095D01*
X43716667Y-21178095D01*
X43902381Y-21240000D01*
X44892857Y-21797143D02*
X45078571Y-21859048D01*
X45140476Y-21920952D01*
X45202381Y-22044762D01*
X45202381Y-22230476D01*
X45140476Y-22354286D01*
X45078571Y-22416190D01*
X44954762Y-22478095D01*
X44459524Y-22478095D01*
X44459524Y-21178095D01*
X44892857Y-21178095D01*
X45016667Y-21240000D01*
X45078571Y-21301905D01*
X45140476Y-21425714D01*
X45140476Y-21549524D01*
X45078571Y-21673333D01*
X45016667Y-21735238D01*
X44892857Y-21797143D01*
X44459524Y-21797143D01*
D14*
X35197619Y-32395238D02*
X35150000Y-32490476D01*
X35054762Y-32585714D01*
X34911905Y-32728571D01*
X34864286Y-32823810D01*
X34864286Y-32919048D01*
X35102381Y-32871429D02*
X35054762Y-32966667D01*
X34959524Y-33061905D01*
X34769048Y-33109524D01*
X34435714Y-33109524D01*
X34245238Y-33061905D01*
X34150000Y-32966667D01*
X34102381Y-32871429D01*
X34102381Y-32680952D01*
X34150000Y-32585714D01*
X34245238Y-32490476D01*
X34435714Y-32442857D01*
X34769048Y-32442857D01*
X34959524Y-32490476D01*
X35054762Y-32585714D01*
X35102381Y-32680952D01*
X35102381Y-32871429D01*
X35102381Y-31490476D02*
X35102381Y-32061905D01*
X35102381Y-31776191D02*
X34102381Y-31776191D01*
X34245238Y-31871429D01*
X34340476Y-31966667D01*
X34388095Y-32061905D01*
X29357143Y-38702381D02*
X29023809Y-38226190D01*
X28785714Y-38702381D02*
X28785714Y-37702381D01*
X29166667Y-37702381D01*
X29261905Y-37750000D01*
X29309524Y-37797619D01*
X29357143Y-37892857D01*
X29357143Y-38035714D01*
X29309524Y-38130952D01*
X29261905Y-38178571D01*
X29166667Y-38226190D01*
X28785714Y-38226190D01*
X30309524Y-38702381D02*
X29738095Y-38702381D01*
X30023809Y-38702381D02*
X30023809Y-37702381D01*
X29928571Y-37845238D01*
X29833333Y-37940476D01*
X29738095Y-37988095D01*
X31214286Y-37702381D02*
X30738095Y-37702381D01*
X30690476Y-38178571D01*
X30738095Y-38130952D01*
X30833333Y-38083333D01*
X31071429Y-38083333D01*
X31166667Y-38130952D01*
X31214286Y-38178571D01*
X31261905Y-38273810D01*
X31261905Y-38511905D01*
X31214286Y-38607143D01*
X31166667Y-38654762D01*
X31071429Y-38702381D01*
X30833333Y-38702381D01*
X30738095Y-38654762D01*
X30690476Y-38607143D01*
X41902381Y-58749999D02*
X41426190Y-59083333D01*
X41902381Y-59321428D02*
X40902381Y-59321428D01*
X40902381Y-58940475D01*
X40950000Y-58845237D01*
X40997619Y-58797618D01*
X41092857Y-58749999D01*
X41235714Y-58749999D01*
X41330952Y-58797618D01*
X41378571Y-58845237D01*
X41426190Y-58940475D01*
X41426190Y-59321428D01*
X41902381Y-57797618D02*
X41902381Y-58369047D01*
X41902381Y-58083333D02*
X40902381Y-58083333D01*
X41045238Y-58178571D01*
X41140476Y-58273809D01*
X41188095Y-58369047D01*
X40902381Y-56940475D02*
X40902381Y-57130952D01*
X40950000Y-57226190D01*
X40997619Y-57273809D01*
X41140476Y-57369047D01*
X41330952Y-57416666D01*
X41711905Y-57416666D01*
X41807143Y-57369047D01*
X41854762Y-57321428D01*
X41902381Y-57226190D01*
X41902381Y-57035713D01*
X41854762Y-56940475D01*
X41807143Y-56892856D01*
X41711905Y-56845237D01*
X41473810Y-56845237D01*
X41378571Y-56892856D01*
X41330952Y-56940475D01*
X41283333Y-57035713D01*
X41283333Y-57226190D01*
X41330952Y-57321428D01*
X41378571Y-57369047D01*
X41473810Y-57416666D01*
X29360714Y-49802381D02*
X29027380Y-49326190D01*
X28789285Y-49802381D02*
X28789285Y-48802381D01*
X29170238Y-48802381D01*
X29265476Y-48850000D01*
X29313095Y-48897619D01*
X29360714Y-48992857D01*
X29360714Y-49135714D01*
X29313095Y-49230952D01*
X29265476Y-49278571D01*
X29170238Y-49326190D01*
X28789285Y-49326190D01*
X29741666Y-48897619D02*
X29789285Y-48850000D01*
X29884523Y-48802381D01*
X30122619Y-48802381D01*
X30217857Y-48850000D01*
X30265476Y-48897619D01*
X30313095Y-48992857D01*
X30313095Y-49088095D01*
X30265476Y-49230952D01*
X29694047Y-49802381D01*
X30313095Y-49802381D01*
X30646428Y-48802381D02*
X31313095Y-48802381D01*
X30884523Y-49802381D01*
X37702381Y-58642857D02*
X37226190Y-58976191D01*
X37702381Y-59214286D02*
X36702381Y-59214286D01*
X36702381Y-58833333D01*
X36750000Y-58738095D01*
X36797619Y-58690476D01*
X36892857Y-58642857D01*
X37035714Y-58642857D01*
X37130952Y-58690476D01*
X37178571Y-58738095D01*
X37226190Y-58833333D01*
X37226190Y-59214286D01*
X36702381Y-58309524D02*
X36702381Y-57690476D01*
X37083333Y-58023810D01*
X37083333Y-57880952D01*
X37130952Y-57785714D01*
X37178571Y-57738095D01*
X37273810Y-57690476D01*
X37511905Y-57690476D01*
X37607143Y-57738095D01*
X37654762Y-57785714D01*
X37702381Y-57880952D01*
X37702381Y-58166667D01*
X37654762Y-58261905D01*
X37607143Y-58309524D01*
X36702381Y-57071429D02*
X36702381Y-56976190D01*
X36750000Y-56880952D01*
X36797619Y-56833333D01*
X36892857Y-56785714D01*
X37083333Y-56738095D01*
X37321429Y-56738095D01*
X37511905Y-56785714D01*
X37607143Y-56833333D01*
X37654762Y-56880952D01*
X37702381Y-56976190D01*
X37702381Y-57071429D01*
X37654762Y-57166667D01*
X37607143Y-57214286D01*
X37511905Y-57261905D01*
X37321429Y-57309524D01*
X37083333Y-57309524D01*
X36892857Y-57261905D01*
X36797619Y-57214286D01*
X36750000Y-57166667D01*
X36702381Y-57071429D01*
X47022381Y-39972857D02*
X46546190Y-40306191D01*
X47022381Y-40544286D02*
X46022381Y-40544286D01*
X46022381Y-40163333D01*
X46070000Y-40068095D01*
X46117619Y-40020476D01*
X46212857Y-39972857D01*
X46355714Y-39972857D01*
X46450952Y-40020476D01*
X46498571Y-40068095D01*
X46546190Y-40163333D01*
X46546190Y-40544286D01*
X46022381Y-39639524D02*
X46022381Y-39020476D01*
X46403333Y-39353810D01*
X46403333Y-39210952D01*
X46450952Y-39115714D01*
X46498571Y-39068095D01*
X46593810Y-39020476D01*
X46831905Y-39020476D01*
X46927143Y-39068095D01*
X46974762Y-39115714D01*
X47022381Y-39210952D01*
X47022381Y-39496667D01*
X46974762Y-39591905D01*
X46927143Y-39639524D01*
X46117619Y-38639524D02*
X46070000Y-38591905D01*
X46022381Y-38496667D01*
X46022381Y-38258571D01*
X46070000Y-38163333D01*
X46117619Y-38115714D01*
X46212857Y-38068095D01*
X46308095Y-38068095D01*
X46450952Y-38115714D01*
X47022381Y-38687143D01*
X47022381Y-38068095D01*
X35452381Y-58592857D02*
X34976190Y-58926191D01*
X35452381Y-59164286D02*
X34452381Y-59164286D01*
X34452381Y-58783333D01*
X34500000Y-58688095D01*
X34547619Y-58640476D01*
X34642857Y-58592857D01*
X34785714Y-58592857D01*
X34880952Y-58640476D01*
X34928571Y-58688095D01*
X34976190Y-58783333D01*
X34976190Y-59164286D01*
X34452381Y-58259524D02*
X34452381Y-57640476D01*
X34833333Y-57973810D01*
X34833333Y-57830952D01*
X34880952Y-57735714D01*
X34928571Y-57688095D01*
X35023810Y-57640476D01*
X35261905Y-57640476D01*
X35357143Y-57688095D01*
X35404762Y-57735714D01*
X35452381Y-57830952D01*
X35452381Y-58116667D01*
X35404762Y-58211905D01*
X35357143Y-58259524D01*
X34452381Y-57307143D02*
X34452381Y-56688095D01*
X34833333Y-57021429D01*
X34833333Y-56878571D01*
X34880952Y-56783333D01*
X34928571Y-56735714D01*
X35023810Y-56688095D01*
X35261905Y-56688095D01*
X35357143Y-56735714D01*
X35404762Y-56783333D01*
X35452381Y-56878571D01*
X35452381Y-57164286D01*
X35404762Y-57259524D01*
X35357143Y-57307143D01*
X29347855Y-43352381D02*
X29014521Y-42876190D01*
X28776426Y-43352381D02*
X28776426Y-42352381D01*
X29157379Y-42352381D01*
X29252617Y-42400000D01*
X29300236Y-42447619D01*
X29347855Y-42542857D01*
X29347855Y-42685714D01*
X29300236Y-42780952D01*
X29252617Y-42828571D01*
X29157379Y-42876190D01*
X28776426Y-42876190D01*
X29681188Y-42352381D02*
X30300236Y-42352381D01*
X29966902Y-42733333D01*
X30109760Y-42733333D01*
X30204998Y-42780952D01*
X30252617Y-42828571D01*
X30300236Y-42923810D01*
X30300236Y-43161905D01*
X30252617Y-43257143D01*
X30204998Y-43304762D01*
X30109760Y-43352381D01*
X29824045Y-43352381D01*
X29728807Y-43304762D01*
X29681188Y-43257143D01*
X31204998Y-42352381D02*
X30728807Y-42352381D01*
X30681188Y-42828571D01*
X30728807Y-42780952D01*
X30824045Y-42733333D01*
X31062141Y-42733333D01*
X31157379Y-42780952D01*
X31204998Y-42828571D01*
X31252617Y-42923810D01*
X31252617Y-43161905D01*
X31204998Y-43257143D01*
X31157379Y-43304762D01*
X31062141Y-43352381D01*
X30824045Y-43352381D01*
X30728807Y-43304762D01*
X30681188Y-43257143D01*
X29293213Y-51802381D02*
X28959879Y-51326190D01*
X28721784Y-51802381D02*
X28721784Y-50802381D01*
X29102737Y-50802381D01*
X29197975Y-50850000D01*
X29245594Y-50897619D01*
X29293213Y-50992857D01*
X29293213Y-51135714D01*
X29245594Y-51230952D01*
X29197975Y-51278571D01*
X29102737Y-51326190D01*
X28721784Y-51326190D01*
X29626546Y-50802381D02*
X30245594Y-50802381D01*
X29912260Y-51183333D01*
X30055118Y-51183333D01*
X30150356Y-51230952D01*
X30197975Y-51278571D01*
X30245594Y-51373810D01*
X30245594Y-51611905D01*
X30197975Y-51707143D01*
X30150356Y-51754762D01*
X30055118Y-51802381D01*
X29769403Y-51802381D01*
X29674165Y-51754762D01*
X29626546Y-51707143D01*
X31102737Y-50802381D02*
X30912260Y-50802381D01*
X30817022Y-50850000D01*
X30769403Y-50897619D01*
X30674165Y-51040476D01*
X30626546Y-51230952D01*
X30626546Y-51611905D01*
X30674165Y-51707143D01*
X30721784Y-51754762D01*
X30817022Y-51802381D01*
X31007499Y-51802381D01*
X31102737Y-51754762D01*
X31150356Y-51707143D01*
X31197975Y-51611905D01*
X31197975Y-51373810D01*
X31150356Y-51278571D01*
X31102737Y-51230952D01*
X31007499Y-51183333D01*
X30817022Y-51183333D01*
X30721784Y-51230952D01*
X30674165Y-51278571D01*
X30626546Y-51373810D01*
X55452381Y-58776428D02*
X54976190Y-59109762D01*
X55452381Y-59347857D02*
X54452381Y-59347857D01*
X54452381Y-58966904D01*
X54500000Y-58871666D01*
X54547619Y-58824047D01*
X54642857Y-58776428D01*
X54785714Y-58776428D01*
X54880952Y-58824047D01*
X54928571Y-58871666D01*
X54976190Y-58966904D01*
X54976190Y-59347857D01*
X54452381Y-58443095D02*
X54452381Y-57824047D01*
X54833333Y-58157381D01*
X54833333Y-58014523D01*
X54880952Y-57919285D01*
X54928571Y-57871666D01*
X55023810Y-57824047D01*
X55261905Y-57824047D01*
X55357143Y-57871666D01*
X55404762Y-57919285D01*
X55452381Y-58014523D01*
X55452381Y-58300238D01*
X55404762Y-58395476D01*
X55357143Y-58443095D01*
X54452381Y-57490714D02*
X54452381Y-56824047D01*
X55452381Y-57252619D01*
X53152381Y-58726428D02*
X52676190Y-59059762D01*
X53152381Y-59297857D02*
X52152381Y-59297857D01*
X52152381Y-58916904D01*
X52200000Y-58821666D01*
X52247619Y-58774047D01*
X52342857Y-58726428D01*
X52485714Y-58726428D01*
X52580952Y-58774047D01*
X52628571Y-58821666D01*
X52676190Y-58916904D01*
X52676190Y-59297857D01*
X52152381Y-58393095D02*
X52152381Y-57774047D01*
X52533333Y-58107381D01*
X52533333Y-57964523D01*
X52580952Y-57869285D01*
X52628571Y-57821666D01*
X52723810Y-57774047D01*
X52961905Y-57774047D01*
X53057143Y-57821666D01*
X53104762Y-57869285D01*
X53152381Y-57964523D01*
X53152381Y-58250238D01*
X53104762Y-58345476D01*
X53057143Y-58393095D01*
X52580952Y-57202619D02*
X52533333Y-57297857D01*
X52485714Y-57345476D01*
X52390476Y-57393095D01*
X52342857Y-57393095D01*
X52247619Y-57345476D01*
X52200000Y-57297857D01*
X52152381Y-57202619D01*
X52152381Y-57012142D01*
X52200000Y-56916904D01*
X52247619Y-56869285D01*
X52342857Y-56821666D01*
X52390476Y-56821666D01*
X52485714Y-56869285D01*
X52533333Y-56916904D01*
X52580952Y-57012142D01*
X52580952Y-57202619D01*
X52628571Y-57297857D01*
X52676190Y-57345476D01*
X52771429Y-57393095D01*
X52961905Y-57393095D01*
X53057143Y-57345476D01*
X53104762Y-57297857D01*
X53152381Y-57202619D01*
X53152381Y-57012142D01*
X53104762Y-56916904D01*
X53057143Y-56869285D01*
X52961905Y-56821666D01*
X52771429Y-56821666D01*
X52676190Y-56869285D01*
X52628571Y-56916904D01*
X52580952Y-57012142D01*
X29452497Y-40802381D02*
X29119163Y-40326190D01*
X28881068Y-40802381D02*
X28881068Y-39802381D01*
X29262021Y-39802381D01*
X29357259Y-39850000D01*
X29404878Y-39897619D01*
X29452497Y-39992857D01*
X29452497Y-40135714D01*
X29404878Y-40230952D01*
X29357259Y-40278571D01*
X29262021Y-40326190D01*
X28881068Y-40326190D01*
X29785830Y-39802381D02*
X30404878Y-39802381D01*
X30071544Y-40183333D01*
X30214402Y-40183333D01*
X30309640Y-40230952D01*
X30357259Y-40278571D01*
X30404878Y-40373810D01*
X30404878Y-40611905D01*
X30357259Y-40707143D01*
X30309640Y-40754762D01*
X30214402Y-40802381D01*
X29928687Y-40802381D01*
X29833449Y-40754762D01*
X29785830Y-40707143D01*
X30881068Y-40802381D02*
X31071544Y-40802381D01*
X31166783Y-40754762D01*
X31214402Y-40707143D01*
X31309640Y-40564286D01*
X31357259Y-40373810D01*
X31357259Y-39992857D01*
X31309640Y-39897619D01*
X31262021Y-39850000D01*
X31166783Y-39802381D01*
X30976306Y-39802381D01*
X30881068Y-39850000D01*
X30833449Y-39897619D01*
X30785830Y-39992857D01*
X30785830Y-40230952D01*
X30833449Y-40326190D01*
X30881068Y-40373810D01*
X30976306Y-40421429D01*
X31166783Y-40421429D01*
X31262021Y-40373810D01*
X31309640Y-40326190D01*
X31357259Y-40230952D01*
X42478095Y-51848381D02*
X42478095Y-52657905D01*
X42525714Y-52753143D01*
X42573333Y-52800762D01*
X42668571Y-52848381D01*
X42859048Y-52848381D01*
X42954286Y-52800762D01*
X43001905Y-52753143D01*
X43049524Y-52657905D01*
X43049524Y-51848381D01*
X43954286Y-51848381D02*
X43763809Y-51848381D01*
X43668571Y-51896000D01*
X43620952Y-51943619D01*
X43525714Y-52086476D01*
X43478095Y-52276952D01*
X43478095Y-52657905D01*
X43525714Y-52753143D01*
X43573333Y-52800762D01*
X43668571Y-52848381D01*
X43859048Y-52848381D01*
X43954286Y-52800762D01*
X44001905Y-52753143D01*
X44049524Y-52657905D01*
X44049524Y-52419810D01*
X44001905Y-52324571D01*
X43954286Y-52276952D01*
X43859048Y-52229333D01*
X43668571Y-52229333D01*
X43573333Y-52276952D01*
X43525714Y-52324571D01*
X43478095Y-52419810D01*
X49152381Y-47209524D02*
X50152381Y-46542857D01*
X49152381Y-46542857D02*
X50152381Y-47209524D01*
X50152381Y-45638095D02*
X50152381Y-46209524D01*
X50152381Y-45923810D02*
X49152381Y-45923810D01*
X49295238Y-46019048D01*
X49390476Y-46114286D01*
X49438095Y-46209524D01*
X55157143Y-52907143D02*
X55109524Y-52954762D01*
X54966667Y-53002381D01*
X54871429Y-53002381D01*
X54728571Y-52954762D01*
X54633333Y-52859524D01*
X54585714Y-52764286D01*
X54538095Y-52573810D01*
X54538095Y-52430952D01*
X54585714Y-52240476D01*
X54633333Y-52145238D01*
X54728571Y-52050000D01*
X54871429Y-52002381D01*
X54966667Y-52002381D01*
X55109524Y-52050000D01*
X55157143Y-52097619D01*
X55490476Y-52002381D02*
X56109524Y-52002381D01*
X55776190Y-52383333D01*
X55919048Y-52383333D01*
X56014286Y-52430952D01*
X56061905Y-52478571D01*
X56109524Y-52573810D01*
X56109524Y-52811905D01*
X56061905Y-52907143D01*
X56014286Y-52954762D01*
X55919048Y-53002381D01*
X55633333Y-53002381D01*
X55538095Y-52954762D01*
X55490476Y-52907143D01*
X56442857Y-52002381D02*
X57061905Y-52002381D01*
X56728571Y-52383333D01*
X56871429Y-52383333D01*
X56966667Y-52430952D01*
X57014286Y-52478571D01*
X57061905Y-52573810D01*
X57061905Y-52811905D01*
X57014286Y-52907143D01*
X56966667Y-52954762D01*
X56871429Y-53002381D01*
X56585714Y-53002381D01*
X56490476Y-52954762D01*
X56442857Y-52907143D01*
X44052143Y-58949333D02*
X44099762Y-58996952D01*
X44147381Y-59139809D01*
X44147381Y-59235047D01*
X44099762Y-59377905D01*
X44004524Y-59473143D01*
X43909286Y-59520762D01*
X43718810Y-59568381D01*
X43575952Y-59568381D01*
X43385476Y-59520762D01*
X43290238Y-59473143D01*
X43195000Y-59377905D01*
X43147381Y-59235047D01*
X43147381Y-59139809D01*
X43195000Y-58996952D01*
X43242619Y-58949333D01*
X43147381Y-58616000D02*
X43147381Y-57996952D01*
X43528333Y-58330286D01*
X43528333Y-58187428D01*
X43575952Y-58092190D01*
X43623571Y-58044571D01*
X43718810Y-57996952D01*
X43956905Y-57996952D01*
X44052143Y-58044571D01*
X44099762Y-58092190D01*
X44147381Y-58187428D01*
X44147381Y-58473143D01*
X44099762Y-58568381D01*
X44052143Y-58616000D01*
X43480714Y-57139809D02*
X44147381Y-57139809D01*
X43099762Y-57377905D02*
X43814048Y-57616000D01*
X43814048Y-56996952D01*
X51357143Y-39457143D02*
X51309524Y-39504762D01*
X51166667Y-39552381D01*
X51071429Y-39552381D01*
X50928571Y-39504762D01*
X50833333Y-39409524D01*
X50785714Y-39314286D01*
X50738095Y-39123810D01*
X50738095Y-38980952D01*
X50785714Y-38790476D01*
X50833333Y-38695238D01*
X50928571Y-38600000D01*
X51071429Y-38552381D01*
X51166667Y-38552381D01*
X51309524Y-38600000D01*
X51357143Y-38647619D01*
X51690476Y-38552381D02*
X52309524Y-38552381D01*
X51976190Y-38933333D01*
X52119048Y-38933333D01*
X52214286Y-38980952D01*
X52261905Y-39028571D01*
X52309524Y-39123810D01*
X52309524Y-39361905D01*
X52261905Y-39457143D01*
X52214286Y-39504762D01*
X52119048Y-39552381D01*
X51833333Y-39552381D01*
X51738095Y-39504762D01*
X51690476Y-39457143D01*
X53214286Y-38552381D02*
X52738095Y-38552381D01*
X52690476Y-39028571D01*
X52738095Y-38980952D01*
X52833333Y-38933333D01*
X53071429Y-38933333D01*
X53166667Y-38980952D01*
X53214286Y-39028571D01*
X53261905Y-39123810D01*
X53261905Y-39361905D01*
X53214286Y-39457143D01*
X53166667Y-39504762D01*
X53071429Y-39552381D01*
X52833333Y-39552381D01*
X52738095Y-39504762D01*
X52690476Y-39457143D01*
X55007143Y-43092857D02*
X55054762Y-43140476D01*
X55102381Y-43283333D01*
X55102381Y-43378571D01*
X55054762Y-43521429D01*
X54959524Y-43616667D01*
X54864286Y-43664286D01*
X54673810Y-43711905D01*
X54530952Y-43711905D01*
X54340476Y-43664286D01*
X54245238Y-43616667D01*
X54150000Y-43521429D01*
X54102381Y-43378571D01*
X54102381Y-43283333D01*
X54150000Y-43140476D01*
X54197619Y-43092857D01*
X54102381Y-42759524D02*
X54102381Y-42140476D01*
X54483333Y-42473810D01*
X54483333Y-42330952D01*
X54530952Y-42235714D01*
X54578571Y-42188095D01*
X54673810Y-42140476D01*
X54911905Y-42140476D01*
X55007143Y-42188095D01*
X55054762Y-42235714D01*
X55102381Y-42330952D01*
X55102381Y-42616667D01*
X55054762Y-42711905D01*
X55007143Y-42759524D01*
X54102381Y-41283333D02*
X54102381Y-41473810D01*
X54150000Y-41569048D01*
X54197619Y-41616667D01*
X54340476Y-41711905D01*
X54530952Y-41759524D01*
X54911905Y-41759524D01*
X55007143Y-41711905D01*
X55054762Y-41664286D01*
X55102381Y-41569048D01*
X55102381Y-41378571D01*
X55054762Y-41283333D01*
X55007143Y-41235714D01*
X54911905Y-41188095D01*
X54673810Y-41188095D01*
X54578571Y-41235714D01*
X54530952Y-41283333D01*
X54483333Y-41378571D01*
X54483333Y-41569048D01*
X54530952Y-41664286D01*
X54578571Y-41711905D01*
X54673810Y-41759524D01*
X46157143Y-58942857D02*
X46204762Y-58990476D01*
X46252381Y-59133333D01*
X46252381Y-59228571D01*
X46204762Y-59371429D01*
X46109524Y-59466667D01*
X46014286Y-59514286D01*
X45823810Y-59561905D01*
X45680952Y-59561905D01*
X45490476Y-59514286D01*
X45395238Y-59466667D01*
X45300000Y-59371429D01*
X45252381Y-59228571D01*
X45252381Y-59133333D01*
X45300000Y-58990476D01*
X45347619Y-58942857D01*
X45252381Y-58609524D02*
X45252381Y-57990476D01*
X45633333Y-58323810D01*
X45633333Y-58180952D01*
X45680952Y-58085714D01*
X45728571Y-58038095D01*
X45823810Y-57990476D01*
X46061905Y-57990476D01*
X46157143Y-58038095D01*
X46204762Y-58085714D01*
X46252381Y-58180952D01*
X46252381Y-58466667D01*
X46204762Y-58561905D01*
X46157143Y-58609524D01*
X45252381Y-57657143D02*
X45252381Y-56990476D01*
X46252381Y-57419048D01*
X55857143Y-49507143D02*
X55809524Y-49554762D01*
X55666667Y-49602381D01*
X55571429Y-49602381D01*
X55428571Y-49554762D01*
X55333333Y-49459524D01*
X55285714Y-49364286D01*
X55238095Y-49173810D01*
X55238095Y-49030952D01*
X55285714Y-48840476D01*
X55333333Y-48745238D01*
X55428571Y-48650000D01*
X55571429Y-48602381D01*
X55666667Y-48602381D01*
X55809524Y-48650000D01*
X55857143Y-48697619D01*
X56190476Y-48602381D02*
X56809524Y-48602381D01*
X56476190Y-48983333D01*
X56619048Y-48983333D01*
X56714286Y-49030952D01*
X56761905Y-49078571D01*
X56809524Y-49173810D01*
X56809524Y-49411905D01*
X56761905Y-49507143D01*
X56714286Y-49554762D01*
X56619048Y-49602381D01*
X56333333Y-49602381D01*
X56238095Y-49554762D01*
X56190476Y-49507143D01*
X57380952Y-49030952D02*
X57285714Y-48983333D01*
X57238095Y-48935714D01*
X57190476Y-48840476D01*
X57190476Y-48792857D01*
X57238095Y-48697619D01*
X57285714Y-48650000D01*
X57380952Y-48602381D01*
X57571429Y-48602381D01*
X57666667Y-48650000D01*
X57714286Y-48697619D01*
X57761905Y-48792857D01*
X57761905Y-48840476D01*
X57714286Y-48935714D01*
X57666667Y-48983333D01*
X57571429Y-49030952D01*
X57380952Y-49030952D01*
X57285714Y-49078571D01*
X57238095Y-49126190D01*
X57190476Y-49221429D01*
X57190476Y-49411905D01*
X57238095Y-49507143D01*
X57285714Y-49554762D01*
X57380952Y-49602381D01*
X57571429Y-49602381D01*
X57666667Y-49554762D01*
X57714286Y-49507143D01*
X57761905Y-49411905D01*
X57761905Y-49221429D01*
X57714286Y-49126190D01*
X57666667Y-49078571D01*
X57571429Y-49030952D01*
X56457143Y-43907143D02*
X56409524Y-43954762D01*
X56266667Y-44002381D01*
X56171429Y-44002381D01*
X56028571Y-43954762D01*
X55933333Y-43859524D01*
X55885714Y-43764286D01*
X55838095Y-43573810D01*
X55838095Y-43430952D01*
X55885714Y-43240476D01*
X55933333Y-43145238D01*
X56028571Y-43050000D01*
X56171429Y-43002381D01*
X56266667Y-43002381D01*
X56409524Y-43050000D01*
X56457143Y-43097619D01*
X56790476Y-43002381D02*
X57409524Y-43002381D01*
X57076190Y-43383333D01*
X57219048Y-43383333D01*
X57314286Y-43430952D01*
X57361905Y-43478571D01*
X57409524Y-43573810D01*
X57409524Y-43811905D01*
X57361905Y-43907143D01*
X57314286Y-43954762D01*
X57219048Y-44002381D01*
X56933333Y-44002381D01*
X56838095Y-43954762D01*
X56790476Y-43907143D01*
X57885714Y-44002381D02*
X58076190Y-44002381D01*
X58171429Y-43954762D01*
X58219048Y-43907143D01*
X58314286Y-43764286D01*
X58361905Y-43573810D01*
X58361905Y-43192857D01*
X58314286Y-43097619D01*
X58266667Y-43050000D01*
X58171429Y-43002381D01*
X57980952Y-43002381D01*
X57885714Y-43050000D01*
X57838095Y-43097619D01*
X57790476Y-43192857D01*
X57790476Y-43430952D01*
X57838095Y-43526190D01*
X57885714Y-43573810D01*
X57980952Y-43621429D01*
X58171429Y-43621429D01*
X58266667Y-43573810D01*
X58314286Y-43526190D01*
X58361905Y-43430952D01*
X60921905Y-30712381D02*
X60921905Y-29712381D01*
X61302858Y-29712381D01*
X61398096Y-29760000D01*
X61445715Y-29807619D01*
X61493334Y-29902857D01*
X61493334Y-30045714D01*
X61445715Y-30140952D01*
X61398096Y-30188571D01*
X61302858Y-30236190D01*
X60921905Y-30236190D01*
X61826667Y-29712381D02*
X62493334Y-29712381D01*
X62064762Y-30712381D01*
X39652381Y-58699999D02*
X39176190Y-59033333D01*
X39652381Y-59271428D02*
X38652381Y-59271428D01*
X38652381Y-58890475D01*
X38700000Y-58795237D01*
X38747619Y-58747618D01*
X38842857Y-58699999D01*
X38985714Y-58699999D01*
X39080952Y-58747618D01*
X39128571Y-58795237D01*
X39176190Y-58890475D01*
X39176190Y-59271428D01*
X39652381Y-57747618D02*
X39652381Y-58319047D01*
X39652381Y-58033333D02*
X38652381Y-58033333D01*
X38795238Y-58128571D01*
X38890476Y-58223809D01*
X38938095Y-58319047D01*
X38652381Y-57414285D02*
X38652381Y-56795237D01*
X39033333Y-57128571D01*
X39033333Y-56985713D01*
X39080952Y-56890475D01*
X39128571Y-56842856D01*
X39223810Y-56795237D01*
X39461905Y-56795237D01*
X39557143Y-56842856D01*
X39604762Y-56890475D01*
X39652381Y-56985713D01*
X39652381Y-57271428D01*
X39604762Y-57366666D01*
X39557143Y-57414285D01*
X29515356Y-47752381D02*
X29182022Y-47276190D01*
X28943927Y-47752381D02*
X28943927Y-46752381D01*
X29324880Y-46752381D01*
X29420118Y-46800000D01*
X29467737Y-46847619D01*
X29515356Y-46942857D01*
X29515356Y-47085714D01*
X29467737Y-47180952D01*
X29420118Y-47228571D01*
X29324880Y-47276190D01*
X28943927Y-47276190D01*
X30467737Y-47752381D02*
X29896308Y-47752381D01*
X30182022Y-47752381D02*
X30182022Y-46752381D01*
X30086784Y-46895238D01*
X29991546Y-46990476D01*
X29896308Y-47038095D01*
X31324880Y-47085714D02*
X31324880Y-47752381D01*
X31086784Y-46704762D02*
X30848689Y-47419048D01*
X31467737Y-47419048D01*
X53432381Y-37242857D02*
X52956190Y-37576191D01*
X53432381Y-37814286D02*
X52432381Y-37814286D01*
X52432381Y-37433333D01*
X52480000Y-37338095D01*
X52527619Y-37290476D01*
X52622857Y-37242857D01*
X52765714Y-37242857D01*
X52860952Y-37290476D01*
X52908571Y-37338095D01*
X52956190Y-37433333D01*
X52956190Y-37814286D01*
X53432381Y-36290476D02*
X53432381Y-36861905D01*
X53432381Y-36576191D02*
X52432381Y-36576191D01*
X52575238Y-36671429D01*
X52670476Y-36766667D01*
X52718095Y-36861905D01*
X53432381Y-35814286D02*
X53432381Y-35623810D01*
X53384762Y-35528571D01*
X53337143Y-35480952D01*
X53194286Y-35385714D01*
X53003810Y-35338095D01*
X52622857Y-35338095D01*
X52527619Y-35385714D01*
X52480000Y-35433333D01*
X52432381Y-35528571D01*
X52432381Y-35719048D01*
X52480000Y-35814286D01*
X52527619Y-35861905D01*
X52622857Y-35909524D01*
X52860952Y-35909524D01*
X52956190Y-35861905D01*
X53003810Y-35814286D01*
X53051429Y-35719048D01*
X53051429Y-35528571D01*
X53003810Y-35433333D01*
X52956190Y-35385714D01*
X52860952Y-35338095D01*
X38807143Y-29752381D02*
X38473809Y-29276190D01*
X38235714Y-29752381D02*
X38235714Y-28752381D01*
X38616667Y-28752381D01*
X38711905Y-28800000D01*
X38759524Y-28847619D01*
X38807143Y-28942857D01*
X38807143Y-29085714D01*
X38759524Y-29180952D01*
X38711905Y-29228571D01*
X38616667Y-29276190D01*
X38235714Y-29276190D01*
X39188095Y-28847619D02*
X39235714Y-28800000D01*
X39330952Y-28752381D01*
X39569048Y-28752381D01*
X39664286Y-28800000D01*
X39711905Y-28847619D01*
X39759524Y-28942857D01*
X39759524Y-29038095D01*
X39711905Y-29180952D01*
X39140476Y-29752381D01*
X39759524Y-29752381D01*
X40378571Y-28752381D02*
X40473810Y-28752381D01*
X40569048Y-28800000D01*
X40616667Y-28847619D01*
X40664286Y-28942857D01*
X40711905Y-29133333D01*
X40711905Y-29371429D01*
X40664286Y-29561905D01*
X40616667Y-29657143D01*
X40569048Y-29704762D01*
X40473810Y-29752381D01*
X40378571Y-29752381D01*
X40283333Y-29704762D01*
X40235714Y-29657143D01*
X40188095Y-29561905D01*
X40140476Y-29371429D01*
X40140476Y-29133333D01*
X40188095Y-28942857D01*
X40235714Y-28847619D01*
X40283333Y-28800000D01*
X40378571Y-28752381D01*
X42557143Y-29702381D02*
X42223809Y-29226190D01*
X41985714Y-29702381D02*
X41985714Y-28702381D01*
X42366667Y-28702381D01*
X42461905Y-28750000D01*
X42509524Y-28797619D01*
X42557143Y-28892857D01*
X42557143Y-29035714D01*
X42509524Y-29130952D01*
X42461905Y-29178571D01*
X42366667Y-29226190D01*
X41985714Y-29226190D01*
X42938095Y-28797619D02*
X42985714Y-28750000D01*
X43080952Y-28702381D01*
X43319048Y-28702381D01*
X43414286Y-28750000D01*
X43461905Y-28797619D01*
X43509524Y-28892857D01*
X43509524Y-28988095D01*
X43461905Y-29130952D01*
X42890476Y-29702381D01*
X43509524Y-29702381D01*
X44461905Y-29702381D02*
X43890476Y-29702381D01*
X44176190Y-29702381D02*
X44176190Y-28702381D01*
X44080952Y-28845238D01*
X43985714Y-28940476D01*
X43890476Y-28988095D01*
X36694381Y-32142857D02*
X36218190Y-32476191D01*
X36694381Y-32714286D02*
X35694381Y-32714286D01*
X35694381Y-32333333D01*
X35742000Y-32238095D01*
X35789619Y-32190476D01*
X35884857Y-32142857D01*
X36027714Y-32142857D01*
X36122952Y-32190476D01*
X36170571Y-32238095D01*
X36218190Y-32333333D01*
X36218190Y-32714286D01*
X35789619Y-31761905D02*
X35742000Y-31714286D01*
X35694381Y-31619048D01*
X35694381Y-31380952D01*
X35742000Y-31285714D01*
X35789619Y-31238095D01*
X35884857Y-31190476D01*
X35980095Y-31190476D01*
X36122952Y-31238095D01*
X36694381Y-31809524D01*
X36694381Y-31190476D01*
X35789619Y-30809524D02*
X35742000Y-30761905D01*
X35694381Y-30666667D01*
X35694381Y-30428571D01*
X35742000Y-30333333D01*
X35789619Y-30285714D01*
X35884857Y-30238095D01*
X35980095Y-30238095D01*
X36122952Y-30285714D01*
X36694381Y-30857143D01*
X36694381Y-30238095D01*
X40660381Y-35566857D02*
X40184190Y-35900191D01*
X40660381Y-36138286D02*
X39660381Y-36138286D01*
X39660381Y-35757333D01*
X39708000Y-35662095D01*
X39755619Y-35614476D01*
X39850857Y-35566857D01*
X39993714Y-35566857D01*
X40088952Y-35614476D01*
X40136571Y-35662095D01*
X40184190Y-35757333D01*
X40184190Y-36138286D01*
X39755619Y-35185905D02*
X39708000Y-35138286D01*
X39660381Y-35043048D01*
X39660381Y-34804952D01*
X39708000Y-34709714D01*
X39755619Y-34662095D01*
X39850857Y-34614476D01*
X39946095Y-34614476D01*
X40088952Y-34662095D01*
X40660381Y-35233524D01*
X40660381Y-34614476D01*
X39660381Y-34281143D02*
X39660381Y-33662095D01*
X40041333Y-33995429D01*
X40041333Y-33852571D01*
X40088952Y-33757333D01*
X40136571Y-33709714D01*
X40231810Y-33662095D01*
X40469905Y-33662095D01*
X40565143Y-33709714D01*
X40612762Y-33757333D01*
X40660381Y-33852571D01*
X40660381Y-34138286D01*
X40612762Y-34233524D01*
X40565143Y-34281143D01*
X40660381Y-38868857D02*
X40184190Y-39202191D01*
X40660381Y-39440286D02*
X39660381Y-39440286D01*
X39660381Y-39059333D01*
X39708000Y-38964095D01*
X39755619Y-38916476D01*
X39850857Y-38868857D01*
X39993714Y-38868857D01*
X40088952Y-38916476D01*
X40136571Y-38964095D01*
X40184190Y-39059333D01*
X40184190Y-39440286D01*
X39755619Y-38487905D02*
X39708000Y-38440286D01*
X39660381Y-38345048D01*
X39660381Y-38106952D01*
X39708000Y-38011714D01*
X39755619Y-37964095D01*
X39850857Y-37916476D01*
X39946095Y-37916476D01*
X40088952Y-37964095D01*
X40660381Y-38535524D01*
X40660381Y-37916476D01*
X39993714Y-37059333D02*
X40660381Y-37059333D01*
X39612762Y-37297429D02*
X40327048Y-37535524D01*
X40327048Y-36916476D01*
X36352381Y-42642857D02*
X35876190Y-42976191D01*
X36352381Y-43214286D02*
X35352381Y-43214286D01*
X35352381Y-42833333D01*
X35400000Y-42738095D01*
X35447619Y-42690476D01*
X35542857Y-42642857D01*
X35685714Y-42642857D01*
X35780952Y-42690476D01*
X35828571Y-42738095D01*
X35876190Y-42833333D01*
X35876190Y-43214286D01*
X35447619Y-42261905D02*
X35400000Y-42214286D01*
X35352381Y-42119048D01*
X35352381Y-41880952D01*
X35400000Y-41785714D01*
X35447619Y-41738095D01*
X35542857Y-41690476D01*
X35638095Y-41690476D01*
X35780952Y-41738095D01*
X36352381Y-42309524D01*
X36352381Y-41690476D01*
X35352381Y-40785714D02*
X35352381Y-41261905D01*
X35828571Y-41309524D01*
X35780952Y-41261905D01*
X35733333Y-41166667D01*
X35733333Y-40928571D01*
X35780952Y-40833333D01*
X35828571Y-40785714D01*
X35923810Y-40738095D01*
X36161905Y-40738095D01*
X36257143Y-40785714D01*
X36304762Y-40833333D01*
X36352381Y-40928571D01*
X36352381Y-41166667D01*
X36304762Y-41261905D01*
X36257143Y-41309524D01*
X34457143Y-25652381D02*
X34123809Y-25176190D01*
X33885714Y-25652381D02*
X33885714Y-24652381D01*
X34266667Y-24652381D01*
X34361905Y-24700000D01*
X34409524Y-24747619D01*
X34457143Y-24842857D01*
X34457143Y-24985714D01*
X34409524Y-25080952D01*
X34361905Y-25128571D01*
X34266667Y-25176190D01*
X33885714Y-25176190D01*
X34838095Y-24747619D02*
X34885714Y-24700000D01*
X34980952Y-24652381D01*
X35219048Y-24652381D01*
X35314286Y-24700000D01*
X35361905Y-24747619D01*
X35409524Y-24842857D01*
X35409524Y-24938095D01*
X35361905Y-25080952D01*
X34790476Y-25652381D01*
X35409524Y-25652381D01*
X36266667Y-24652381D02*
X36076190Y-24652381D01*
X35980952Y-24700000D01*
X35933333Y-24747619D01*
X35838095Y-24890476D01*
X35790476Y-25080952D01*
X35790476Y-25461905D01*
X35838095Y-25557143D01*
X35885714Y-25604762D01*
X35980952Y-25652381D01*
X36171429Y-25652381D01*
X36266667Y-25604762D01*
X36314286Y-25557143D01*
X36361905Y-25461905D01*
X36361905Y-25223810D01*
X36314286Y-25128571D01*
X36266667Y-25080952D01*
X36171429Y-25033333D01*
X35980952Y-25033333D01*
X35885714Y-25080952D01*
X35838095Y-25128571D01*
X35790476Y-25223810D01*
X31411905Y-21302381D02*
X31411905Y-20302381D01*
X31650000Y-20302381D01*
X31792858Y-20350000D01*
X31888096Y-20445238D01*
X31935715Y-20540476D01*
X31983334Y-20730952D01*
X31983334Y-20873810D01*
X31935715Y-21064286D01*
X31888096Y-21159524D01*
X31792858Y-21254762D01*
X31650000Y-21302381D01*
X31411905Y-21302381D01*
X32316667Y-20302381D02*
X32935715Y-20302381D01*
X32602381Y-20683333D01*
X32745239Y-20683333D01*
X32840477Y-20730952D01*
X32888096Y-20778571D01*
X32935715Y-20873810D01*
X32935715Y-21111905D01*
X32888096Y-21207143D01*
X32840477Y-21254762D01*
X32745239Y-21302381D01*
X32459524Y-21302381D01*
X32364286Y-21254762D01*
X32316667Y-21207143D01*
X50592381Y-58602857D02*
X50116190Y-58936191D01*
X50592381Y-59174286D02*
X49592381Y-59174286D01*
X49592381Y-58793333D01*
X49640000Y-58698095D01*
X49687619Y-58650476D01*
X49782857Y-58602857D01*
X49925714Y-58602857D01*
X50020952Y-58650476D01*
X50068571Y-58698095D01*
X50116190Y-58793333D01*
X50116190Y-59174286D01*
X49925714Y-57745714D02*
X50592381Y-57745714D01*
X49544762Y-57983810D02*
X50259048Y-58221905D01*
X50259048Y-57602857D01*
X49687619Y-57269524D02*
X49640000Y-57221905D01*
X49592381Y-57126667D01*
X49592381Y-56888571D01*
X49640000Y-56793333D01*
X49687619Y-56745714D01*
X49782857Y-56698095D01*
X49878095Y-56698095D01*
X50020952Y-56745714D01*
X50592381Y-57317143D01*
X50592381Y-56698095D01*
X47617143Y-53030381D02*
X47283809Y-52554190D01*
X47045714Y-53030381D02*
X47045714Y-52030381D01*
X47426667Y-52030381D01*
X47521905Y-52078000D01*
X47569524Y-52125619D01*
X47617143Y-52220857D01*
X47617143Y-52363714D01*
X47569524Y-52458952D01*
X47521905Y-52506571D01*
X47426667Y-52554190D01*
X47045714Y-52554190D01*
X48474286Y-52363714D02*
X48474286Y-53030381D01*
X48236190Y-51982762D02*
X47998095Y-52697048D01*
X48617143Y-52697048D01*
X48902857Y-52030381D02*
X49521905Y-52030381D01*
X49188571Y-52411333D01*
X49331429Y-52411333D01*
X49426667Y-52458952D01*
X49474286Y-52506571D01*
X49521905Y-52601810D01*
X49521905Y-52839905D01*
X49474286Y-52935143D01*
X49426667Y-52982762D01*
X49331429Y-53030381D01*
X49045714Y-53030381D01*
X48950476Y-52982762D01*
X48902857Y-52935143D01*
X48292381Y-62052857D02*
X47816190Y-62386191D01*
X48292381Y-62624286D02*
X47292381Y-62624286D01*
X47292381Y-62243333D01*
X47340000Y-62148095D01*
X47387619Y-62100476D01*
X47482857Y-62052857D01*
X47625714Y-62052857D01*
X47720952Y-62100476D01*
X47768571Y-62148095D01*
X47816190Y-62243333D01*
X47816190Y-62624286D01*
X47625714Y-61195714D02*
X48292381Y-61195714D01*
X47244762Y-61433810D02*
X47959048Y-61671905D01*
X47959048Y-61052857D01*
X47625714Y-60243333D02*
X48292381Y-60243333D01*
X47244762Y-60481429D02*
X47959048Y-60719524D01*
X47959048Y-60100476D01*
X69365905Y-39314381D02*
X69365905Y-38314381D01*
X69604000Y-38314381D01*
X69746858Y-38362000D01*
X69842096Y-38457238D01*
X69889715Y-38552476D01*
X69937334Y-38742952D01*
X69937334Y-38885810D01*
X69889715Y-39076286D01*
X69842096Y-39171524D01*
X69746858Y-39266762D01*
X69604000Y-39314381D01*
X69365905Y-39314381D01*
X70794477Y-38647714D02*
X70794477Y-39314381D01*
X70556381Y-38266762D02*
X70318286Y-38981048D01*
X70937334Y-38981048D01*
X20662381Y-77018095D02*
X19662381Y-77018095D01*
X19662381Y-76780000D01*
X19710000Y-76637142D01*
X19805238Y-76541904D01*
X19900476Y-76494285D01*
X20090952Y-76446666D01*
X20233810Y-76446666D01*
X20424286Y-76494285D01*
X20519524Y-76541904D01*
X20614762Y-76637142D01*
X20662381Y-76780000D01*
X20662381Y-77018095D01*
X19662381Y-75541904D02*
X19662381Y-76018095D01*
X20138571Y-76065714D01*
X20090952Y-76018095D01*
X20043333Y-75922857D01*
X20043333Y-75684761D01*
X20090952Y-75589523D01*
X20138571Y-75541904D01*
X20233810Y-75494285D01*
X20471905Y-75494285D01*
X20567143Y-75541904D01*
X20614762Y-75589523D01*
X20662381Y-75684761D01*
X20662381Y-75922857D01*
X20614762Y-76018095D01*
X20567143Y-76065714D01*
X93762381Y-73798095D02*
X92762381Y-73798095D01*
X92762381Y-73560000D01*
X92810000Y-73417142D01*
X92905238Y-73321904D01*
X93000476Y-73274285D01*
X93190952Y-73226666D01*
X93333810Y-73226666D01*
X93524286Y-73274285D01*
X93619524Y-73321904D01*
X93714762Y-73417142D01*
X93762381Y-73560000D01*
X93762381Y-73798095D01*
X92762381Y-72369523D02*
X92762381Y-72560000D01*
X92810000Y-72655238D01*
X92857619Y-72702857D01*
X93000476Y-72798095D01*
X93190952Y-72845714D01*
X93571905Y-72845714D01*
X93667143Y-72798095D01*
X93714762Y-72750476D01*
X93762381Y-72655238D01*
X93762381Y-72464761D01*
X93714762Y-72369523D01*
X93667143Y-72321904D01*
X93571905Y-72274285D01*
X93333810Y-72274285D01*
X93238571Y-72321904D01*
X93190952Y-72369523D01*
X93143333Y-72464761D01*
X93143333Y-72655238D01*
X93190952Y-72750476D01*
X93238571Y-72798095D01*
X93333810Y-72845714D01*
X96262381Y-73788095D02*
X95262381Y-73788095D01*
X95262381Y-73550000D01*
X95310000Y-73407142D01*
X95405238Y-73311904D01*
X95500476Y-73264285D01*
X95690952Y-73216666D01*
X95833810Y-73216666D01*
X96024286Y-73264285D01*
X96119524Y-73311904D01*
X96214762Y-73407142D01*
X96262381Y-73550000D01*
X96262381Y-73788095D01*
X95262381Y-72883333D02*
X95262381Y-72216666D01*
X96262381Y-72645238D01*
X36552381Y-75238095D02*
X35552381Y-75238095D01*
X35552381Y-75000000D01*
X35600000Y-74857142D01*
X35695238Y-74761904D01*
X35790476Y-74714285D01*
X35980952Y-74666666D01*
X36123810Y-74666666D01*
X36314286Y-74714285D01*
X36409524Y-74761904D01*
X36504762Y-74857142D01*
X36552381Y-75000000D01*
X36552381Y-75238095D01*
X35980952Y-74095238D02*
X35933333Y-74190476D01*
X35885714Y-74238095D01*
X35790476Y-74285714D01*
X35742857Y-74285714D01*
X35647619Y-74238095D01*
X35600000Y-74190476D01*
X35552381Y-74095238D01*
X35552381Y-73904761D01*
X35600000Y-73809523D01*
X35647619Y-73761904D01*
X35742857Y-73714285D01*
X35790476Y-73714285D01*
X35885714Y-73761904D01*
X35933333Y-73809523D01*
X35980952Y-73904761D01*
X35980952Y-74095238D01*
X36028571Y-74190476D01*
X36076190Y-74238095D01*
X36171429Y-74285714D01*
X36361905Y-74285714D01*
X36457143Y-74238095D01*
X36504762Y-74190476D01*
X36552381Y-74095238D01*
X36552381Y-73904761D01*
X36504762Y-73809523D01*
X36457143Y-73761904D01*
X36361905Y-73714285D01*
X36171429Y-73714285D01*
X36076190Y-73761904D01*
X36028571Y-73809523D01*
X35980952Y-73904761D01*
X78202381Y-33788095D02*
X77202381Y-33788095D01*
X77202381Y-33550000D01*
X77250000Y-33407142D01*
X77345238Y-33311904D01*
X77440476Y-33264285D01*
X77630952Y-33216666D01*
X77773810Y-33216666D01*
X77964286Y-33264285D01*
X78059524Y-33311904D01*
X78154762Y-33407142D01*
X78202381Y-33550000D01*
X78202381Y-33788095D01*
X78202381Y-32740476D02*
X78202381Y-32550000D01*
X78154762Y-32454761D01*
X78107143Y-32407142D01*
X77964286Y-32311904D01*
X77773810Y-32264285D01*
X77392857Y-32264285D01*
X77297619Y-32311904D01*
X77250000Y-32359523D01*
X77202381Y-32454761D01*
X77202381Y-32645238D01*
X77250000Y-32740476D01*
X77297619Y-32788095D01*
X77392857Y-32835714D01*
X77630952Y-32835714D01*
X77726190Y-32788095D01*
X77773810Y-32740476D01*
X77821429Y-32645238D01*
X77821429Y-32454761D01*
X77773810Y-32359523D01*
X77726190Y-32311904D01*
X77630952Y-32264285D01*
X51645714Y-32252381D02*
X51645714Y-31252381D01*
X51883809Y-31252381D01*
X52026667Y-31300000D01*
X52121905Y-31395238D01*
X52169524Y-31490476D01*
X52217143Y-31680952D01*
X52217143Y-31823810D01*
X52169524Y-32014286D01*
X52121905Y-32109524D01*
X52026667Y-32204762D01*
X51883809Y-32252381D01*
X51645714Y-32252381D01*
X53169524Y-32252381D02*
X52598095Y-32252381D01*
X52883809Y-32252381D02*
X52883809Y-31252381D01*
X52788571Y-31395238D01*
X52693333Y-31490476D01*
X52598095Y-31538095D01*
X53788571Y-31252381D02*
X53883810Y-31252381D01*
X53979048Y-31300000D01*
X54026667Y-31347619D01*
X54074286Y-31442857D01*
X54121905Y-31633333D01*
X54121905Y-31871429D01*
X54074286Y-32061905D01*
X54026667Y-32157143D01*
X53979048Y-32204762D01*
X53883810Y-32252381D01*
X53788571Y-32252381D01*
X53693333Y-32204762D01*
X53645714Y-32157143D01*
X53598095Y-32061905D01*
X53550476Y-31871429D01*
X53550476Y-31633333D01*
X53598095Y-31442857D01*
X53645714Y-31347619D01*
X53693333Y-31300000D01*
X53788571Y-31252381D01*
X83081905Y-32782381D02*
X83081905Y-31782381D01*
X83462858Y-31782381D01*
X83558096Y-31830000D01*
X83605715Y-31877619D01*
X83653334Y-31972857D01*
X83653334Y-32115714D01*
X83605715Y-32210952D01*
X83558096Y-32258571D01*
X83462858Y-32306190D01*
X83081905Y-32306190D01*
X84605715Y-32782381D02*
X84034286Y-32782381D01*
X84320000Y-32782381D02*
X84320000Y-31782381D01*
X84224762Y-31925238D01*
X84129524Y-32020476D01*
X84034286Y-32068095D01*
X95016667Y-17343281D02*
X94683333Y-16867090D01*
X94445238Y-17343281D02*
X94445238Y-16343281D01*
X94826191Y-16343281D01*
X94921429Y-16390900D01*
X94969048Y-16438519D01*
X95016667Y-16533757D01*
X95016667Y-16676614D01*
X94969048Y-16771852D01*
X94921429Y-16819471D01*
X94826191Y-16867090D01*
X94445238Y-16867090D01*
X95445238Y-16819471D02*
X95778572Y-16819471D01*
X95921429Y-17343281D02*
X95445238Y-17343281D01*
X95445238Y-16343281D01*
X95921429Y-16343281D01*
X96683334Y-16819471D02*
X96350000Y-16819471D01*
X96350000Y-17343281D02*
X96350000Y-16343281D01*
X96826191Y-16343281D01*
X97350000Y-16343281D02*
X97350000Y-16581376D01*
X97111905Y-16486138D02*
X97350000Y-16581376D01*
X97588096Y-16486138D01*
X97207143Y-16771852D02*
X97350000Y-16581376D01*
X97492858Y-16771852D01*
X98111905Y-16343281D02*
X98111905Y-16581376D01*
X97873810Y-16486138D02*
X98111905Y-16581376D01*
X98350001Y-16486138D01*
X97969048Y-16771852D02*
X98111905Y-16581376D01*
X98254763Y-16771852D01*
M02*
