G04 #@! TF.FileFunction,Soldermask,Bot*
%FSLAX46Y46*%
G04 Gerber Fmt 4.6, Leading zero omitted, Abs format (unit mm)*
G04 Created by KiCad (PCBNEW 4.0.4+e1-6308~48~ubuntu14.04.1-stable) date Wed Oct 19 19:57:22 2016*
%MOMM*%
%LPD*%
G01*
G04 APERTURE LIST*
%ADD10C,0.100000*%
%ADD11R,2.127200X2.127200*%
%ADD12O,2.127200X2.127200*%
%ADD13R,1.650000X1.400000*%
%ADD14R,1.700000X1.100000*%
%ADD15R,1.100000X1.700000*%
%ADD16R,2.101600X0.701600*%
%ADD17C,1.400000*%
G04 APERTURE END LIST*
D10*
D11*
X22110000Y-81000000D03*
D12*
X24650000Y-81000000D03*
X22110000Y-83540000D03*
X24650000Y-83540000D03*
X22110000Y-86080000D03*
X24650000Y-86080000D03*
X22110000Y-88620000D03*
X24650000Y-88620000D03*
X22110000Y-91160000D03*
X24650000Y-91160000D03*
X22110000Y-93700000D03*
X24650000Y-93700000D03*
X22110000Y-96240000D03*
X24650000Y-96240000D03*
X22110000Y-98780000D03*
X24650000Y-98780000D03*
X22110000Y-101320000D03*
X24650000Y-101320000D03*
X22110000Y-103860000D03*
X24650000Y-103860000D03*
X22110000Y-106400000D03*
X24650000Y-106400000D03*
X22110000Y-108940000D03*
X24650000Y-108940000D03*
X22110000Y-111480000D03*
X24650000Y-111480000D03*
X22110000Y-114020000D03*
X24650000Y-114020000D03*
X22110000Y-116560000D03*
X24650000Y-116560000D03*
X22110000Y-119100000D03*
X24650000Y-119100000D03*
X22110000Y-121640000D03*
X24650000Y-121640000D03*
X22110000Y-124180000D03*
X24650000Y-124180000D03*
X22110000Y-126720000D03*
X24650000Y-126720000D03*
X22110000Y-129260000D03*
X24650000Y-129260000D03*
D13*
X29696266Y-109111832D03*
X29696266Y-107111832D03*
D10*
G36*
X67678338Y-101311612D02*
X66511612Y-102478338D01*
X65521662Y-101488388D01*
X66688388Y-100321662D01*
X67678338Y-101311612D01*
X67678338Y-101311612D01*
G37*
G36*
X66264124Y-99897398D02*
X65097398Y-101064124D01*
X64107448Y-100074174D01*
X65274174Y-98907448D01*
X66264124Y-99897398D01*
X66264124Y-99897398D01*
G37*
D13*
X50600000Y-111400000D03*
X50600000Y-109400000D03*
D10*
G36*
X72981281Y-99785445D02*
X71814555Y-98618719D01*
X72804505Y-97628769D01*
X73971231Y-98795495D01*
X72981281Y-99785445D01*
X72981281Y-99785445D01*
G37*
G36*
X74395495Y-98371231D02*
X73228769Y-97204505D01*
X74218719Y-96214555D01*
X75385445Y-97381281D01*
X74395495Y-98371231D01*
X74395495Y-98371231D01*
G37*
G36*
X69164555Y-117931281D02*
X70331281Y-116764555D01*
X71321231Y-117754505D01*
X70154505Y-118921231D01*
X69164555Y-117931281D01*
X69164555Y-117931281D01*
G37*
G36*
X70578769Y-119345495D02*
X71745495Y-118178769D01*
X72735445Y-119168719D01*
X71568719Y-120335445D01*
X70578769Y-119345495D01*
X70578769Y-119345495D01*
G37*
G36*
X67278338Y-96361612D02*
X66111612Y-97528338D01*
X65121662Y-96538388D01*
X66288388Y-95371662D01*
X67278338Y-96361612D01*
X67278338Y-96361612D01*
G37*
G36*
X65864124Y-94947398D02*
X64697398Y-96114124D01*
X63707448Y-95124174D01*
X64874174Y-93957448D01*
X65864124Y-94947398D01*
X65864124Y-94947398D01*
G37*
G36*
X62861612Y-112671662D02*
X64028338Y-113838388D01*
X63038388Y-114828338D01*
X61871662Y-113661612D01*
X62861612Y-112671662D01*
X62861612Y-112671662D01*
G37*
G36*
X61447398Y-114085876D02*
X62614124Y-115252602D01*
X61624174Y-116242552D01*
X60457448Y-115075826D01*
X61447398Y-114085876D01*
X61447398Y-114085876D01*
G37*
G36*
X60414555Y-103681281D02*
X61581281Y-102514555D01*
X62571231Y-103504505D01*
X61404505Y-104671231D01*
X60414555Y-103681281D01*
X60414555Y-103681281D01*
G37*
G36*
X61828769Y-105095495D02*
X62995495Y-103928769D01*
X63985445Y-104918719D01*
X62818719Y-106085445D01*
X61828769Y-105095495D01*
X61828769Y-105095495D01*
G37*
D13*
X31982266Y-109111832D03*
X31982266Y-107111832D03*
D10*
G36*
X64031281Y-111885445D02*
X62864555Y-110718719D01*
X63854505Y-109728769D01*
X65021231Y-110895495D01*
X64031281Y-111885445D01*
X64031281Y-111885445D01*
G37*
G36*
X65445495Y-110471231D02*
X64278769Y-109304505D01*
X65268719Y-108314555D01*
X66435445Y-109481281D01*
X65445495Y-110471231D01*
X65445495Y-110471231D01*
G37*
G36*
X77018719Y-104364555D02*
X78185445Y-105531281D01*
X77195495Y-106521231D01*
X76028769Y-105354505D01*
X77018719Y-104364555D01*
X77018719Y-104364555D01*
G37*
G36*
X75604505Y-105778769D02*
X76771231Y-106945495D01*
X75781281Y-107935445D01*
X74614555Y-106768719D01*
X75604505Y-105778769D01*
X75604505Y-105778769D01*
G37*
D13*
X38568266Y-103395832D03*
X38568266Y-105395832D03*
D10*
G36*
X70468719Y-97864555D02*
X71635445Y-99031281D01*
X70645495Y-100021231D01*
X69478769Y-98854505D01*
X70468719Y-97864555D01*
X70468719Y-97864555D01*
G37*
G36*
X69054505Y-99278769D02*
X70221231Y-100445495D01*
X69231281Y-101435445D01*
X68064555Y-100268719D01*
X69054505Y-99278769D01*
X69054505Y-99278769D01*
G37*
D13*
X38568266Y-109045832D03*
X38568266Y-107045832D03*
D10*
G36*
X75592552Y-109875826D02*
X74425826Y-111042552D01*
X73435876Y-110052602D01*
X74602602Y-108885876D01*
X75592552Y-109875826D01*
X75592552Y-109875826D01*
G37*
G36*
X74178338Y-108461612D02*
X73011612Y-109628338D01*
X72021662Y-108638388D01*
X73188388Y-107471662D01*
X74178338Y-108461612D01*
X74178338Y-108461612D01*
G37*
G36*
X58414555Y-105731281D02*
X59581281Y-104564555D01*
X60571231Y-105554505D01*
X59404505Y-106721231D01*
X58414555Y-105731281D01*
X58414555Y-105731281D01*
G37*
G36*
X59828769Y-107145495D02*
X60995495Y-105978769D01*
X61985445Y-106968719D01*
X60818719Y-108135445D01*
X59828769Y-107145495D01*
X59828769Y-107145495D01*
G37*
D13*
X35538266Y-109111832D03*
X35538266Y-107111832D03*
X33718266Y-103445832D03*
X33718266Y-105445832D03*
X52800000Y-107750000D03*
X52800000Y-105750000D03*
D10*
G36*
X66774174Y-115042552D02*
X65607448Y-113875826D01*
X66597398Y-112885876D01*
X67764124Y-114052602D01*
X66774174Y-115042552D01*
X66774174Y-115042552D01*
G37*
G36*
X68188388Y-113628338D02*
X67021662Y-112461612D01*
X68011612Y-111471662D01*
X69178338Y-112638388D01*
X68188388Y-113628338D01*
X68188388Y-113628338D01*
G37*
G36*
X72942552Y-112525826D02*
X71775826Y-113692552D01*
X70785876Y-112702602D01*
X71952602Y-111535876D01*
X72942552Y-112525826D01*
X72942552Y-112525826D01*
G37*
G36*
X71528338Y-111111612D02*
X70361612Y-112278338D01*
X69371662Y-111288388D01*
X70538388Y-110121662D01*
X71528338Y-111111612D01*
X71528338Y-111111612D01*
G37*
D11*
X93230000Y-81000000D03*
D12*
X95770000Y-81000000D03*
X93230000Y-83540000D03*
X95770000Y-83540000D03*
X93230000Y-86080000D03*
X95770000Y-86080000D03*
X93230000Y-88620000D03*
X95770000Y-88620000D03*
X93230000Y-91160000D03*
X95770000Y-91160000D03*
X93230000Y-93700000D03*
X95770000Y-93700000D03*
X93230000Y-96240000D03*
X95770000Y-96240000D03*
X93230000Y-98780000D03*
X95770000Y-98780000D03*
X93230000Y-101320000D03*
X95770000Y-101320000D03*
X93230000Y-103860000D03*
X95770000Y-103860000D03*
X93230000Y-106400000D03*
X95770000Y-106400000D03*
X93230000Y-108940000D03*
X95770000Y-108940000D03*
X93230000Y-111480000D03*
X95770000Y-111480000D03*
X93230000Y-114020000D03*
X95770000Y-114020000D03*
X93230000Y-116560000D03*
X95770000Y-116560000D03*
X93230000Y-119100000D03*
X95770000Y-119100000D03*
X93230000Y-121640000D03*
X95770000Y-121640000D03*
X93230000Y-124180000D03*
X95770000Y-124180000D03*
X93230000Y-126720000D03*
X95770000Y-126720000D03*
X93230000Y-129260000D03*
X95770000Y-129260000D03*
D11*
X34262266Y-141199832D03*
D12*
X34262266Y-138659832D03*
X36802266Y-141199832D03*
X36802266Y-138659832D03*
X39342266Y-141199832D03*
X39342266Y-138659832D03*
X41882266Y-141199832D03*
X41882266Y-138659832D03*
X44422266Y-141199832D03*
X44422266Y-138659832D03*
X46962266Y-141199832D03*
X46962266Y-138659832D03*
X49502266Y-141199832D03*
X49502266Y-138659832D03*
X52042266Y-141199832D03*
X52042266Y-138659832D03*
X54582266Y-141199832D03*
X54582266Y-138659832D03*
X57122266Y-141199832D03*
X57122266Y-138659832D03*
X59662266Y-141199832D03*
X59662266Y-138659832D03*
X62202266Y-141199832D03*
X62202266Y-138659832D03*
X64742266Y-141199832D03*
X64742266Y-138659832D03*
X67282266Y-141199832D03*
X67282266Y-138659832D03*
X69822266Y-141199832D03*
X69822266Y-138659832D03*
X72362266Y-141199832D03*
X72362266Y-138659832D03*
X74902266Y-141199832D03*
X74902266Y-138659832D03*
X77442266Y-141199832D03*
X77442266Y-138659832D03*
X79982266Y-141199832D03*
X79982266Y-138659832D03*
X82522266Y-141199832D03*
X82522266Y-138659832D03*
D11*
X82522266Y-67499832D03*
D12*
X82522266Y-70039832D03*
X79982266Y-67499832D03*
X79982266Y-70039832D03*
X77442266Y-67499832D03*
X77442266Y-70039832D03*
X74902266Y-67499832D03*
X74902266Y-70039832D03*
X72362266Y-67499832D03*
X72362266Y-70039832D03*
X69822266Y-67499832D03*
X69822266Y-70039832D03*
X67282266Y-67499832D03*
X67282266Y-70039832D03*
X64742266Y-67499832D03*
X64742266Y-70039832D03*
X62202266Y-67499832D03*
X62202266Y-70039832D03*
X59662266Y-67499832D03*
X59662266Y-70039832D03*
X57122266Y-67499832D03*
X57122266Y-70039832D03*
X54582266Y-67499832D03*
X54582266Y-70039832D03*
X52042266Y-67499832D03*
X52042266Y-70039832D03*
X49502266Y-67499832D03*
X49502266Y-70039832D03*
X46962266Y-67499832D03*
X46962266Y-70039832D03*
X44422266Y-67499832D03*
X44422266Y-70039832D03*
X41882266Y-67499832D03*
X41882266Y-70039832D03*
X39342266Y-67499832D03*
X39342266Y-70039832D03*
X36802266Y-67499832D03*
X36802266Y-70039832D03*
X34262266Y-67499832D03*
X34262266Y-70039832D03*
D14*
X41900000Y-108050000D03*
X41900000Y-109950000D03*
D15*
X48650000Y-109650000D03*
X46750000Y-109650000D03*
D10*
G36*
X73988300Y-113490381D02*
X75190381Y-112288300D01*
X75968198Y-113066117D01*
X74766117Y-114268198D01*
X73988300Y-113490381D01*
X73988300Y-113490381D01*
G37*
G36*
X75331802Y-114833883D02*
X76533883Y-113631802D01*
X77311700Y-114409619D01*
X76109619Y-115611700D01*
X75331802Y-114833883D01*
X75331802Y-114833883D01*
G37*
D16*
X43987266Y-107984832D03*
X43987266Y-106714832D03*
X43987266Y-105444832D03*
X43987266Y-104174832D03*
X50457266Y-104174832D03*
X50457266Y-105444832D03*
X50457266Y-106714832D03*
X50457266Y-107984832D03*
D11*
X25400000Y-55380000D03*
D12*
X22860000Y-55380000D03*
X25400000Y-52840000D03*
X22860000Y-52840000D03*
X25400000Y-50300000D03*
X22860000Y-50300000D03*
X25400000Y-47760000D03*
X22860000Y-47760000D03*
D17*
X45862000Y-23536000D03*
X41462000Y-23536000D03*
D11*
X61660000Y-35360000D03*
D12*
X64200000Y-35360000D03*
X61660000Y-37900000D03*
X64200000Y-37900000D03*
X61660000Y-40440000D03*
X64200000Y-40440000D03*
D14*
X31060000Y-92040000D03*
X31060000Y-90140000D03*
X28950000Y-92050000D03*
X28950000Y-90150000D03*
X18900000Y-97875000D03*
X18900000Y-99775000D03*
X28880000Y-97440000D03*
X28880000Y-95540000D03*
X18900000Y-94525000D03*
X18900000Y-96425000D03*
X19100000Y-91750000D03*
X19100000Y-89850000D03*
M02*
