M48
;DRILL file {KiCad 4.0.4+e1-6308~48~ubuntu14.04.1-stable} date Tue Oct 18 21:08:32 2016
;FORMAT={-:-/ absolute / inch / decimal}
FMAT,2
INCH,TZ
T1C0.016
T2C0.016
T3C0.039
T4C0.040
T5C0.052
T6C0.157
%
G90
G05
M72
T1
X0.8614Y-1.7008
X0.9705Y-1.4075
X1.026Y-1.7034
X1.0335Y-2.3057
X1.0744Y-2.3026
X1.1125Y-2.3108
X1.1497Y-2.2992
X1.1622Y-3.9795
X1.1657Y-4.3311
X1.1671Y-1.1496
X1.222Y-1.8961
X1.2579Y-4.3307
X1.326Y-3.9913
X1.3378Y-4.448
X1.4173Y-1.5807
X1.4181Y-4.3398
X1.5118Y-3.9878
X1.5118Y-4.4331
X1.5169Y-4.3334
X1.5319Y-2.2428
X1.5768Y-3.8815
X1.622Y-1.1083
X1.6571Y-1.9402
X1.6864Y-2.0637
X1.7165Y-4.3189
X1.752Y-4.3189
X1.7657Y-2.2028
X1.7874Y-4.3189
X1.811Y-4.1476
X1.813Y-4.2087
X1.82Y-1.78
X1.9043Y-4.1545
X1.9488Y-4.3169
X1.9588Y-1.8798
X2.051Y-4.0884
X2.0906Y-1.6496
X2.1479Y-4.0713
X2.2598Y-1.8228
X2.2844Y-4.5214
X2.2913Y-4.2126
X2.3031Y-3.9321
X2.3189Y-4.2402
X2.3465Y-4.2677
X2.374Y-4.2953
X2.4016Y-4.3228
X2.4291Y-4.3504
X2.4488Y-4.0354
X2.4567Y-4.378
X2.4823Y-4.4764
X2.4843Y-4.4055
X2.5118Y-3.4803
X2.5433Y-3.5118
X2.5748Y-3.4803
X2.5748Y-3.5433
X2.6024Y-3.8839
X2.6063Y-3.5118
X2.6063Y-3.5748
X2.6319Y-4.5492
X2.6378Y-3.5433
X2.6378Y-3.6063
X2.6417Y-3.7559
X2.6673Y-4.7933
X2.6693Y-3.5748
X2.6693Y-3.6339
X2.6929Y-4.8228
X2.6949Y-4.7677
X2.7008Y-3.6024
X2.7008Y-3.6654
X2.7165Y-4.4685
X2.7185Y-4.7972
X2.7283Y-4.6732
X2.7323Y-3.6339
X2.748Y-4.4429
X2.7539Y-3.8445
X2.7638Y-4.0394
X2.7868Y-4.0157
X2.7874Y-4.063
X2.811Y-4.0394
X2.811Y-4.0866
X2.8327Y-3.8465
X2.8346Y-4.1102
X2.8346Y-4.063
X2.8583Y-4.0866
X2.8583Y-4.1339
X2.8622Y-4.4764
X2.8819Y-4.1575
X2.8833Y-4.1102
X2.9055Y-4.1339
X2.9685Y-4.3681
X3.0413Y-4.5591
X3.0866Y-4.1752
X3.1093Y-3.944
X3.1205Y-4.4792
X3.2182Y-4.0587
X3.2369Y-4.3822
X3.2392Y-1.9213
X3.2795Y-4.6772
X3.3346Y-4.2913
X3.3425Y-4.0472
X3.3425Y-4.0866
X3.3425Y-4.126
X3.374Y-4.0709
X3.374Y-4.1063
X3.374Y-4.2913
X3.374Y-4.3268
X3.7905Y-2.6889
T2
X0.7226Y-2.3976
X0.7351Y-2.4485
X0.7395Y-2.3554
X0.7942Y-2.3718
X0.8051Y-3.8553
X0.8268Y-3.7431
X0.87Y-2.85
X0.8736Y-2.5063
X0.9Y-2.85
X0.9028Y-2.5063
X0.93Y-2.85
X0.9358Y-2.5063
X0.96Y-2.85
X0.972Y-2.5063
X0.99Y-2.85
X1.0102Y-2.5063
X1.023Y-3.7375
X1.032Y-3.9449
X1.0642Y-1.6744
X1.075Y-3.7756
X1.0998Y-3.5376
X1.1177Y-3.4992
X1.13Y-3.88
X1.1319Y-3.7087
X1.1859Y-2.2089
X1.2047Y-3.1909
X1.2264Y-2.2089
X1.2299Y-3.872
X1.2417Y-3.1909
X1.278Y-3.1909
X1.3102Y-3.1909
X1.3106Y-2.1517
X1.3425Y-3.1909
X1.4206Y-3.8765
X1.5643Y-2.0735
X1.59Y-1.8
X1.6408Y-2.0858
X1.7087Y-5.3413
X1.9819Y-3.876
X2.1717Y-1.6736
X2.1717Y-1.713
X2.2815Y-2.0453
X2.4559Y-5.7921
X2.7193Y-1.776
X2.7654Y-1.8744
X2.7654Y-1.93
X2.7654Y-1.97
X2.7654Y-2.01
X2.7654Y-2.05
X2.7654Y-2.09
X2.7654Y-2.13
X2.7654Y-2.17
X2.7654Y-2.21
X2.7998Y-1.84
X2.8298Y-1.81
X2.8598Y-1.78
X2.87Y-1.91
X2.87Y-1.94
X2.87Y-1.97
X2.87Y-2.
X2.87Y-2.03
X2.87Y-2.06
X2.87Y-2.09
X2.87Y-2.12
X2.87Y-2.15
X2.8878Y-1.5587
X2.8878Y-1.5937
X2.8878Y-1.6276
X2.8878Y-1.6575
X2.8878Y-1.6846
X2.8878Y-1.7201
X2.8878Y-1.752
X2.89Y-1.89
X2.91Y-1.87
X3.0085Y-4.9068
X3.0185Y-5.8091
X3.0579Y-5.8091
X3.0988Y-5.8091
X3.1343Y-5.8091
X3.163Y-5.0181
X3.1736Y-5.8091
X3.2134Y-5.1382
X3.2138Y-5.8091
X3.2392Y-1.89
X3.252Y-5.8091
X3.2984Y-1.6193
X3.2992Y-5.8091
X3.3Y-1.99
X3.3346Y-5.8091
X3.4134Y-1.485
X3.455Y-1.84
X3.6184Y-3.9386
X3.6189Y-3.8394
X3.6519Y-2.298
X3.6519Y-2.2605
X3.6531Y-2.3354
X3.6534Y-2.223
X3.7744Y-1.8524
X3.7748Y-1.9004
X3.7748Y-1.9461
X3.7748Y-1.9972
X3.7748Y-2.0469
X3.7748Y-2.0925
X3.7748Y-2.1445
X3.7756Y-1.7457
X3.7756Y-1.8091
X3.7834Y-2.224
X3.7862Y-2.262
X3.7898Y-2.3367
X3.7902Y-2.2992
T3
X1.6324Y-0.9266
X1.8056Y-0.9266
T4
X0.8705Y-3.189
X0.8705Y-3.289
X0.8705Y-3.389
X0.8705Y-3.489
X0.8705Y-3.589
X0.8705Y-3.689
X0.8705Y-3.789
X0.8705Y-3.889
X0.8705Y-3.989
X0.8705Y-4.089
X0.8705Y-4.189
X0.8705Y-4.289
X0.8705Y-4.389
X0.8705Y-4.489
X0.8705Y-4.589
X0.8705Y-4.689
X0.8705Y-4.789
X0.8705Y-4.889
X0.8705Y-4.989
X0.8705Y-5.089
X0.9Y-1.8803
X0.9Y-1.9803
X0.9Y-2.0803
X0.9Y-2.1803
X0.9705Y-3.189
X0.9705Y-3.289
X0.9705Y-3.389
X0.9705Y-3.489
X0.9705Y-3.589
X0.9705Y-3.689
X0.9705Y-3.789
X0.9705Y-3.889
X0.9705Y-3.989
X0.9705Y-4.089
X0.9705Y-4.189
X0.9705Y-4.289
X0.9705Y-4.389
X0.9705Y-4.489
X0.9705Y-4.589
X0.9705Y-4.689
X0.9705Y-4.789
X0.9705Y-4.889
X0.9705Y-4.989
X0.9705Y-5.089
X1.Y-1.8803
X1.Y-1.9803
X1.Y-2.0803
X1.Y-2.1803
X1.3489Y-2.6575
X1.3489Y-2.7575
X1.3489Y-5.459
X1.3489Y-5.559
X1.4489Y-2.6575
X1.4489Y-2.7575
X1.4489Y-5.459
X1.4489Y-5.559
X1.5489Y-2.6575
X1.5489Y-2.7575
X1.5489Y-5.459
X1.5489Y-5.559
X1.6489Y-2.6575
X1.6489Y-2.7575
X1.6489Y-5.459
X1.6489Y-5.559
X1.7489Y-2.6575
X1.7489Y-2.7575
X1.7489Y-5.459
X1.7489Y-5.559
X1.8489Y-2.6575
X1.8489Y-2.7575
X1.8489Y-5.459
X1.8489Y-5.559
X1.9489Y-2.6575
X1.9489Y-2.7575
X1.9489Y-5.459
X1.9489Y-5.559
X2.0489Y-2.6575
X2.0489Y-2.7575
X2.0489Y-5.459
X2.0489Y-5.559
X2.1489Y-2.6575
X2.1489Y-2.7575
X2.1489Y-5.459
X2.1489Y-5.559
X2.2489Y-2.6575
X2.2489Y-2.7575
X2.2489Y-5.459
X2.2489Y-5.559
X2.3489Y-2.6575
X2.3489Y-2.7575
X2.3489Y-5.459
X2.3489Y-5.559
X2.4276Y-1.3921
X2.4276Y-1.4921
X2.4276Y-1.5921
X2.4489Y-2.6575
X2.4489Y-2.7575
X2.4489Y-5.459
X2.4489Y-5.559
X2.5276Y-1.3921
X2.5276Y-1.4921
X2.5276Y-1.5921
X2.5489Y-2.6575
X2.5489Y-2.7575
X2.5489Y-5.459
X2.5489Y-5.559
X2.6489Y-2.6575
X2.6489Y-2.7575
X2.6489Y-5.459
X2.6489Y-5.559
X2.7489Y-2.6575
X2.7489Y-2.7575
X2.7489Y-5.459
X2.7489Y-5.559
X2.8489Y-2.6575
X2.8489Y-2.7575
X2.8489Y-5.459
X2.8489Y-5.559
X2.9489Y-2.6575
X2.9489Y-2.7575
X2.9489Y-5.459
X2.9489Y-5.559
X3.0489Y-2.6575
X3.0489Y-2.7575
X3.0489Y-5.459
X3.0489Y-5.559
X3.1489Y-2.6575
X3.1489Y-2.7575
X3.1489Y-5.459
X3.1489Y-5.559
X3.2489Y-2.6575
X3.2489Y-2.7575
X3.2489Y-5.459
X3.2489Y-5.559
X3.6705Y-3.189
X3.6705Y-3.289
X3.6705Y-3.389
X3.6705Y-3.489
X3.6705Y-3.589
X3.6705Y-3.689
X3.6705Y-3.789
X3.6705Y-3.889
X3.6705Y-3.989
X3.6705Y-4.089
X3.6705Y-4.189
X3.6705Y-4.289
X3.6705Y-4.389
X3.6705Y-4.489
X3.6705Y-4.589
X3.6705Y-4.689
X3.6705Y-4.789
X3.6705Y-4.889
X3.6705Y-4.989
X3.6705Y-5.089
X3.7705Y-3.189
X3.7705Y-3.289
X3.7705Y-3.389
X3.7705Y-3.489
X3.7705Y-3.589
X3.7705Y-3.689
X3.7705Y-3.789
X3.7705Y-3.889
X3.7705Y-3.989
X3.7705Y-4.089
X3.7705Y-4.189
X3.7705Y-4.289
X3.7705Y-4.389
X3.7705Y-4.489
X3.7705Y-4.589
X3.7705Y-4.689
X3.7705Y-4.789
X3.7705Y-4.889
X3.7705Y-4.989
X3.7705Y-5.089
T5
X3.1831Y-0.9646
X3.3799Y-0.9646
T6
X0.7854Y-0.8815
X0.7854Y-5.8972
X3.7933Y-0.8815
X3.7933Y-5.8972
T0
M30
